M48
;Layer_Color=9474304
;FILE_FORMAT=2:4
INCH,LZ
;TYPE=PLATED
T1F00S00C0.0079
T2F00S00C0.0160
T3F00S00C0.0200
T4F00S00C0.0276
T6F00S00C0.0350
T7F00S00C0.0394
T9F00S00C0.0400
T10F00S00C0.0420
T11F00S00C0.0450
T12F00S00C0.1050
T13F00S00C0.1063
T14F00S00C0.1160
T15F00S00C0.1600
;TYPE=NON_PLATED
T16F00S00C0.0709
T17F00S00C0.1150
%
T01
X007163Y01071
X007477
T02
X01155Y0054
X01415Y0055
X013Y00155
X018Y00235
X02185Y00535
X0264Y00465
X02676Y00231
X03Y002
X03155Y00535
X04035Y00545
X042019
X04075Y0014
X0489Y0043
X04555Y00925
X0463Y0166
X04585Y0175
X0442Y01945
X0471Y02045
X03051Y02032
X02894Y01993
X02823Y01823
X0287Y01375
X02815Y0126
X02825Y0113
X02941
X02925Y01205
X0297Y00825
X0302Y00695
X0318Y00625
X02505Y0063
X02545Y00565
X02464Y00766
X02466Y00838
X0228Y006
X021075Y006025
X02Y00585
X0202Y01305
X021162Y013288
X0218Y0123
X023Y01175
X02545Y0126
X02635Y01215
X0254Y01575
X0249Y01675
X02305Y0168
X01895Y0172
X0191Y0189
X01691Y01781
X01721Y01589
X0163Y01554
X014308Y015952
X01467Y01681
X0146Y01775
X01415
X0142Y0182
X01265Y018
X0127Y0173
X01255Y0166
X01225Y0162
X012815Y015365
X0124Y0149
X0136Y01485
X012968Y014218
X01424Y01417
X01396Y01356
X0135Y0134
X01289Y01241
X01253Y01194
X01208Y01166
X0155Y0128
X01754Y01283
X01725Y0137
X018615Y01568
X0165Y02105
X0149Y01965
X01294Y01955
X0123Y01975
Y02065
X0129Y02045
X01324Y02012
X01345Y02075
X013Y02105
X02679Y01952
X02744Y018655
X02584Y01857
X011858Y006758
X01074Y00665
X00765Y0075
X0077Y00977
X00721Y00939
X0065Y00945
X00657Y01081
X00616Y01257
X00575Y0143
X005Y0139
X00745Y01355
X00834Y01357
X00896Y01325
X0099Y01355
X009374Y015576
X00945Y016
X0104Y016562
X011422Y016622
X01155Y0173
X01085Y0176
X0106Y018
X01065Y0185
X0101Y01992
X01041Y02026
X00945Y02085
X00935Y0196
X0094Y01765
X00765Y01695
X0076Y01625
X00775Y01575
X0081Y01485
X011Y0159
X01172Y0105
X00735Y01935
X00775Y0206
X00505Y01865
X00455Y01735
X0037Y01695
X00384Y01624
X0066Y02265
X00608Y02379
X0115Y0219
X01315Y02185
X01655Y02215
Y02395
X03221Y0241
X04965Y02355
X04935Y02155
T03
X0033Y0217
Y0222
X0038
Y0217
X0043
Y0222
X0048
Y0217
X0053
Y0222
T04
X002957Y011235
Y011865
X003449Y01218
Y01155
Y01092
T06
X003Y001
X02725Y004
X02825
X02925
X0487Y001
X02105Y0115
X02135Y0177
X01512Y00948
X0113Y0202
X003175Y015775
X0364Y02258
Y02386
T07
X008074Y02245
X009058
X01005
X011026
X01105Y023631
X01005
X00905
X00805
X01205
X01305
X01405
X01505
X01605
X01705
X01805
X01905
X02005
X02105
X02205
X02305
X02405
X02505
X02605
X02705
Y02245
X02605
X025082
X02405
X02305
X02205
X02105
X020058
X01905
X01805
X01705
X01605
X01505
X01405
X01305
X01205
T09
X0058Y0155
X005815Y0163
T10
X0477Y0106
Y0116
X0487
X0497
X0507
X0517
Y0106
X0507
X0497
X0487
X002Y01435
X001
Y01535
Y01635
Y01735
Y01835
Y01935
Y02035
X002
Y01935
Y01835
Y01735
Y01635
Y01535
Y02135
X001
T11
X04375Y00985
Y01505
Y01825
X04275
X04175
Y01505
Y00985
X04275
X04175Y02345
X04375
T12
X04535Y01245
Y02085
X04015
Y01245
T13
X000967Y009169
T14
X03402Y00867
X0011Y023601
X03402Y023631
T15
X0499Y007
Y0145
T16
X00142Y00458
T17
X0012Y00125
X05245Y0012
Y0235
M30
