G04*
G04 #@! TF.GenerationSoftware,Altium Limited,Altium Designer,19.1.5 (86)*
G04*
G04 Layer_Color=16711935*
%FSLAX24Y24*%
%MOIN*%
G70*
G01*
G75*
%ADD20C,0.0680*%
%ADD21R,0.0513X0.0474*%
%ADD22P,0.0682X8X112.5*%
%ADD23O,0.1655X0.0867*%
%ADD24O,0.0867X0.1655*%
%ADD25O,0.0867X0.1852*%
%ADD26C,0.0789*%
%ADD27R,0.0700X0.0700*%
%ADD28C,0.0700*%
%ADD29C,0.1280*%
%ADD30P,0.0682X8X22.5*%
%ADD31O,0.0730X0.0680*%
%ADD32C,0.0730*%
%ADD33C,0.1430*%
%ADD34C,0.4080*%
%ADD35C,0.0620*%
%ADD36R,0.0700X0.0700*%
%ADD37O,0.0966X0.0533*%
%ADD38C,0.0533*%
%ADD39C,0.0430*%
%ADD40R,0.0430X0.0430*%
%ADD41C,0.1180*%
%ADD42C,0.0360*%
%ADD43C,0.0237*%
%ADD100R,0.0454X0.0395*%
%ADD101R,0.0395X0.0454*%
%ADD102R,0.0474X0.0434*%
%ADD103R,0.0513X0.0513*%
%ADD104R,0.0513X0.0513*%
%ADD105R,0.0178X0.0277*%
%ADD106R,0.0710X0.0434*%
%ADD107R,0.0556X0.0954*%
%ADD108R,0.0395X0.0434*%
%ADD109R,0.0867X0.2167*%
%ADD110R,0.0513X0.0926*%
%ADD111R,0.0513X0.0926*%
%ADD112R,0.1458X0.0926*%
%ADD113O,0.0867X0.0316*%
%ADD114R,0.0867X0.0316*%
%ADD115R,0.0671X0.0572*%
%ADD116R,0.0198X0.0552*%
%ADD117R,0.0552X0.0198*%
%ADD118O,0.0552X0.0198*%
%ADD119O,0.0513X0.0316*%
%ADD120R,0.0513X0.0316*%
%ADD121R,0.0434X0.0474*%
%ADD122O,0.1020X0.0277*%
%ADD123R,0.1020X0.0277*%
%ADD124R,0.0415X0.0474*%
%ADD125R,0.0415X0.0474*%
%ADD126R,0.0474X0.0415*%
%ADD127R,0.0474X0.0415*%
D20*
X42900Y3000D02*
D03*
X24250D02*
D03*
X32400D02*
D03*
X15000D02*
D03*
X8074Y22450D02*
D03*
X9058D02*
D03*
X10050D02*
D03*
X11026D02*
D03*
X12050D02*
D03*
X13050D02*
D03*
X14050D02*
D03*
X15050D02*
D03*
X16050D02*
D03*
X17050D02*
D03*
X18050D02*
D03*
X19050D02*
D03*
X20058D02*
D03*
X21050D02*
D03*
X22050D02*
D03*
X23050D02*
D03*
X24050D02*
D03*
X25082D02*
D03*
X26050D02*
D03*
X27050D02*
D03*
D21*
X19650Y17569D02*
D03*
Y16900D02*
D03*
D22*
X36400Y22580D02*
D03*
Y23860D02*
D03*
X29250Y4000D02*
D03*
X3000Y1000D02*
D03*
X28250Y4000D02*
D03*
X48700Y1000D02*
D03*
X11300Y20200D02*
D03*
X21050Y11500D02*
D03*
X27250Y4000D02*
D03*
X15120Y9480D02*
D03*
D23*
X4255Y6470D02*
D03*
D24*
X3074Y4580D02*
D03*
D25*
X5436D02*
D03*
D26*
X1420D02*
D03*
D27*
X27050Y23631D02*
D03*
X47700Y11600D02*
D03*
D28*
X9050Y23631D02*
D03*
X10050D02*
D03*
X11050D02*
D03*
X12050D02*
D03*
X13050D02*
D03*
X14050D02*
D03*
X15050D02*
D03*
X16050D02*
D03*
X17050D02*
D03*
X18050D02*
D03*
X19050D02*
D03*
X20050D02*
D03*
X21050D02*
D03*
X22050D02*
D03*
X23050D02*
D03*
X24050D02*
D03*
X25050D02*
D03*
X26050D02*
D03*
X8050D02*
D03*
X48700Y11600D02*
D03*
X49700D02*
D03*
X50700D02*
D03*
X51700D02*
D03*
X47700Y10600D02*
D03*
X48700D02*
D03*
X49700D02*
D03*
X50700D02*
D03*
X51700D02*
D03*
X1000Y14350D02*
D03*
Y15350D02*
D03*
Y16350D02*
D03*
Y17350D02*
D03*
Y18350D02*
D03*
Y19350D02*
D03*
Y20350D02*
D03*
Y21350D02*
D03*
X2000Y14350D02*
D03*
Y15350D02*
D03*
Y16350D02*
D03*
Y17350D02*
D03*
Y18350D02*
D03*
Y19350D02*
D03*
Y20350D02*
D03*
D29*
X34020Y23631D02*
D03*
Y8670D02*
D03*
X1100Y23601D02*
D03*
X967Y9169D02*
D03*
D30*
X21350Y17700D02*
D03*
X3175Y15775D02*
D03*
D31*
X41750Y18250D02*
D03*
Y9850D02*
D03*
D32*
X42750Y18250D02*
D03*
X43750D02*
D03*
Y23450D02*
D03*
X41750D02*
D03*
Y15050D02*
D03*
X43750D02*
D03*
Y9850D02*
D03*
X42750D02*
D03*
D33*
X45350Y20850D02*
D03*
X40150D02*
D03*
Y12450D02*
D03*
X45350D02*
D03*
D34*
X49900Y7000D02*
D03*
Y14500D02*
D03*
D35*
X5800Y15500D02*
D03*
X5815Y16300D02*
D03*
D36*
X2000Y21350D02*
D03*
D37*
X1500Y12987D02*
D03*
Y10113D02*
D03*
D38*
X2957Y11865D02*
D03*
Y11235D02*
D03*
X3449Y10920D02*
D03*
Y11550D02*
D03*
Y12180D02*
D03*
D39*
X3300Y22200D02*
D03*
Y21700D02*
D03*
X3800Y22200D02*
D03*
Y21700D02*
D03*
X4300Y22200D02*
D03*
Y21700D02*
D03*
X4800Y22200D02*
D03*
Y21700D02*
D03*
X5300Y22200D02*
D03*
D40*
Y21700D02*
D03*
D41*
X1200Y1250D02*
D03*
X52450Y1200D02*
D03*
Y23500D02*
D03*
D42*
X6160Y12570D02*
D03*
X24660Y8380D02*
D03*
X24640Y7660D02*
D03*
X12890Y12410D02*
D03*
X10410Y20260D02*
D03*
X10100Y19920D02*
D03*
X7210Y9390D02*
D03*
X7700Y9770D02*
D03*
X8340Y13570D02*
D03*
X8960Y13250D02*
D03*
X6570Y10810D02*
D03*
X10740Y6650D02*
D03*
X16300Y15540D02*
D03*
X17210Y15890D02*
D03*
X14308Y15952D02*
D03*
X14670Y16810D02*
D03*
X6500Y9450D02*
D03*
X16910Y17810D02*
D03*
X16550Y23950D02*
D03*
X6080Y23790D02*
D03*
X32210Y24100D02*
D03*
X26790Y19520D02*
D03*
X28230Y18230D02*
D03*
X30510Y20320D02*
D03*
X28940Y19930D02*
D03*
X27440Y18655D02*
D03*
X25840Y18570D02*
D03*
X29410Y11300D02*
D03*
X11720Y10500D02*
D03*
X12080Y11660D02*
D03*
X12530Y11940D02*
D03*
X14240Y14170D02*
D03*
X17540Y12830D02*
D03*
X3840Y16240D02*
D03*
X18615Y15680D02*
D03*
X13960Y13560D02*
D03*
X13240Y20120D02*
D03*
X12940Y19550D02*
D03*
X12900Y20450D02*
D03*
X13450Y20750D02*
D03*
X12300Y19750D02*
D03*
X10650Y18500D02*
D03*
X23050Y16800D02*
D03*
X13500Y13400D02*
D03*
X7450Y13550D02*
D03*
X5750Y14300D02*
D03*
X20000Y5850D02*
D03*
X11550Y5400D02*
D03*
X11858Y6758D02*
D03*
X14150Y5500D02*
D03*
X15500Y12800D02*
D03*
X20200Y13050D02*
D03*
X17250Y13700D02*
D03*
X3700Y16950D02*
D03*
X25050Y6300D02*
D03*
X31800Y6250D02*
D03*
X26400Y4650D02*
D03*
X25450Y5650D02*
D03*
X21850Y5350D02*
D03*
X18000Y2350D02*
D03*
X13000Y1550D02*
D03*
X21800Y12300D02*
D03*
X40750Y1400D02*
D03*
X30000Y2000D02*
D03*
X26760Y2310D02*
D03*
X9450Y20850D02*
D03*
X7750Y20600D02*
D03*
X7350Y19350D02*
D03*
X9350Y19600D02*
D03*
X12650Y18000D02*
D03*
X13000Y21050D02*
D03*
X12300Y20650D02*
D03*
X14200Y18200D02*
D03*
X14150Y17750D02*
D03*
X14600D02*
D03*
X21162Y13288D02*
D03*
X25450Y12600D02*
D03*
X25400Y15750D02*
D03*
X29700Y8250D02*
D03*
X30200Y6950D02*
D03*
X21075Y6025D02*
D03*
X22800Y6000D02*
D03*
X16550Y22150D02*
D03*
X40350Y5450D02*
D03*
X31550Y5350D02*
D03*
X42019Y5450D02*
D03*
X7650Y16950D02*
D03*
X16500Y21050D02*
D03*
X7750Y15750D02*
D03*
X7600Y16250D02*
D03*
X14900Y19650D02*
D03*
X11500Y21900D02*
D03*
X9900Y13550D02*
D03*
X5000Y13900D02*
D03*
X6600Y22650D02*
D03*
X18950Y17200D02*
D03*
X19100Y18900D02*
D03*
X13150Y21850D02*
D03*
X5050Y18650D02*
D03*
X8100Y14850D02*
D03*
X4550Y17350D02*
D03*
X49350Y21550D02*
D03*
X45550Y9250D02*
D03*
X9450Y16000D02*
D03*
X9374Y15576D02*
D03*
X10400Y16562D02*
D03*
X12815Y15365D02*
D03*
X23000Y11750D02*
D03*
X28250Y11300D02*
D03*
X9400Y17650D02*
D03*
X47100Y20450D02*
D03*
X45850Y17500D02*
D03*
X44200Y19450D02*
D03*
X24900Y16750D02*
D03*
X48900Y4300D02*
D03*
X49650Y23550D02*
D03*
X46300Y16600D02*
D03*
X7650Y7500D02*
D03*
X28700Y13750D02*
D03*
X26350Y12150D02*
D03*
X11422Y16622D02*
D03*
X11550Y17300D02*
D03*
X12700D02*
D03*
X12550Y16600D02*
D03*
X12250Y16200D02*
D03*
X10600Y18000D02*
D03*
X10850Y17600D02*
D03*
X13600Y14850D02*
D03*
X11000Y15900D02*
D03*
X12968Y14218D02*
D03*
X12400Y14900D02*
D03*
X28150Y12600D02*
D03*
X29250Y12050D02*
D03*
D43*
X7477Y10710D02*
D03*
X7163D02*
D03*
D100*
X30780Y8154D02*
D03*
Y8686D02*
D03*
D101*
X25816Y7240D02*
D03*
X25284D02*
D03*
X25806Y7930D02*
D03*
X25274D02*
D03*
X25806Y8570D02*
D03*
X25274D02*
D03*
D102*
X8600Y11515D02*
D03*
Y12145D02*
D03*
X14350Y19035D02*
D03*
Y19665D02*
D03*
X16950Y16715D02*
D03*
Y17345D02*
D03*
X11200Y7800D02*
D03*
Y7170D02*
D03*
X18050Y2920D02*
D03*
Y3550D02*
D03*
X17600Y5215D02*
D03*
Y4585D02*
D03*
X31200Y23085D02*
D03*
Y23715D02*
D03*
X48700Y21635D02*
D03*
Y22265D02*
D03*
X20000Y7465D02*
D03*
Y6835D02*
D03*
X4250Y8115D02*
D03*
Y7485D02*
D03*
X5000Y8115D02*
D03*
Y7485D02*
D03*
X46300Y8085D02*
D03*
Y8715D02*
D03*
X45600Y8085D02*
D03*
Y8715D02*
D03*
X38000Y10035D02*
D03*
Y10665D02*
D03*
X38750Y10035D02*
D03*
Y10665D02*
D03*
X38000Y15215D02*
D03*
Y14585D02*
D03*
X38750D02*
D03*
Y15215D02*
D03*
X17900Y11570D02*
D03*
Y12200D02*
D03*
X18650Y11585D02*
D03*
Y12215D02*
D03*
X37400Y22435D02*
D03*
Y23065D02*
D03*
X38200Y22435D02*
D03*
Y23065D02*
D03*
X47850Y22265D02*
D03*
Y21635D02*
D03*
X38150Y19885D02*
D03*
Y20515D02*
D03*
X47050Y22265D02*
D03*
Y21635D02*
D03*
X37450Y19885D02*
D03*
Y20515D02*
D03*
X30300Y23085D02*
D03*
Y23715D02*
D03*
X15000Y13770D02*
D03*
Y14400D02*
D03*
X15700Y13770D02*
D03*
Y14400D02*
D03*
X13500Y19615D02*
D03*
Y18985D02*
D03*
X6400Y8115D02*
D03*
Y7485D02*
D03*
X5150Y20615D02*
D03*
Y19985D02*
D03*
X5800Y20615D02*
D03*
Y19985D02*
D03*
X6600Y20070D02*
D03*
Y20700D02*
D03*
X6650Y22015D02*
D03*
Y21385D02*
D03*
X6600Y23815D02*
D03*
Y23185D02*
D03*
X19650Y18285D02*
D03*
Y18915D02*
D03*
X29500Y23715D02*
D03*
Y23085D02*
D03*
X29350Y12635D02*
D03*
Y13265D02*
D03*
X21750Y13285D02*
D03*
Y13915D02*
D03*
X22550Y13285D02*
D03*
Y13915D02*
D03*
X16300Y7465D02*
D03*
Y6835D02*
D03*
X5700Y7485D02*
D03*
Y8115D02*
D03*
X14750Y8155D02*
D03*
Y8785D02*
D03*
X15490Y8135D02*
D03*
Y8765D02*
D03*
X39100Y22435D02*
D03*
Y23065D02*
D03*
X39750Y19065D02*
D03*
Y18435D02*
D03*
X46700Y19115D02*
D03*
Y18485D02*
D03*
X28700Y12635D02*
D03*
Y13265D02*
D03*
X28700Y23715D02*
D03*
Y23085D02*
D03*
X12050Y5315D02*
D03*
Y4685D02*
D03*
X44950Y8715D02*
D03*
Y8085D02*
D03*
X39500Y14585D02*
D03*
Y15215D02*
D03*
X30050Y12635D02*
D03*
Y13265D02*
D03*
X39450Y10035D02*
D03*
Y10665D02*
D03*
X7050Y7485D02*
D03*
Y8115D02*
D03*
D103*
X4276Y13340D02*
D03*
X4984D02*
D03*
X4954Y9850D02*
D03*
X4246D02*
D03*
X4954Y11600D02*
D03*
X4246D02*
D03*
X4246Y12450D02*
D03*
X4954D02*
D03*
X4246Y10750D02*
D03*
X4954D02*
D03*
D104*
X6140Y11256D02*
D03*
Y11964D02*
D03*
D105*
X7025Y11094D02*
D03*
X7222D02*
D03*
X7418D02*
D03*
X7615D02*
D03*
Y10346D02*
D03*
X7418D02*
D03*
X7222D02*
D03*
X7025D02*
D03*
D106*
X7320Y10720D02*
D03*
D107*
X6867Y12040D02*
D03*
X7733D02*
D03*
D108*
X16271Y16675D02*
D03*
Y17404D02*
D03*
X15700Y16675D02*
D03*
Y17404D02*
D03*
D109*
X8199Y1350D02*
D03*
X5601D02*
D03*
D110*
X18956Y7080D02*
D03*
X17144D02*
D03*
X13756Y7530D02*
D03*
X11944D02*
D03*
D111*
X18050Y7080D02*
D03*
X12850Y7530D02*
D03*
D112*
X18050Y9520D02*
D03*
X12850Y9970D02*
D03*
D113*
X23800Y10800D02*
D03*
Y11300D02*
D03*
Y11800D02*
D03*
Y12300D02*
D03*
Y12800D02*
D03*
Y13300D02*
D03*
Y13800D02*
D03*
Y14300D02*
D03*
Y14800D02*
D03*
Y15300D02*
D03*
Y15800D02*
D03*
Y16300D02*
D03*
Y16800D02*
D03*
Y17300D02*
D03*
X27501Y10800D02*
D03*
Y11300D02*
D03*
Y11800D02*
D03*
Y12300D02*
D03*
Y12800D02*
D03*
Y13300D02*
D03*
Y13800D02*
D03*
Y14300D02*
D03*
Y14800D02*
D03*
Y15300D02*
D03*
Y15800D02*
D03*
Y16300D02*
D03*
Y16800D02*
D03*
D114*
Y17300D02*
D03*
D115*
X9100Y4813D02*
D03*
Y3987D02*
D03*
D116*
X12603Y19100D02*
D03*
X12406D02*
D03*
X12209D02*
D03*
X12012D02*
D03*
X11815D02*
D03*
X11618D02*
D03*
X11422D02*
D03*
X11225D02*
D03*
X11028D02*
D03*
X10831D02*
D03*
X10634D02*
D03*
X10437D02*
D03*
X10241D02*
D03*
X10044D02*
D03*
X9847D02*
D03*
X9650D02*
D03*
Y14218D02*
D03*
X9847D02*
D03*
X10044D02*
D03*
X10241D02*
D03*
X10437D02*
D03*
X10634D02*
D03*
X10831D02*
D03*
X11028D02*
D03*
X11225D02*
D03*
X11422D02*
D03*
X11618D02*
D03*
X11815D02*
D03*
X12012D02*
D03*
X12209D02*
D03*
X12406D02*
D03*
X12603D02*
D03*
D117*
X8685Y18135D02*
D03*
Y17939D02*
D03*
Y17742D02*
D03*
Y17545D02*
D03*
Y17348D02*
D03*
Y17151D02*
D03*
Y16954D02*
D03*
Y16757D02*
D03*
Y16561D02*
D03*
Y16364D02*
D03*
Y16167D02*
D03*
Y15970D02*
D03*
Y15773D02*
D03*
Y15576D02*
D03*
Y15380D02*
D03*
Y15183D02*
D03*
X13567D02*
D03*
Y15380D02*
D03*
Y15576D02*
D03*
Y15773D02*
D03*
Y15970D02*
D03*
Y16167D02*
D03*
Y16364D02*
D03*
Y16561D02*
D03*
Y16757D02*
D03*
Y16954D02*
D03*
Y17151D02*
D03*
Y17348D02*
D03*
Y17545D02*
D03*
Y17742D02*
D03*
Y17939D02*
D03*
D118*
Y18135D02*
D03*
D119*
X19350Y11526D02*
D03*
Y11900D02*
D03*
Y12274D02*
D03*
X20374Y11526D02*
D03*
Y11900D02*
D03*
X19374Y4600D02*
D03*
Y4226D02*
D03*
X18350Y4974D02*
D03*
Y4600D02*
D03*
Y4226D02*
D03*
D120*
X20374Y12274D02*
D03*
X19374Y4974D02*
D03*
D121*
X28315Y9750D02*
D03*
X27685D02*
D03*
X13615Y5500D02*
D03*
X12985D02*
D03*
X19365Y3550D02*
D03*
X18735D02*
D03*
Y2850D02*
D03*
X19365D02*
D03*
X4565Y1650D02*
D03*
X3935D02*
D03*
X7815Y6100D02*
D03*
X7185D02*
D03*
X47815Y9050D02*
D03*
X47185D02*
D03*
X13015Y13400D02*
D03*
X12385D02*
D03*
X8335Y14200D02*
D03*
X8965D02*
D03*
X8035Y18750D02*
D03*
X8665D02*
D03*
X15615Y15035D02*
D03*
X14985D02*
D03*
X6485Y16300D02*
D03*
X7115D02*
D03*
X7115Y15550D02*
D03*
X6485D02*
D03*
X7815Y5350D02*
D03*
X7185D02*
D03*
Y4600D02*
D03*
X7815D02*
D03*
X7185Y3850D02*
D03*
X7815D02*
D03*
X47185Y8400D02*
D03*
X47815D02*
D03*
X47185Y9700D02*
D03*
X47815D02*
D03*
X40835Y5450D02*
D03*
X41465D02*
D03*
X31015Y5350D02*
D03*
X30385D02*
D03*
X10785Y2350D02*
D03*
X11415D02*
D03*
X10835Y1600D02*
D03*
X11465D02*
D03*
X21635Y6000D02*
D03*
X22265D02*
D03*
D122*
X27170D02*
D03*
Y6500D02*
D03*
Y7000D02*
D03*
Y7500D02*
D03*
Y8000D02*
D03*
Y8500D02*
D03*
Y9000D02*
D03*
X29000Y6000D02*
D03*
Y6500D02*
D03*
Y7000D02*
D03*
Y7500D02*
D03*
Y8000D02*
D03*
Y8500D02*
D03*
D123*
Y9000D02*
D03*
D124*
X10750Y5872D02*
D03*
X11124Y4928D02*
D03*
X11100Y4172D02*
D03*
X11474Y3228D02*
D03*
D125*
X10376Y4928D02*
D03*
X10726Y3228D02*
D03*
D126*
X9128Y2326D02*
D03*
X10072Y2700D02*
D03*
D127*
X9128Y3074D02*
D03*
M02*
