G04*
G04 #@! TF.GenerationSoftware,Altium Limited,Altium Designer,19.1.5 (86)*
G04*
G04 Layer_Physical_Order=1*
G04 Layer_Color=255*
%FSLAX24Y24*%
%MOIN*%
G70*
G01*
G75*
%ADD23C,0.1000*%
%ADD24C,0.0200*%
%ADD25C,0.0070*%
%ADD26C,0.1457*%
%ADD27C,0.0709*%
%ADD28C,0.0984*%
%ADD29C,0.0800*%
%ADD30R,0.0800X0.0800*%
%ADD31O,0.1772X0.0787*%
%ADD32O,0.1575X0.0787*%
%ADD33O,0.0787X0.1575*%
%ADD34R,0.0620X0.0620*%
%ADD35C,0.0620*%
%ADD36C,0.1100*%
G36*
X38660Y38225D02*
X38610Y38219D01*
X38584Y38328D01*
X38510Y38506D01*
X38410Y38669D01*
X38285Y38815D01*
X38139Y38940D01*
X37976Y39040D01*
X37798Y39114D01*
X37611Y39159D01*
X37468Y39170D01*
X37470Y39220D01*
X38660D01*
Y38225D01*
D02*
G37*
G36*
X37611Y38911D02*
X37795Y38855D01*
X37964Y38765D01*
X38113Y38643D01*
X38235Y38494D01*
X38325Y38325D01*
X38381Y38141D01*
X38400Y37950D01*
X38381Y37759D01*
X38325Y37575D01*
X38235Y37406D01*
X38113Y37257D01*
X37964Y37135D01*
X37795Y37045D01*
X37611Y36989D01*
X37420Y36970D01*
X37229Y36989D01*
X37045Y37045D01*
X36876Y37135D01*
X36727Y37257D01*
X36605Y37406D01*
X36515Y37575D01*
X36459Y37759D01*
X36440Y37950D01*
X36459Y38141D01*
X36515Y38325D01*
X36605Y38494D01*
X36727Y38643D01*
X36876Y38765D01*
X37045Y38855D01*
X37229Y38911D01*
X37420Y38930D01*
X37611Y38911D01*
D02*
G37*
G36*
X1321Y38891D02*
X1505Y38835D01*
X1674Y38745D01*
X1823Y38623D01*
X1945Y38474D01*
X2035Y38305D01*
X2091Y38121D01*
X2110Y37930D01*
X2091Y37739D01*
X2035Y37555D01*
X1945Y37386D01*
X1823Y37237D01*
X1674Y37115D01*
X1505Y37025D01*
X1321Y36969D01*
X1130Y36950D01*
X939Y36969D01*
X755Y37025D01*
X586Y37115D01*
X437Y37237D01*
X315Y37386D01*
X225Y37555D01*
X169Y37739D01*
X150Y37930D01*
X169Y38121D01*
X225Y38305D01*
X315Y38474D01*
X437Y38623D01*
X586Y38745D01*
X755Y38835D01*
X939Y38891D01*
X1130Y38910D01*
X1321Y38891D01*
D02*
G37*
G36*
X37372Y39170D02*
X37229Y39159D01*
X37042Y39114D01*
X36864Y39040D01*
X36701Y38940D01*
X36555Y38815D01*
X36430Y38669D01*
X36330Y38506D01*
X36256Y38328D01*
X36211Y38141D01*
X36196Y37950D01*
X36211Y37759D01*
X36256Y37572D01*
X36330Y37394D01*
X36430Y37231D01*
X36555Y37085D01*
X36701Y36960D01*
X36864Y36860D01*
X37042Y36786D01*
X37229Y36741D01*
X37420Y36726D01*
X37611Y36741D01*
X37798Y36786D01*
X37976Y36860D01*
X38139Y36960D01*
X38285Y37085D01*
X38410Y37231D01*
X38510Y37394D01*
X38584Y37572D01*
X38610Y37681D01*
X38660Y37675D01*
X38660Y1240D01*
X38610Y1238D01*
X38599Y1381D01*
X38554Y1568D01*
X38480Y1746D01*
X38380Y1909D01*
X38255Y2055D01*
X38109Y2180D01*
X37946Y2280D01*
X37768Y2354D01*
X37581Y2399D01*
X37390Y2414D01*
X37199Y2399D01*
X37012Y2354D01*
X36834Y2280D01*
X36671Y2180D01*
X36525Y2055D01*
X36400Y1909D01*
X36300Y1746D01*
X36226Y1568D01*
X36181Y1381D01*
X36166Y1190D01*
X36181Y999D01*
X36226Y812D01*
X36300Y634D01*
X36400Y471D01*
X36525Y325D01*
X36671Y200D01*
X36834Y100D01*
X37012Y26D01*
X37199Y-19D01*
X37390Y-34D01*
X37581Y-19D01*
X37768Y26D01*
X37946Y100D01*
X38109Y200D01*
X38255Y325D01*
X38380Y471D01*
X38480Y634D01*
X38554Y812D01*
X38599Y999D01*
X38610Y1142D01*
X38660Y1140D01*
X38660Y-100D01*
X1377Y-100D01*
X1375Y-50D01*
X1391Y-49D01*
X1578Y-4D01*
X1756Y70D01*
X1919Y170D01*
X2065Y295D01*
X2190Y441D01*
X2290Y604D01*
X2364Y782D01*
X2409Y969D01*
X2424Y1160D01*
X2409Y1351D01*
X2364Y1538D01*
X2290Y1716D01*
X2190Y1879D01*
X2065Y2025D01*
X1919Y2150D01*
X1756Y2250D01*
X1578Y2324D01*
X1391Y2369D01*
X1200Y2384D01*
X1009Y2369D01*
X822Y2324D01*
X644Y2250D01*
X481Y2150D01*
X335Y2025D01*
X210Y1879D01*
X110Y1716D01*
X50Y1572D01*
X0Y1582D01*
X0Y37343D01*
X50Y37357D01*
X140Y37211D01*
X265Y37065D01*
X411Y36940D01*
X574Y36840D01*
X752Y36766D01*
X939Y36721D01*
X1130Y36706D01*
X1321Y36721D01*
X1508Y36766D01*
X1686Y36840D01*
X1849Y36940D01*
X1995Y37065D01*
X2120Y37211D01*
X2220Y37374D01*
X2294Y37552D01*
X2339Y37739D01*
X2354Y37930D01*
X2339Y38121D01*
X2294Y38308D01*
X2220Y38486D01*
X2120Y38649D01*
X1995Y38795D01*
X1849Y38920D01*
X1686Y39020D01*
X1508Y39094D01*
X1321Y39139D01*
X1130Y39154D01*
X939Y39139D01*
X752Y39094D01*
X574Y39020D01*
X411Y38920D01*
X265Y38795D01*
X140Y38649D01*
X50Y38503D01*
X0Y38517D01*
Y39220D01*
X37370Y39220D01*
X37372Y39170D01*
D02*
G37*
G36*
X37581Y2151D02*
X37765Y2095D01*
X37934Y2005D01*
X38083Y1883D01*
X38205Y1734D01*
X38295Y1565D01*
X38351Y1381D01*
X38370Y1190D01*
X38351Y999D01*
X38295Y815D01*
X38205Y646D01*
X38083Y497D01*
X37934Y375D01*
X37765Y285D01*
X37581Y229D01*
X37390Y210D01*
X37199Y229D01*
X37015Y285D01*
X36846Y375D01*
X36697Y497D01*
X36575Y646D01*
X36485Y815D01*
X36429Y999D01*
X36410Y1190D01*
X36429Y1381D01*
X36485Y1565D01*
X36575Y1734D01*
X36697Y1883D01*
X36846Y2005D01*
X37015Y2095D01*
X37199Y2151D01*
X37390Y2170D01*
X37581Y2151D01*
D02*
G37*
G36*
X1391Y2121D02*
X1575Y2065D01*
X1744Y1975D01*
X1893Y1853D01*
X2015Y1704D01*
X2105Y1535D01*
X2161Y1351D01*
X2180Y1160D01*
X2161Y969D01*
X2105Y785D01*
X2015Y616D01*
X1893Y467D01*
X1744Y345D01*
X1575Y255D01*
X1391Y199D01*
X1200Y180D01*
X1009Y199D01*
X825Y255D01*
X656Y345D01*
X507Y467D01*
X385Y616D01*
X295Y785D01*
X239Y969D01*
X220Y1160D01*
X239Y1351D01*
X295Y1535D01*
X385Y1704D01*
X507Y1853D01*
X656Y1975D01*
X825Y2065D01*
X1009Y2121D01*
X1200Y2140D01*
X1391Y2121D01*
D02*
G37*
G36*
X110Y604D02*
X210Y441D01*
X335Y295D01*
X481Y170D01*
X644Y70D01*
X822Y-4D01*
X1009Y-49D01*
X1025Y-50D01*
X1023Y-100D01*
X100D01*
X0Y0D01*
Y738D01*
X50Y748D01*
X110Y604D01*
D02*
G37*
%LPC*%
G36*
X37420Y38623D02*
X37289Y38610D01*
X37162Y38572D01*
X37046Y38510D01*
X36944Y38426D01*
X36860Y38324D01*
X36798Y38208D01*
X36760Y38081D01*
X36747Y37950D01*
X36760Y37819D01*
X36798Y37692D01*
X36860Y37576D01*
X36944Y37474D01*
X37046Y37390D01*
X37162Y37328D01*
X37289Y37290D01*
X37420Y37277D01*
X37551Y37290D01*
X37678Y37328D01*
X37794Y37390D01*
X37896Y37474D01*
X37980Y37576D01*
X38042Y37692D01*
X38080Y37819D01*
X38093Y37950D01*
X38080Y38081D01*
X38042Y38208D01*
X37980Y38324D01*
X37896Y38426D01*
X37794Y38510D01*
X37678Y38572D01*
X37551Y38610D01*
X37420Y38623D01*
D02*
G37*
G36*
X1130Y38603D02*
X999Y38590D01*
X872Y38552D01*
X756Y38490D01*
X654Y38406D01*
X570Y38304D01*
X508Y38188D01*
X470Y38061D01*
X457Y37930D01*
X470Y37799D01*
X508Y37672D01*
X570Y37556D01*
X654Y37454D01*
X756Y37370D01*
X872Y37308D01*
X999Y37270D01*
X1130Y37257D01*
X1261Y37270D01*
X1388Y37308D01*
X1504Y37370D01*
X1606Y37454D01*
X1690Y37556D01*
X1752Y37672D01*
X1790Y37799D01*
X1803Y37930D01*
X1790Y38061D01*
X1752Y38188D01*
X1690Y38304D01*
X1606Y38406D01*
X1504Y38490D01*
X1388Y38552D01*
X1261Y38590D01*
X1130Y38603D01*
D02*
G37*
G36*
X34050Y38232D02*
X33939Y38217D01*
X33836Y38174D01*
X33747Y38106D01*
X33679Y38018D01*
X33637Y37914D01*
X33622Y37804D01*
X33637Y37693D01*
X33679Y37590D01*
X33747Y37501D01*
X33836Y37433D01*
X33939Y37390D01*
X34050Y37376D01*
X34161Y37390D01*
X34264Y37433D01*
X34353Y37501D01*
X34421Y37590D01*
X34463Y37693D01*
X34478Y37804D01*
X34463Y37914D01*
X34421Y38018D01*
X34353Y38106D01*
X34264Y38174D01*
X34161Y38217D01*
X34050Y38232D01*
D02*
G37*
G36*
X34444Y36648D02*
X34100D01*
Y36200D01*
X34935D01*
X34925Y36279D01*
X34875Y36399D01*
X34796Y36502D01*
X34693Y36581D01*
X34573Y36631D01*
X34444Y36648D01*
D02*
G37*
G36*
X34000D02*
X33656D01*
X33527Y36631D01*
X33407Y36581D01*
X33304Y36502D01*
X33225Y36399D01*
X33175Y36279D01*
X33165Y36200D01*
X34000D01*
Y36648D01*
D02*
G37*
G36*
X34935Y36100D02*
X34100D01*
Y35652D01*
X34444D01*
X34573Y35669D01*
X34693Y35719D01*
X34796Y35798D01*
X34875Y35901D01*
X34925Y36021D01*
X34935Y36100D01*
D02*
G37*
G36*
X34000D02*
X33165D01*
X33175Y36021D01*
X33225Y35901D01*
X33304Y35798D01*
X33407Y35719D01*
X33527Y35669D01*
X33656Y35652D01*
X34000D01*
Y36100D01*
D02*
G37*
G36*
X32110Y35854D02*
X32031Y35844D01*
X31911Y35794D01*
X31808Y35715D01*
X31729Y35612D01*
X31679Y35491D01*
X31662Y35363D01*
Y35019D01*
X32110D01*
Y35854D01*
D02*
G37*
G36*
X21190Y35560D02*
X20430D01*
Y34800D01*
X21190D01*
Y35560D01*
D02*
G37*
G36*
X19810Y35563D02*
X19711Y35550D01*
X19618Y35512D01*
X19539Y35451D01*
X19478Y35372D01*
X19440Y35279D01*
X19427Y35180D01*
X19440Y35081D01*
X19478Y34988D01*
X19539Y34909D01*
X19618Y34848D01*
X19711Y34810D01*
X19810Y34797D01*
X19909Y34810D01*
X20002Y34848D01*
X20081Y34909D01*
X20142Y34988D01*
X20180Y35081D01*
X20193Y35180D01*
X20180Y35279D01*
X20142Y35372D01*
X20081Y35451D01*
X20002Y35512D01*
X19909Y35550D01*
X19810Y35563D01*
D02*
G37*
G36*
X12970Y35550D02*
X12210D01*
Y34790D01*
X12970D01*
Y35550D01*
D02*
G37*
G36*
X11590Y35553D02*
X11491Y35540D01*
X11398Y35502D01*
X11319Y35441D01*
X11258Y35362D01*
X11220Y35269D01*
X11207Y35170D01*
X11220Y35071D01*
X11258Y34978D01*
X11319Y34899D01*
X11398Y34838D01*
X11491Y34800D01*
X11590Y34787D01*
X11689Y34800D01*
X11782Y34838D01*
X11861Y34899D01*
X11922Y34978D01*
X11960Y35071D01*
X11973Y35170D01*
X11960Y35269D01*
X11922Y35362D01*
X11861Y35441D01*
X11782Y35502D01*
X11689Y35540D01*
X11590Y35553D01*
D02*
G37*
G36*
X4830Y35530D02*
X4070D01*
Y34770D01*
X4830D01*
Y35530D01*
D02*
G37*
G36*
X3450Y35533D02*
X3351Y35520D01*
X3258Y35482D01*
X3179Y35421D01*
X3118Y35342D01*
X3080Y35249D01*
X3067Y35150D01*
X3080Y35051D01*
X3118Y34958D01*
X3179Y34879D01*
X3258Y34818D01*
X3351Y34780D01*
X3450Y34767D01*
X3549Y34780D01*
X3642Y34818D01*
X3721Y34879D01*
X3782Y34958D01*
X3820Y35051D01*
X3833Y35150D01*
X3820Y35249D01*
X3782Y35342D01*
X3721Y35421D01*
X3642Y35482D01*
X3549Y35520D01*
X3450Y35533D01*
D02*
G37*
G36*
X29350Y35480D02*
X28590D01*
Y34720D01*
X29350D01*
Y35480D01*
D02*
G37*
G36*
X27970Y35483D02*
X27871Y35470D01*
X27778Y35432D01*
X27699Y35371D01*
X27638Y35292D01*
X27600Y35199D01*
X27587Y35100D01*
X27600Y35001D01*
X27638Y34908D01*
X27699Y34829D01*
X27778Y34768D01*
X27871Y34730D01*
X27970Y34717D01*
X28069Y34730D01*
X28162Y34768D01*
X28241Y34829D01*
X28302Y34908D01*
X28340Y35001D01*
X28353Y35100D01*
X28340Y35199D01*
X28302Y35292D01*
X28241Y35371D01*
X28162Y35432D01*
X28069Y35470D01*
X27970Y35483D01*
D02*
G37*
G36*
X34542Y34255D02*
X33558D01*
X33437Y34240D01*
X33324Y34193D01*
X33227Y34119D01*
X33153Y34022D01*
X33106Y33909D01*
X33090Y33788D01*
X33106Y33667D01*
X33153Y33554D01*
X33227Y33457D01*
X33324Y33383D01*
X33437Y33336D01*
X33558Y33320D01*
X34542D01*
X34663Y33336D01*
X34776Y33383D01*
X34873Y33457D01*
X34947Y33554D01*
X34994Y33667D01*
X35010Y33788D01*
X34994Y33909D01*
X34947Y34022D01*
X34873Y34119D01*
X34776Y34193D01*
X34663Y34240D01*
X34542Y34255D01*
D02*
G37*
G36*
X31490Y31978D02*
X31379Y31963D01*
X31276Y31921D01*
X31187Y31853D01*
X31119Y31764D01*
X31077Y31661D01*
X31062Y31550D01*
X31077Y31439D01*
X31119Y31336D01*
X31187Y31247D01*
X31276Y31179D01*
X31379Y31137D01*
X31490Y31122D01*
X31601Y31137D01*
X31704Y31179D01*
X31793Y31247D01*
X31861Y31336D01*
X31903Y31439D01*
X31918Y31550D01*
X31903Y31661D01*
X31861Y31764D01*
X31793Y31853D01*
X31704Y31921D01*
X31601Y31963D01*
X31490Y31978D01*
D02*
G37*
G36*
X23300D02*
X23189Y31963D01*
X23086Y31921D01*
X22997Y31853D01*
X22929Y31764D01*
X22887Y31661D01*
X22872Y31550D01*
X22887Y31439D01*
X22929Y31336D01*
X22997Y31247D01*
X23086Y31179D01*
X23189Y31137D01*
X23300Y31122D01*
X23411Y31137D01*
X23514Y31179D01*
X23603Y31247D01*
X23671Y31336D01*
X23713Y31439D01*
X23728Y31550D01*
X23713Y31661D01*
X23671Y31764D01*
X23603Y31853D01*
X23514Y31921D01*
X23411Y31963D01*
X23300Y31978D01*
D02*
G37*
G36*
X15110D02*
X14999Y31963D01*
X14896Y31921D01*
X14807Y31853D01*
X14739Y31764D01*
X14697Y31661D01*
X14682Y31550D01*
X14697Y31439D01*
X14739Y31336D01*
X14807Y31247D01*
X14896Y31179D01*
X14999Y31137D01*
X15110Y31122D01*
X15221Y31137D01*
X15324Y31179D01*
X15413Y31247D01*
X15481Y31336D01*
X15523Y31439D01*
X15538Y31550D01*
X15523Y31661D01*
X15481Y31764D01*
X15413Y31853D01*
X15324Y31921D01*
X15221Y31963D01*
X15110Y31978D01*
D02*
G37*
G36*
X6910D02*
X6799Y31963D01*
X6696Y31921D01*
X6607Y31853D01*
X6539Y31764D01*
X6497Y31661D01*
X6482Y31550D01*
X6497Y31439D01*
X6539Y31336D01*
X6607Y31247D01*
X6696Y31179D01*
X6799Y31137D01*
X6910Y31122D01*
X7021Y31137D01*
X7124Y31179D01*
X7213Y31247D01*
X7281Y31336D01*
X7323Y31439D01*
X7338Y31550D01*
X7323Y31661D01*
X7281Y31764D01*
X7213Y31853D01*
X7124Y31921D01*
X7021Y31963D01*
X6910Y31978D01*
D02*
G37*
G36*
X26398Y32117D02*
X26252Y32098D01*
X26115Y32041D01*
X25998Y31951D01*
X25907Y31833D01*
X25851Y31697D01*
X25831Y31550D01*
X25851Y31403D01*
X25907Y31267D01*
X25998Y31149D01*
X26115Y31059D01*
X26252Y31002D01*
X26398Y30983D01*
X26545Y31002D01*
X26682Y31059D01*
X26799Y31149D01*
X26889Y31267D01*
X26946Y31403D01*
X26965Y31550D01*
X26946Y31697D01*
X26889Y31833D01*
X26799Y31951D01*
X26682Y32041D01*
X26545Y32098D01*
X26398Y32117D01*
D02*
G37*
G36*
X18208D02*
X18062Y32098D01*
X17925Y32041D01*
X17808Y31951D01*
X17717Y31833D01*
X17661Y31697D01*
X17641Y31550D01*
X17661Y31403D01*
X17717Y31267D01*
X17808Y31149D01*
X17925Y31059D01*
X18062Y31002D01*
X18208Y30983D01*
X18355Y31002D01*
X18492Y31059D01*
X18609Y31149D01*
X18699Y31267D01*
X18756Y31403D01*
X18775Y31550D01*
X18756Y31697D01*
X18699Y31833D01*
X18609Y31951D01*
X18492Y32041D01*
X18355Y32098D01*
X18208Y32117D01*
D02*
G37*
G36*
X10008D02*
X9862Y32098D01*
X9725Y32041D01*
X9608Y31951D01*
X9517Y31833D01*
X9461Y31697D01*
X9441Y31550D01*
X9461Y31403D01*
X9517Y31267D01*
X9608Y31149D01*
X9725Y31059D01*
X9862Y31002D01*
X10008Y30983D01*
X10155Y31002D01*
X10292Y31059D01*
X10409Y31149D01*
X10499Y31267D01*
X10556Y31403D01*
X10575Y31550D01*
X10556Y31697D01*
X10499Y31833D01*
X10409Y31951D01*
X10292Y32041D01*
X10155Y32098D01*
X10008Y32117D01*
D02*
G37*
G36*
X37920Y30030D02*
X36980D01*
Y29090D01*
X37920D01*
Y30030D01*
D02*
G37*
G36*
X31490Y29053D02*
X31333Y29038D01*
X31183Y28992D01*
X31044Y28918D01*
X30923Y28818D01*
X30823Y28696D01*
X30749Y28558D01*
X30703Y28407D01*
X30688Y28251D01*
X30703Y28094D01*
X30749Y27944D01*
X30823Y27805D01*
X30923Y27684D01*
X31044Y27584D01*
X31183Y27510D01*
X31333Y27464D01*
X31490Y27449D01*
X31646Y27464D01*
X31797Y27510D01*
X31936Y27584D01*
X32057Y27684D01*
X32157Y27805D01*
X32231Y27944D01*
X32277Y28094D01*
X32292Y28251D01*
X32277Y28407D01*
X32231Y28558D01*
X32157Y28696D01*
X32057Y28818D01*
X31936Y28918D01*
X31797Y28992D01*
X31646Y29038D01*
X31490Y29053D01*
D02*
G37*
G36*
X28392D02*
X28235Y29038D01*
X28085Y28992D01*
X27946Y28918D01*
X27824Y28818D01*
X27725Y28696D01*
X27650Y28558D01*
X27605Y28407D01*
X27589Y28251D01*
X27605Y28094D01*
X27650Y27944D01*
X27725Y27805D01*
X27824Y27684D01*
X27946Y27584D01*
X28085Y27510D01*
X28235Y27464D01*
X28392Y27449D01*
X28548Y27464D01*
X28699Y27510D01*
X28837Y27584D01*
X28959Y27684D01*
X29059Y27805D01*
X29133Y27944D01*
X29178Y28094D01*
X29194Y28251D01*
X29178Y28407D01*
X29133Y28558D01*
X29059Y28696D01*
X28959Y28818D01*
X28837Y28918D01*
X28699Y28992D01*
X28548Y29038D01*
X28392Y29053D01*
D02*
G37*
G36*
X23300D02*
X23143Y29038D01*
X22993Y28992D01*
X22854Y28918D01*
X22733Y28818D01*
X22633Y28696D01*
X22559Y28558D01*
X22513Y28407D01*
X22498Y28251D01*
X22513Y28094D01*
X22559Y27944D01*
X22633Y27805D01*
X22733Y27684D01*
X22854Y27584D01*
X22993Y27510D01*
X23143Y27464D01*
X23300Y27449D01*
X23456Y27464D01*
X23607Y27510D01*
X23746Y27584D01*
X23867Y27684D01*
X23967Y27805D01*
X24041Y27944D01*
X24087Y28094D01*
X24102Y28251D01*
X24087Y28407D01*
X24041Y28558D01*
X23967Y28696D01*
X23867Y28818D01*
X23746Y28918D01*
X23607Y28992D01*
X23456Y29038D01*
X23300Y29053D01*
D02*
G37*
G36*
X20202D02*
X20045Y29038D01*
X19895Y28992D01*
X19756Y28918D01*
X19634Y28818D01*
X19535Y28696D01*
X19460Y28558D01*
X19415Y28407D01*
X19399Y28251D01*
X19415Y28094D01*
X19460Y27944D01*
X19535Y27805D01*
X19634Y27684D01*
X19756Y27584D01*
X19895Y27510D01*
X20045Y27464D01*
X20202Y27449D01*
X20358Y27464D01*
X20509Y27510D01*
X20647Y27584D01*
X20769Y27684D01*
X20869Y27805D01*
X20943Y27944D01*
X20988Y28094D01*
X21004Y28251D01*
X20988Y28407D01*
X20943Y28558D01*
X20869Y28696D01*
X20769Y28818D01*
X20647Y28918D01*
X20509Y28992D01*
X20358Y29038D01*
X20202Y29053D01*
D02*
G37*
G36*
X15110D02*
X14954Y29038D01*
X14803Y28992D01*
X14664Y28918D01*
X14543Y28818D01*
X14443Y28696D01*
X14369Y28558D01*
X14323Y28407D01*
X14308Y28251D01*
X14323Y28094D01*
X14369Y27944D01*
X14443Y27805D01*
X14543Y27684D01*
X14664Y27584D01*
X14803Y27510D01*
X14954Y27464D01*
X15110Y27449D01*
X15266Y27464D01*
X15417Y27510D01*
X15556Y27584D01*
X15677Y27684D01*
X15777Y27805D01*
X15851Y27944D01*
X15897Y28094D01*
X15912Y28251D01*
X15897Y28407D01*
X15851Y28558D01*
X15777Y28696D01*
X15677Y28818D01*
X15556Y28918D01*
X15417Y28992D01*
X15266Y29038D01*
X15110Y29053D01*
D02*
G37*
G36*
X12012D02*
X11855Y29038D01*
X11705Y28992D01*
X11566Y28918D01*
X11444Y28818D01*
X11345Y28696D01*
X11270Y28558D01*
X11225Y28407D01*
X11209Y28251D01*
X11225Y28094D01*
X11270Y27944D01*
X11345Y27805D01*
X11444Y27684D01*
X11566Y27584D01*
X11705Y27510D01*
X11855Y27464D01*
X12012Y27449D01*
X12168Y27464D01*
X12319Y27510D01*
X12457Y27584D01*
X12579Y27684D01*
X12679Y27805D01*
X12753Y27944D01*
X12798Y28094D01*
X12814Y28251D01*
X12798Y28407D01*
X12753Y28558D01*
X12679Y28696D01*
X12579Y28818D01*
X12457Y28918D01*
X12319Y28992D01*
X12168Y29038D01*
X12012Y29053D01*
D02*
G37*
G36*
X6910D02*
X6754Y29038D01*
X6603Y28992D01*
X6464Y28918D01*
X6343Y28818D01*
X6243Y28696D01*
X6169Y28558D01*
X6123Y28407D01*
X6108Y28251D01*
X6123Y28094D01*
X6169Y27944D01*
X6243Y27805D01*
X6343Y27684D01*
X6464Y27584D01*
X6603Y27510D01*
X6754Y27464D01*
X6910Y27449D01*
X7067Y27464D01*
X7217Y27510D01*
X7356Y27584D01*
X7477Y27684D01*
X7577Y27805D01*
X7651Y27944D01*
X7697Y28094D01*
X7712Y28251D01*
X7697Y28407D01*
X7651Y28558D01*
X7577Y28696D01*
X7477Y28818D01*
X7356Y28918D01*
X7217Y28992D01*
X7067Y29038D01*
X6910Y29053D01*
D02*
G37*
G36*
X3812D02*
X3655Y29038D01*
X3505Y28992D01*
X3366Y28918D01*
X3244Y28818D01*
X3145Y28696D01*
X3070Y28558D01*
X3025Y28407D01*
X3009Y28251D01*
X3025Y28094D01*
X3070Y27944D01*
X3145Y27805D01*
X3244Y27684D01*
X3366Y27584D01*
X3505Y27510D01*
X3655Y27464D01*
X3812Y27449D01*
X3968Y27464D01*
X4119Y27510D01*
X4257Y27584D01*
X4379Y27684D01*
X4479Y27805D01*
X4553Y27944D01*
X4598Y28094D01*
X4614Y28251D01*
X4598Y28407D01*
X4553Y28558D01*
X4479Y28696D01*
X4379Y28818D01*
X4257Y28918D01*
X4119Y28992D01*
X3968Y29038D01*
X3812Y29053D01*
D02*
G37*
G36*
X3661Y17477D02*
X3620Y17469D01*
X3586Y17446D01*
X3465Y17325D01*
X3442Y17290D01*
X3434Y17249D01*
X3442Y17208D01*
X3465Y17174D01*
X3500Y17151D01*
X3541Y17142D01*
X3582Y17151D01*
X3616Y17174D01*
X3737Y17294D01*
X3760Y17329D01*
X3768Y17370D01*
X3760Y17411D01*
X3737Y17446D01*
X3702Y17469D01*
X3661Y17477D01*
D02*
G37*
G36*
X34588Y7321D02*
X34432Y7305D01*
X34281Y7260D01*
X34143Y7186D01*
X34021Y7086D01*
X33921Y6964D01*
X33847Y6826D01*
X33802Y6675D01*
X33786Y6518D01*
X33802Y6362D01*
X33847Y6212D01*
X33921Y6073D01*
X34021Y5951D01*
X34143Y5851D01*
X34281Y5777D01*
X34432Y5732D01*
X34588Y5716D01*
X34745Y5732D01*
X34895Y5777D01*
X35034Y5851D01*
X35156Y5951D01*
X35255Y6073D01*
X35330Y6212D01*
X35375Y6362D01*
X35391Y6518D01*
X35375Y6675D01*
X35330Y6826D01*
X35255Y6964D01*
X35156Y7086D01*
X35034Y7186D01*
X34895Y7260D01*
X34745Y7305D01*
X34588Y7321D01*
D02*
G37*
G36*
X31490D02*
X31333Y7305D01*
X31183Y7260D01*
X31044Y7186D01*
X30923Y7086D01*
X30823Y6964D01*
X30749Y6826D01*
X30703Y6675D01*
X30688Y6518D01*
X30703Y6362D01*
X30749Y6212D01*
X30823Y6073D01*
X30923Y5951D01*
X31044Y5851D01*
X31183Y5777D01*
X31333Y5732D01*
X31490Y5716D01*
X31646Y5732D01*
X31797Y5777D01*
X31936Y5851D01*
X32057Y5951D01*
X32157Y6073D01*
X32231Y6212D01*
X32277Y6362D01*
X32292Y6518D01*
X32277Y6675D01*
X32231Y6826D01*
X32157Y6964D01*
X32057Y7086D01*
X31936Y7186D01*
X31797Y7260D01*
X31646Y7305D01*
X31490Y7321D01*
D02*
G37*
G36*
X26398D02*
X26242Y7305D01*
X26091Y7260D01*
X25953Y7186D01*
X25831Y7086D01*
X25731Y6964D01*
X25657Y6826D01*
X25612Y6675D01*
X25596Y6518D01*
X25612Y6362D01*
X25657Y6212D01*
X25731Y6073D01*
X25831Y5951D01*
X25953Y5851D01*
X26091Y5777D01*
X26242Y5732D01*
X26398Y5716D01*
X26555Y5732D01*
X26705Y5777D01*
X26844Y5851D01*
X26966Y5951D01*
X27065Y6073D01*
X27140Y6212D01*
X27185Y6362D01*
X27201Y6518D01*
X27185Y6675D01*
X27140Y6826D01*
X27065Y6964D01*
X26966Y7086D01*
X26844Y7186D01*
X26705Y7260D01*
X26555Y7305D01*
X26398Y7321D01*
D02*
G37*
G36*
X23300D02*
X23143Y7305D01*
X22993Y7260D01*
X22854Y7186D01*
X22733Y7086D01*
X22633Y6964D01*
X22559Y6826D01*
X22513Y6675D01*
X22498Y6518D01*
X22513Y6362D01*
X22559Y6212D01*
X22633Y6073D01*
X22733Y5951D01*
X22854Y5851D01*
X22993Y5777D01*
X23143Y5732D01*
X23300Y5716D01*
X23456Y5732D01*
X23607Y5777D01*
X23746Y5851D01*
X23867Y5951D01*
X23967Y6073D01*
X24041Y6212D01*
X24087Y6362D01*
X24102Y6518D01*
X24087Y6675D01*
X24041Y6826D01*
X23967Y6964D01*
X23867Y7086D01*
X23746Y7186D01*
X23607Y7260D01*
X23456Y7305D01*
X23300Y7321D01*
D02*
G37*
G36*
X18208D02*
X18052Y7305D01*
X17901Y7260D01*
X17763Y7186D01*
X17641Y7086D01*
X17541Y6964D01*
X17467Y6826D01*
X17422Y6675D01*
X17406Y6518D01*
X17422Y6362D01*
X17467Y6212D01*
X17541Y6073D01*
X17641Y5951D01*
X17763Y5851D01*
X17901Y5777D01*
X18052Y5732D01*
X18208Y5716D01*
X18365Y5732D01*
X18515Y5777D01*
X18654Y5851D01*
X18776Y5951D01*
X18875Y6073D01*
X18950Y6212D01*
X18995Y6362D01*
X19011Y6518D01*
X18995Y6675D01*
X18950Y6826D01*
X18875Y6964D01*
X18776Y7086D01*
X18654Y7186D01*
X18515Y7260D01*
X18365Y7305D01*
X18208Y7321D01*
D02*
G37*
G36*
X32210Y35854D02*
Y34969D01*
X32160D01*
Y34919D01*
X31662D01*
Y34575D01*
X31679Y34446D01*
X31729Y34326D01*
X31735Y34318D01*
Y32326D01*
X31755Y32178D01*
X31812Y32039D01*
X31903Y31920D01*
X33742Y30081D01*
X33799Y30038D01*
X33775Y29979D01*
X33755Y29830D01*
Y27948D01*
X20663Y14857D01*
X9498Y3691D01*
X6908D01*
X6760Y3671D01*
X6621Y3614D01*
X6502Y3523D01*
X6411Y3404D01*
X6353Y3265D01*
X6334Y3116D01*
X6353Y2967D01*
X6411Y2829D01*
X6502Y2710D01*
X6621Y2618D01*
X6760Y2561D01*
X6908Y2541D01*
X9736D01*
X9885Y2561D01*
X10024Y2618D01*
X10143Y2710D01*
X14374Y6941D01*
X14414Y6911D01*
X14369Y6826D01*
X14323Y6675D01*
X14308Y6518D01*
X14323Y6362D01*
X14369Y6212D01*
X14443Y6073D01*
X14543Y5951D01*
X14664Y5851D01*
X14803Y5777D01*
X14954Y5732D01*
X15110Y5716D01*
X15266Y5732D01*
X15417Y5777D01*
X15556Y5851D01*
X15677Y5951D01*
X15777Y6073D01*
X15851Y6212D01*
X15897Y6362D01*
X15912Y6518D01*
X15897Y6675D01*
X15851Y6826D01*
X15777Y6964D01*
X15677Y7086D01*
X15556Y7186D01*
X15417Y7260D01*
X15266Y7305D01*
X15110Y7321D01*
X14954Y7305D01*
X14803Y7260D01*
X14718Y7214D01*
X14688Y7255D01*
X21477Y14043D01*
X34737Y27303D01*
X34828Y27423D01*
X34885Y27561D01*
X34905Y27710D01*
Y29830D01*
X34899Y29875D01*
X34932Y29913D01*
X36138D01*
X36287Y29933D01*
X36425Y29990D01*
X36544Y30081D01*
X37493Y31030D01*
X37581Y31041D01*
X37702Y31092D01*
X37807Y31172D01*
X37887Y31276D01*
X37937Y31398D01*
X37948Y31479D01*
X37450D01*
Y31579D01*
X37948D01*
X37937Y31659D01*
X37887Y31781D01*
X37807Y31885D01*
X37702Y31965D01*
X37581Y32016D01*
X37575Y32016D01*
X37507Y32068D01*
X37369Y32125D01*
X37220Y32145D01*
X37071Y32125D01*
X36933Y32068D01*
X36813Y31977D01*
X35900Y31063D01*
X34955D01*
X34939Y31110D01*
X34989Y31149D01*
X35079Y31267D01*
X35136Y31403D01*
X35155Y31550D01*
X35136Y31697D01*
X35079Y31833D01*
X34989Y31951D01*
X34872Y32041D01*
X34735Y32098D01*
X34588Y32117D01*
X34442Y32098D01*
X34305Y32041D01*
X34188Y31951D01*
X34097Y31833D01*
X34041Y31697D01*
X34021Y31550D01*
X34030Y31487D01*
X33985Y31464D01*
X32885Y32564D01*
Y34819D01*
X32865Y34968D01*
X32808Y35107D01*
X32717Y35226D01*
X32658Y35270D01*
Y35363D01*
X32641Y35491D01*
X32591Y35612D01*
X32512Y35715D01*
X32409Y35794D01*
X32289Y35844D01*
X32210Y35854D01*
D02*
G37*
G36*
X10008Y7321D02*
X9852Y7305D01*
X9701Y7260D01*
X9563Y7186D01*
X9441Y7086D01*
X9341Y6964D01*
X9267Y6826D01*
X9222Y6675D01*
X9206Y6518D01*
X9222Y6362D01*
X9267Y6212D01*
X9341Y6073D01*
X9441Y5951D01*
X9563Y5851D01*
X9701Y5777D01*
X9852Y5732D01*
X10008Y5716D01*
X10165Y5732D01*
X10315Y5777D01*
X10454Y5851D01*
X10576Y5951D01*
X10675Y6073D01*
X10750Y6212D01*
X10795Y6362D01*
X10811Y6518D01*
X10795Y6675D01*
X10750Y6826D01*
X10675Y6964D01*
X10576Y7086D01*
X10454Y7186D01*
X10315Y7260D01*
X10165Y7305D01*
X10008Y7321D01*
D02*
G37*
G36*
X6910D02*
X6754Y7305D01*
X6603Y7260D01*
X6464Y7186D01*
X6343Y7086D01*
X6243Y6964D01*
X6169Y6826D01*
X6123Y6675D01*
X6108Y6518D01*
X6123Y6362D01*
X6169Y6212D01*
X6243Y6073D01*
X6343Y5951D01*
X6464Y5851D01*
X6603Y5777D01*
X6754Y5732D01*
X6910Y5716D01*
X7067Y5732D01*
X7217Y5777D01*
X7356Y5851D01*
X7477Y5951D01*
X7577Y6073D01*
X7651Y6212D01*
X7697Y6362D01*
X7712Y6518D01*
X7697Y6675D01*
X7651Y6826D01*
X7577Y6964D01*
X7477Y7086D01*
X7356Y7186D01*
X7217Y7260D01*
X7067Y7305D01*
X6910Y7321D01*
D02*
G37*
G36*
X31490Y3545D02*
X31379Y3530D01*
X31276Y3488D01*
X31187Y3420D01*
X31119Y3331D01*
X31077Y3228D01*
X31062Y3117D01*
X31077Y3006D01*
X31119Y2903D01*
X31187Y2814D01*
X31276Y2746D01*
X31379Y2704D01*
X31490Y2689D01*
X31601Y2704D01*
X31704Y2746D01*
X31793Y2814D01*
X31861Y2903D01*
X31903Y3006D01*
X31918Y3117D01*
X31903Y3228D01*
X31861Y3331D01*
X31793Y3420D01*
X31704Y3488D01*
X31601Y3530D01*
X31490Y3545D01*
D02*
G37*
G36*
X23300D02*
X23189Y3530D01*
X23086Y3488D01*
X22997Y3420D01*
X22929Y3331D01*
X22887Y3228D01*
X22872Y3117D01*
X22887Y3006D01*
X22929Y2903D01*
X22997Y2814D01*
X23086Y2746D01*
X23189Y2704D01*
X23300Y2689D01*
X23411Y2704D01*
X23514Y2746D01*
X23603Y2814D01*
X23671Y2903D01*
X23713Y3006D01*
X23728Y3117D01*
X23713Y3228D01*
X23671Y3331D01*
X23603Y3420D01*
X23514Y3488D01*
X23411Y3530D01*
X23300Y3545D01*
D02*
G37*
G36*
X15110D02*
X14999Y3530D01*
X14896Y3488D01*
X14807Y3420D01*
X14739Y3331D01*
X14697Y3228D01*
X14682Y3117D01*
X14697Y3006D01*
X14739Y2903D01*
X14807Y2814D01*
X14896Y2746D01*
X14999Y2704D01*
X15110Y2689D01*
X15221Y2704D01*
X15324Y2746D01*
X15413Y2814D01*
X15481Y2903D01*
X15523Y3006D01*
X15538Y3117D01*
X15523Y3228D01*
X15481Y3331D01*
X15413Y3420D01*
X15324Y3488D01*
X15221Y3530D01*
X15110Y3545D01*
D02*
G37*
G36*
X37390Y1863D02*
X37259Y1850D01*
X37132Y1812D01*
X37016Y1750D01*
X36914Y1666D01*
X36830Y1564D01*
X36768Y1448D01*
X36730Y1321D01*
X36717Y1190D01*
X36730Y1059D01*
X36768Y932D01*
X36830Y816D01*
X36914Y714D01*
X37016Y630D01*
X37132Y568D01*
X37259Y530D01*
X37390Y517D01*
X37521Y530D01*
X37648Y568D01*
X37764Y630D01*
X37866Y714D01*
X37950Y816D01*
X38012Y932D01*
X38050Y1059D01*
X38063Y1190D01*
X38050Y1321D01*
X38012Y1448D01*
X37950Y1564D01*
X37866Y1666D01*
X37764Y1750D01*
X37648Y1812D01*
X37521Y1850D01*
X37390Y1863D01*
D02*
G37*
G36*
X1200Y1833D02*
X1069Y1820D01*
X942Y1782D01*
X826Y1720D01*
X724Y1636D01*
X640Y1534D01*
X578Y1418D01*
X540Y1291D01*
X527Y1160D01*
X540Y1029D01*
X578Y902D01*
X640Y786D01*
X724Y684D01*
X826Y600D01*
X942Y538D01*
X1069Y500D01*
X1200Y487D01*
X1331Y500D01*
X1458Y538D01*
X1574Y600D01*
X1676Y684D01*
X1760Y786D01*
X1822Y902D01*
X1860Y1029D01*
X1873Y1160D01*
X1860Y1291D01*
X1822Y1418D01*
X1760Y1534D01*
X1676Y1636D01*
X1574Y1720D01*
X1458Y1782D01*
X1331Y1820D01*
X1200Y1833D01*
D02*
G37*
%LPD*%
D23*
X6908Y3116D02*
X9736D01*
X32310Y32326D02*
Y34819D01*
Y32326D02*
X34148Y30488D01*
X34330Y27710D02*
Y29830D01*
X21070Y14450D02*
X34330Y27710D01*
X34148Y30488D02*
X36138D01*
X37220Y31570D01*
X9736Y3116D02*
X21070Y14450D01*
D24*
X32160Y34969D02*
X32310Y34819D01*
D25*
X32160Y34969D02*
Y35520D01*
X34050Y36150D02*
X34444D01*
X3541Y17249D02*
X3661Y17370D01*
D26*
X6910Y6518D02*
D03*
Y28251D02*
D03*
X10008Y6518D02*
D03*
X3812Y28251D02*
D03*
X15110Y6518D02*
D03*
Y28251D02*
D03*
X18208Y6518D02*
D03*
X12012Y28251D02*
D03*
X23300Y6518D02*
D03*
Y28251D02*
D03*
X26398Y6518D02*
D03*
X20202Y28251D02*
D03*
X31490Y6518D02*
D03*
Y28251D02*
D03*
X34588Y6518D02*
D03*
X28392Y28251D02*
D03*
D27*
X6910Y3117D02*
D03*
Y31550D02*
D03*
X15110Y3117D02*
D03*
Y31550D02*
D03*
X23300Y3117D02*
D03*
Y31550D02*
D03*
X31490Y3117D02*
D03*
Y31550D02*
D03*
X34050Y37804D02*
D03*
D28*
X10008Y31550D02*
D03*
X18208D02*
D03*
X26398D02*
D03*
X34588D02*
D03*
D29*
X37450Y31528D02*
D03*
D30*
Y29560D02*
D03*
D31*
X34050Y33788D02*
D03*
D32*
Y36150D02*
D03*
D33*
X32160Y34969D02*
D03*
D34*
X28970Y35100D02*
D03*
X20810Y35180D02*
D03*
X4450Y35150D02*
D03*
X12590Y35170D02*
D03*
D35*
X27970Y35100D02*
D03*
X19810Y35180D02*
D03*
X3450Y35150D02*
D03*
X11590Y35170D02*
D03*
D36*
X37420Y37950D02*
D03*
X37390Y1190D02*
D03*
X1200Y1160D02*
D03*
X1130Y37930D02*
D03*
M02*
