M48
;Layer_Color=9474304
;FILE_FORMAT=2:4
INCH,LZ
;TYPE=PLATED
T2F00S00C0.0420
T3F00S00C0.0520
T4F00S00C0.0941
T5F00S00C0.1398
;TYPE=NON_PLATED
T6F00S00C0.0709
T7F00S00C0.1200
%
T02
X00345Y03515
X00445
X01159Y03517
X01259
X01981Y03518
X02081
X02797Y0351
X02897
T03
X00691Y003117
X01511
X0233
X03149
X01511Y03155
X00691
X0233
X03149
X03745Y031528
Y02956
T04
X010008Y03155
X018208
X026398
X034588
T05
X00691Y006518
X010008
X01511
X018208
X0233
X026398
X03149
X034588
X003812Y028251
X00691
X012012
X01511
X020202
X0233
X028392
X03149
T06
X03405Y037804
T07
X0012Y00116
X03739Y00119
X00113Y03793
X03742Y03795
M30
