G04*
G04 #@! TF.GenerationSoftware,Altium Limited,Altium Designer,19.1.5 (86)*
G04*
G04 Layer_Physical_Order=2*
G04 Layer_Color=16711680*
%FSLAX24Y24*%
%MOIN*%
G70*
G01*
G75*
%ADD25C,0.0070*%
%ADD26C,0.1457*%
%ADD27C,0.0709*%
%ADD28C,0.0984*%
%ADD29C,0.0800*%
%ADD30R,0.0800X0.0800*%
%ADD31O,0.1772X0.0787*%
%ADD32O,0.1575X0.0787*%
%ADD33O,0.0787X0.1575*%
%ADD34R,0.0620X0.0620*%
%ADD35C,0.0620*%
%ADD36C,0.1100*%
%ADD37R,0.0787X0.2087*%
%ADD38C,0.0900*%
G36*
X38860Y39460D02*
X38860Y-280D01*
X-280Y-280D01*
X-280Y39460D01*
X38860Y39460D01*
D02*
G37*
%LPC*%
G36*
X34050Y38232D02*
X33939Y38217D01*
X33836Y38174D01*
X33747Y38106D01*
X33679Y38018D01*
X33637Y37914D01*
X33622Y37804D01*
X33637Y37693D01*
X33679Y37590D01*
X33747Y37501D01*
X33836Y37433D01*
X33939Y37390D01*
X34050Y37376D01*
X34161Y37390D01*
X34264Y37433D01*
X34353Y37501D01*
X34421Y37590D01*
X34463Y37693D01*
X34478Y37804D01*
X34463Y37914D01*
X34421Y38018D01*
X34353Y38106D01*
X34264Y38174D01*
X34161Y38217D01*
X34050Y38232D01*
D02*
G37*
G36*
X37420Y39174D02*
X37229Y39159D01*
X37042Y39114D01*
X36864Y39040D01*
X36701Y38940D01*
X36555Y38815D01*
X36430Y38669D01*
X36330Y38506D01*
X36256Y38328D01*
X36211Y38141D01*
X36196Y37950D01*
X36211Y37759D01*
X36256Y37572D01*
X36330Y37394D01*
X36430Y37231D01*
X36555Y37085D01*
X36701Y36960D01*
X36864Y36860D01*
X37042Y36786D01*
X37229Y36741D01*
X37420Y36726D01*
X37611Y36741D01*
X37798Y36786D01*
X37976Y36860D01*
X38139Y36960D01*
X38285Y37085D01*
X38410Y37231D01*
X38510Y37394D01*
X38584Y37572D01*
X38629Y37759D01*
X38644Y37950D01*
X38629Y38141D01*
X38584Y38328D01*
X38510Y38506D01*
X38410Y38669D01*
X38285Y38815D01*
X38139Y38940D01*
X37976Y39040D01*
X37798Y39114D01*
X37611Y39159D01*
X37420Y39174D01*
D02*
G37*
G36*
X1130Y39154D02*
X939Y39139D01*
X752Y39094D01*
X574Y39020D01*
X411Y38920D01*
X265Y38795D01*
X140Y38649D01*
X40Y38486D01*
X-34Y38308D01*
X-79Y38121D01*
X-94Y37930D01*
X-79Y37739D01*
X-34Y37552D01*
X40Y37374D01*
X140Y37211D01*
X265Y37065D01*
X411Y36940D01*
X574Y36840D01*
X752Y36766D01*
X939Y36721D01*
X1130Y36706D01*
X1321Y36721D01*
X1508Y36766D01*
X1686Y36840D01*
X1849Y36940D01*
X1995Y37065D01*
X2120Y37211D01*
X2220Y37374D01*
X2294Y37552D01*
X2339Y37739D01*
X2354Y37930D01*
X2339Y38121D01*
X2294Y38308D01*
X2220Y38486D01*
X2120Y38649D01*
X1995Y38795D01*
X1849Y38920D01*
X1686Y39020D01*
X1508Y39094D01*
X1321Y39139D01*
X1130Y39154D01*
D02*
G37*
G36*
X34444Y36648D02*
X34100D01*
Y36200D01*
X34935D01*
X34925Y36279D01*
X34875Y36399D01*
X34796Y36502D01*
X34693Y36581D01*
X34573Y36631D01*
X34444Y36648D01*
D02*
G37*
G36*
X34000D02*
X33656D01*
X33527Y36631D01*
X33407Y36581D01*
X33304Y36502D01*
X33225Y36399D01*
X33175Y36279D01*
X33165Y36200D01*
X34000D01*
Y36648D01*
D02*
G37*
G36*
X34935Y36100D02*
X34100D01*
Y35652D01*
X34444D01*
X34573Y35669D01*
X34693Y35719D01*
X34796Y35798D01*
X34875Y35901D01*
X34925Y36021D01*
X34935Y36100D01*
D02*
G37*
G36*
X34000D02*
X33165D01*
X33175Y36021D01*
X33225Y35901D01*
X33304Y35798D01*
X33407Y35719D01*
X33527Y35669D01*
X33656Y35652D01*
X34000D01*
Y36100D01*
D02*
G37*
G36*
X32210Y35854D02*
Y35019D01*
X32658D01*
Y35363D01*
X32641Y35491D01*
X32591Y35612D01*
X32512Y35715D01*
X32409Y35794D01*
X32289Y35844D01*
X32210Y35854D01*
D02*
G37*
G36*
X32110D02*
X32031Y35844D01*
X31911Y35794D01*
X31808Y35715D01*
X31729Y35612D01*
X31679Y35491D01*
X31662Y35363D01*
Y35019D01*
X32110D01*
Y35854D01*
D02*
G37*
G36*
X37500Y32026D02*
Y31579D01*
X37948D01*
X37937Y31659D01*
X37887Y31781D01*
X37807Y31885D01*
X37702Y31965D01*
X37581Y32016D01*
X37500Y32026D01*
D02*
G37*
G36*
X37400D02*
X37319Y32016D01*
X37198Y31965D01*
X37093Y31885D01*
X37013Y31781D01*
X36963Y31659D01*
X36952Y31579D01*
X37400D01*
Y32026D01*
D02*
G37*
G36*
X37948Y31479D02*
X37500D01*
Y31031D01*
X37581Y31041D01*
X37702Y31092D01*
X37807Y31172D01*
X37887Y31276D01*
X37937Y31398D01*
X37948Y31479D01*
D02*
G37*
G36*
X37400D02*
X36952D01*
X36963Y31398D01*
X37013Y31276D01*
X37093Y31172D01*
X37198Y31092D01*
X37319Y31041D01*
X37400Y31031D01*
Y31479D01*
D02*
G37*
G36*
X22814Y37943D02*
X21887D01*
Y37064D01*
X4190D01*
X4054Y37047D01*
X3928Y36994D01*
X3819Y36911D01*
X3079Y36171D01*
X2996Y36062D01*
X2943Y35936D01*
X2926Y35800D01*
Y35150D01*
X2943Y35014D01*
X2996Y34888D01*
X3079Y34779D01*
X3188Y34696D01*
X3314Y34643D01*
X3450Y34626D01*
X3586Y34643D01*
X3712Y34696D01*
X3821Y34779D01*
X3904Y34888D01*
X3906Y34893D01*
X3956Y34883D01*
Y34060D01*
X3973Y33924D01*
X4026Y33798D01*
X4109Y33689D01*
X6414Y31384D01*
X6454Y31287D01*
X6538Y31178D01*
X8016Y29700D01*
Y23390D01*
X8033Y23254D01*
X8086Y23128D01*
X8169Y23019D01*
X12466Y18723D01*
Y5215D01*
X12483Y5079D01*
X12536Y4952D01*
X12619Y4844D01*
X14718Y2745D01*
X14826Y2662D01*
X14953Y2610D01*
X15088Y2592D01*
X15224Y2610D01*
X15351Y2662D01*
X15459Y2745D01*
X15543Y2854D01*
X15595Y2980D01*
X15613Y3116D01*
X15595Y3252D01*
X15543Y3378D01*
X15459Y3487D01*
X13514Y5432D01*
Y18940D01*
X13497Y19076D01*
X13444Y19202D01*
X13361Y19311D01*
X9064Y23607D01*
Y29918D01*
X9047Y30053D01*
X8994Y30180D01*
X8911Y30289D01*
X7403Y31796D01*
X7363Y31894D01*
X7279Y32002D01*
X5004Y34277D01*
Y35150D01*
X4987Y35286D01*
X4934Y35412D01*
X4851Y35521D01*
X4742Y35604D01*
X4616Y35657D01*
X4480Y35674D01*
X4344Y35657D01*
X4218Y35604D01*
X4121Y35530D01*
X4070D01*
Y35470D01*
X4026Y35412D01*
X4024Y35407D01*
X3974Y35417D01*
Y35583D01*
X4407Y36016D01*
X11066D01*
Y35170D01*
X11083Y35034D01*
X11136Y34908D01*
X11219Y34799D01*
X11328Y34716D01*
X11454Y34663D01*
X11590Y34646D01*
X11726Y34663D01*
X11852Y34716D01*
X11961Y34799D01*
X12016Y34870D01*
X12066Y34853D01*
Y34048D01*
X12083Y33912D01*
X12136Y33785D01*
X12219Y33677D01*
X17186Y28710D01*
Y23810D01*
X17203Y23674D01*
X17256Y23548D01*
X17339Y23439D01*
X20836Y19943D01*
Y5067D01*
X20853Y4931D01*
X20906Y4805D01*
X20989Y4696D01*
X22899Y2786D01*
X23008Y2703D01*
X23134Y2650D01*
X23270Y2632D01*
X23406Y2650D01*
X23532Y2703D01*
X23641Y2786D01*
X23724Y2895D01*
X23777Y3021D01*
X23794Y3157D01*
X23777Y3293D01*
X23724Y3419D01*
X23641Y3528D01*
X21884Y5284D01*
Y20160D01*
X21867Y20296D01*
X21814Y20422D01*
X21731Y20531D01*
X18234Y24027D01*
Y28928D01*
X18217Y29063D01*
X18164Y29190D01*
X18081Y29299D01*
X13114Y34265D01*
Y35170D01*
X13097Y35306D01*
X13044Y35432D01*
X12970Y35529D01*
Y35550D01*
X12949D01*
X12852Y35624D01*
X12726Y35677D01*
X12590Y35694D01*
X12454Y35677D01*
X12328Y35624D01*
X12231Y35550D01*
X12210D01*
Y35529D01*
X12164Y35470D01*
X12114Y35487D01*
Y36016D01*
X19286D01*
Y35180D01*
X19303Y35044D01*
X19356Y34918D01*
X19439Y34809D01*
X19548Y34726D01*
X19674Y34673D01*
X19810Y34656D01*
X19946Y34673D01*
X20072Y34726D01*
X20181Y34809D01*
X20216Y34854D01*
X20266Y34837D01*
Y34070D01*
X20283Y33934D01*
X20336Y33808D01*
X20419Y33699D01*
X25196Y28923D01*
Y21110D01*
X25213Y20974D01*
X25266Y20848D01*
X25349Y20739D01*
X28656Y17433D01*
X28656Y5417D01*
X28673Y5281D01*
X28726Y5155D01*
X28809Y5046D01*
X31049Y2806D01*
X31158Y2723D01*
X31284Y2670D01*
X31420Y2652D01*
X31556Y2670D01*
X31682Y2723D01*
X31791Y2806D01*
X31874Y2915D01*
X31927Y3041D01*
X31944Y3177D01*
X31927Y3313D01*
X31874Y3439D01*
X31791Y3548D01*
X29704Y5634D01*
X29704Y17650D01*
X29687Y17786D01*
X29634Y17912D01*
X29551Y18021D01*
X26244Y21327D01*
Y29140D01*
X26227Y29276D01*
X26174Y29402D01*
X26091Y29511D01*
X21314Y34287D01*
Y35160D01*
X21297Y35296D01*
X21244Y35422D01*
X21190Y35493D01*
Y35560D01*
X21123D01*
X21052Y35614D01*
X20926Y35667D01*
X20790Y35684D01*
X20654Y35667D01*
X20528Y35614D01*
X20457Y35560D01*
X20430D01*
Y35539D01*
X20419Y35531D01*
X20384Y35486D01*
X20334Y35503D01*
Y36016D01*
X21849D01*
X21878Y35966D01*
X21844Y35885D01*
X21826Y35749D01*
X21844Y35613D01*
X21897Y35487D01*
X21980Y35378D01*
X22919Y34439D01*
X23028Y34356D01*
X23154Y34303D01*
X23290Y34286D01*
X27680D01*
X27816Y34303D01*
X27942Y34356D01*
X28051Y34439D01*
X28341Y34729D01*
X28396Y34800D01*
X28446Y34783D01*
Y34070D01*
X28463Y33934D01*
X28516Y33808D01*
X28599Y33699D01*
X31119Y31179D01*
X31228Y31096D01*
X31354Y31043D01*
X31490Y31026D01*
X31626Y31043D01*
X31752Y31096D01*
X31861Y31179D01*
X31944Y31288D01*
X31997Y31414D01*
X32014Y31550D01*
X31997Y31686D01*
X31944Y31812D01*
X31861Y31921D01*
X29494Y34287D01*
Y35100D01*
X29477Y35236D01*
X29424Y35362D01*
X29350Y35459D01*
Y35480D01*
X29329D01*
X29232Y35554D01*
X29106Y35607D01*
X28970Y35624D01*
X28834Y35607D01*
X28708Y35554D01*
X28611Y35480D01*
X28590D01*
Y35459D01*
X28516Y35362D01*
X28495Y35312D01*
X28445D01*
X28424Y35362D01*
X28341Y35471D01*
X28232Y35554D01*
X28106Y35607D01*
X27970Y35624D01*
X27834Y35607D01*
X27708Y35554D01*
X27599Y35471D01*
X27463Y35334D01*
X23507D01*
X22814Y36027D01*
Y36506D01*
X22819Y36540D01*
X22814Y36574D01*
Y37943D01*
D02*
G37*
G36*
X34588Y32117D02*
X34442Y32098D01*
X34305Y32041D01*
X34188Y31951D01*
X34097Y31833D01*
X34041Y31697D01*
X34021Y31550D01*
X34041Y31403D01*
X34097Y31267D01*
X34188Y31149D01*
X34305Y31059D01*
X34442Y31002D01*
X34588Y30983D01*
X34735Y31002D01*
X34872Y31059D01*
X34989Y31149D01*
X35079Y31267D01*
X35136Y31403D01*
X35155Y31550D01*
X35136Y31697D01*
X35079Y31833D01*
X34989Y31951D01*
X34872Y32041D01*
X34735Y32098D01*
X34588Y32117D01*
D02*
G37*
G36*
X26398D02*
X26252Y32098D01*
X26115Y32041D01*
X25998Y31951D01*
X25907Y31833D01*
X25851Y31697D01*
X25831Y31550D01*
X25851Y31403D01*
X25907Y31267D01*
X25998Y31149D01*
X26115Y31059D01*
X26252Y31002D01*
X26398Y30983D01*
X26545Y31002D01*
X26682Y31059D01*
X26799Y31149D01*
X26889Y31267D01*
X26946Y31403D01*
X26965Y31550D01*
X26946Y31697D01*
X26889Y31833D01*
X26799Y31951D01*
X26682Y32041D01*
X26545Y32098D01*
X26398Y32117D01*
D02*
G37*
G36*
X18208D02*
X18062Y32098D01*
X17925Y32041D01*
X17808Y31951D01*
X17717Y31833D01*
X17661Y31697D01*
X17641Y31550D01*
X17661Y31403D01*
X17717Y31267D01*
X17808Y31149D01*
X17925Y31059D01*
X18062Y31002D01*
X18208Y30983D01*
X18355Y31002D01*
X18492Y31059D01*
X18609Y31149D01*
X18699Y31267D01*
X18756Y31403D01*
X18775Y31550D01*
X18756Y31697D01*
X18699Y31833D01*
X18609Y31951D01*
X18492Y32041D01*
X18355Y32098D01*
X18208Y32117D01*
D02*
G37*
G36*
X10008D02*
X9862Y32098D01*
X9725Y32041D01*
X9608Y31951D01*
X9517Y31833D01*
X9461Y31697D01*
X9441Y31550D01*
X9461Y31403D01*
X9517Y31267D01*
X9608Y31149D01*
X9725Y31059D01*
X9862Y31002D01*
X10008Y30983D01*
X10155Y31002D01*
X10292Y31059D01*
X10409Y31149D01*
X10499Y31267D01*
X10556Y31403D01*
X10575Y31550D01*
X10556Y31697D01*
X10499Y31833D01*
X10409Y31951D01*
X10292Y32041D01*
X10155Y32098D01*
X10008Y32117D01*
D02*
G37*
G36*
X25413Y37943D02*
X24486D01*
Y36962D01*
X24475Y36880D01*
X24486Y36798D01*
Y35717D01*
X25413D01*
Y36356D01*
X29203D01*
X29746Y35813D01*
Y34570D01*
X29763Y34434D01*
X29816Y34308D01*
X29899Y34199D01*
X30869Y33229D01*
X30978Y33146D01*
X31104Y33093D01*
X31240Y33076D01*
X33862D01*
X33998Y33093D01*
X34124Y33146D01*
X34233Y33229D01*
X34259Y33263D01*
X35689D01*
Y30697D01*
X35707Y30561D01*
X35759Y30434D01*
X35843Y30326D01*
X35951Y30242D01*
X36078Y30190D01*
X36078Y30190D01*
X36980Y29288D01*
Y29090D01*
X37226D01*
X37314Y29053D01*
X37450Y29036D01*
X37586Y29053D01*
X37674Y29090D01*
X37920D01*
Y29336D01*
X37957Y29424D01*
X37974Y29560D01*
X37957Y29696D01*
X37920Y29784D01*
Y30030D01*
X37722D01*
X36738Y31014D01*
Y33637D01*
X36720Y33772D01*
X36668Y33899D01*
X36584Y34007D01*
X36499Y34073D01*
X36433Y34159D01*
X36324Y34242D01*
X36198Y34294D01*
X36062Y34312D01*
X34050D01*
X33914Y34294D01*
X33820Y34255D01*
X33558D01*
X33437Y34240D01*
X33324Y34193D01*
X33235Y34124D01*
X32466D01*
X32449Y34174D01*
X32512Y34223D01*
X32591Y34326D01*
X32641Y34446D01*
X32658Y34575D01*
Y34919D01*
X31662D01*
Y34575D01*
X31679Y34446D01*
X31729Y34326D01*
X31808Y34223D01*
X31871Y34174D01*
X31854Y34124D01*
X31457D01*
X30794Y34787D01*
Y36030D01*
X30777Y36166D01*
X30724Y36292D01*
X30641Y36401D01*
X29791Y37251D01*
X29682Y37334D01*
X29556Y37387D01*
X29420Y37404D01*
X25413D01*
Y37943D01*
D02*
G37*
G36*
X31490Y29053D02*
X31333Y29038D01*
X31183Y28992D01*
X31044Y28918D01*
X30923Y28818D01*
X30823Y28696D01*
X30749Y28558D01*
X30703Y28407D01*
X30688Y28251D01*
X30703Y28094D01*
X30749Y27944D01*
X30823Y27805D01*
X30923Y27684D01*
X31044Y27584D01*
X31183Y27510D01*
X31333Y27464D01*
X31490Y27449D01*
X31646Y27464D01*
X31797Y27510D01*
X31936Y27584D01*
X32057Y27684D01*
X32157Y27805D01*
X32231Y27944D01*
X32277Y28094D01*
X32292Y28251D01*
X32277Y28407D01*
X32231Y28558D01*
X32157Y28696D01*
X32057Y28818D01*
X31936Y28918D01*
X31797Y28992D01*
X31646Y29038D01*
X31490Y29053D01*
D02*
G37*
G36*
X28392D02*
X28235Y29038D01*
X28085Y28992D01*
X27946Y28918D01*
X27824Y28818D01*
X27725Y28696D01*
X27650Y28558D01*
X27605Y28407D01*
X27589Y28251D01*
X27605Y28094D01*
X27650Y27944D01*
X27725Y27805D01*
X27824Y27684D01*
X27946Y27584D01*
X28085Y27510D01*
X28235Y27464D01*
X28392Y27449D01*
X28548Y27464D01*
X28699Y27510D01*
X28837Y27584D01*
X28959Y27684D01*
X29059Y27805D01*
X29133Y27944D01*
X29178Y28094D01*
X29194Y28251D01*
X29178Y28407D01*
X29133Y28558D01*
X29059Y28696D01*
X28959Y28818D01*
X28837Y28918D01*
X28699Y28992D01*
X28548Y29038D01*
X28392Y29053D01*
D02*
G37*
G36*
X23300D02*
X23143Y29038D01*
X22993Y28992D01*
X22854Y28918D01*
X22733Y28818D01*
X22633Y28696D01*
X22559Y28558D01*
X22513Y28407D01*
X22498Y28251D01*
X22513Y28094D01*
X22559Y27944D01*
X22633Y27805D01*
X22733Y27684D01*
X22854Y27584D01*
X22993Y27510D01*
X23143Y27464D01*
X23300Y27449D01*
X23456Y27464D01*
X23607Y27510D01*
X23746Y27584D01*
X23867Y27684D01*
X23967Y27805D01*
X24041Y27944D01*
X24087Y28094D01*
X24102Y28251D01*
X24087Y28407D01*
X24041Y28558D01*
X23967Y28696D01*
X23867Y28818D01*
X23746Y28918D01*
X23607Y28992D01*
X23456Y29038D01*
X23300Y29053D01*
D02*
G37*
G36*
X20202D02*
X20045Y29038D01*
X19895Y28992D01*
X19756Y28918D01*
X19634Y28818D01*
X19535Y28696D01*
X19460Y28558D01*
X19415Y28407D01*
X19399Y28251D01*
X19415Y28094D01*
X19460Y27944D01*
X19535Y27805D01*
X19634Y27684D01*
X19756Y27584D01*
X19895Y27510D01*
X20045Y27464D01*
X20202Y27449D01*
X20358Y27464D01*
X20509Y27510D01*
X20647Y27584D01*
X20769Y27684D01*
X20869Y27805D01*
X20943Y27944D01*
X20988Y28094D01*
X21004Y28251D01*
X20988Y28407D01*
X20943Y28558D01*
X20869Y28696D01*
X20769Y28818D01*
X20647Y28918D01*
X20509Y28992D01*
X20358Y29038D01*
X20202Y29053D01*
D02*
G37*
G36*
X15110D02*
X14954Y29038D01*
X14803Y28992D01*
X14664Y28918D01*
X14543Y28818D01*
X14443Y28696D01*
X14369Y28558D01*
X14323Y28407D01*
X14308Y28251D01*
X14323Y28094D01*
X14369Y27944D01*
X14443Y27805D01*
X14543Y27684D01*
X14664Y27584D01*
X14803Y27510D01*
X14954Y27464D01*
X15110Y27449D01*
X15266Y27464D01*
X15417Y27510D01*
X15556Y27584D01*
X15677Y27684D01*
X15777Y27805D01*
X15851Y27944D01*
X15897Y28094D01*
X15912Y28251D01*
X15897Y28407D01*
X15851Y28558D01*
X15777Y28696D01*
X15677Y28818D01*
X15556Y28918D01*
X15417Y28992D01*
X15266Y29038D01*
X15110Y29053D01*
D02*
G37*
G36*
X12012D02*
X11855Y29038D01*
X11705Y28992D01*
X11566Y28918D01*
X11444Y28818D01*
X11345Y28696D01*
X11270Y28558D01*
X11225Y28407D01*
X11209Y28251D01*
X11225Y28094D01*
X11270Y27944D01*
X11345Y27805D01*
X11444Y27684D01*
X11566Y27584D01*
X11705Y27510D01*
X11855Y27464D01*
X12012Y27449D01*
X12168Y27464D01*
X12319Y27510D01*
X12457Y27584D01*
X12579Y27684D01*
X12679Y27805D01*
X12753Y27944D01*
X12798Y28094D01*
X12814Y28251D01*
X12798Y28407D01*
X12753Y28558D01*
X12679Y28696D01*
X12579Y28818D01*
X12457Y28918D01*
X12319Y28992D01*
X12168Y29038D01*
X12012Y29053D01*
D02*
G37*
G36*
X6910D02*
X6754Y29038D01*
X6603Y28992D01*
X6464Y28918D01*
X6343Y28818D01*
X6243Y28696D01*
X6169Y28558D01*
X6123Y28407D01*
X6108Y28251D01*
X6123Y28094D01*
X6169Y27944D01*
X6243Y27805D01*
X6343Y27684D01*
X6464Y27584D01*
X6603Y27510D01*
X6754Y27464D01*
X6910Y27449D01*
X7067Y27464D01*
X7217Y27510D01*
X7356Y27584D01*
X7477Y27684D01*
X7577Y27805D01*
X7651Y27944D01*
X7697Y28094D01*
X7712Y28251D01*
X7697Y28407D01*
X7651Y28558D01*
X7577Y28696D01*
X7477Y28818D01*
X7356Y28918D01*
X7217Y28992D01*
X7067Y29038D01*
X6910Y29053D01*
D02*
G37*
G36*
X3812D02*
X3655Y29038D01*
X3505Y28992D01*
X3366Y28918D01*
X3244Y28818D01*
X3145Y28696D01*
X3070Y28558D01*
X3025Y28407D01*
X3009Y28251D01*
X3025Y28094D01*
X3070Y27944D01*
X3145Y27805D01*
X3244Y27684D01*
X3366Y27584D01*
X3505Y27510D01*
X3655Y27464D01*
X3812Y27449D01*
X3968Y27464D01*
X4119Y27510D01*
X4257Y27584D01*
X4379Y27684D01*
X4479Y27805D01*
X4553Y27944D01*
X4598Y28094D01*
X4614Y28251D01*
X4598Y28407D01*
X4553Y28558D01*
X4479Y28696D01*
X4379Y28818D01*
X4257Y28918D01*
X4119Y28992D01*
X3968Y29038D01*
X3812Y29053D01*
D02*
G37*
G36*
X34588Y7321D02*
X34432Y7305D01*
X34281Y7260D01*
X34143Y7186D01*
X34021Y7086D01*
X33921Y6964D01*
X33847Y6826D01*
X33802Y6675D01*
X33786Y6518D01*
X33802Y6362D01*
X33847Y6212D01*
X33921Y6073D01*
X34021Y5951D01*
X34143Y5851D01*
X34281Y5777D01*
X34432Y5732D01*
X34588Y5716D01*
X34745Y5732D01*
X34895Y5777D01*
X35034Y5851D01*
X35156Y5951D01*
X35255Y6073D01*
X35330Y6212D01*
X35375Y6362D01*
X35391Y6518D01*
X35375Y6675D01*
X35330Y6826D01*
X35255Y6964D01*
X35156Y7086D01*
X35034Y7186D01*
X34895Y7260D01*
X34745Y7305D01*
X34588Y7321D01*
D02*
G37*
G36*
X31490D02*
X31333Y7305D01*
X31183Y7260D01*
X31044Y7186D01*
X30923Y7086D01*
X30823Y6964D01*
X30749Y6826D01*
X30703Y6675D01*
X30688Y6518D01*
X30703Y6362D01*
X30749Y6212D01*
X30823Y6073D01*
X30923Y5951D01*
X31044Y5851D01*
X31183Y5777D01*
X31333Y5732D01*
X31490Y5716D01*
X31646Y5732D01*
X31797Y5777D01*
X31936Y5851D01*
X32057Y5951D01*
X32157Y6073D01*
X32231Y6212D01*
X32277Y6362D01*
X32292Y6518D01*
X32277Y6675D01*
X32231Y6826D01*
X32157Y6964D01*
X32057Y7086D01*
X31936Y7186D01*
X31797Y7260D01*
X31646Y7305D01*
X31490Y7321D01*
D02*
G37*
G36*
X26398D02*
X26242Y7305D01*
X26091Y7260D01*
X25953Y7186D01*
X25831Y7086D01*
X25731Y6964D01*
X25657Y6826D01*
X25612Y6675D01*
X25596Y6518D01*
X25612Y6362D01*
X25657Y6212D01*
X25731Y6073D01*
X25831Y5951D01*
X25953Y5851D01*
X26091Y5777D01*
X26242Y5732D01*
X26398Y5716D01*
X26555Y5732D01*
X26705Y5777D01*
X26844Y5851D01*
X26966Y5951D01*
X27065Y6073D01*
X27140Y6212D01*
X27185Y6362D01*
X27201Y6518D01*
X27185Y6675D01*
X27140Y6826D01*
X27065Y6964D01*
X26966Y7086D01*
X26844Y7186D01*
X26705Y7260D01*
X26555Y7305D01*
X26398Y7321D01*
D02*
G37*
G36*
X23300D02*
X23143Y7305D01*
X22993Y7260D01*
X22854Y7186D01*
X22733Y7086D01*
X22633Y6964D01*
X22559Y6826D01*
X22513Y6675D01*
X22498Y6518D01*
X22513Y6362D01*
X22559Y6212D01*
X22633Y6073D01*
X22733Y5951D01*
X22854Y5851D01*
X22993Y5777D01*
X23143Y5732D01*
X23300Y5716D01*
X23456Y5732D01*
X23607Y5777D01*
X23746Y5851D01*
X23867Y5951D01*
X23967Y6073D01*
X24041Y6212D01*
X24087Y6362D01*
X24102Y6518D01*
X24087Y6675D01*
X24041Y6826D01*
X23967Y6964D01*
X23867Y7086D01*
X23746Y7186D01*
X23607Y7260D01*
X23456Y7305D01*
X23300Y7321D01*
D02*
G37*
G36*
X18208D02*
X18052Y7305D01*
X17901Y7260D01*
X17763Y7186D01*
X17641Y7086D01*
X17541Y6964D01*
X17467Y6826D01*
X17422Y6675D01*
X17406Y6518D01*
X17422Y6362D01*
X17467Y6212D01*
X17541Y6073D01*
X17641Y5951D01*
X17763Y5851D01*
X17901Y5777D01*
X18052Y5732D01*
X18208Y5716D01*
X18365Y5732D01*
X18515Y5777D01*
X18654Y5851D01*
X18776Y5951D01*
X18875Y6073D01*
X18950Y6212D01*
X18995Y6362D01*
X19011Y6518D01*
X18995Y6675D01*
X18950Y6826D01*
X18875Y6964D01*
X18776Y7086D01*
X18654Y7186D01*
X18515Y7260D01*
X18365Y7305D01*
X18208Y7321D01*
D02*
G37*
G36*
X15110D02*
X14954Y7305D01*
X14803Y7260D01*
X14664Y7186D01*
X14543Y7086D01*
X14443Y6964D01*
X14369Y6826D01*
X14323Y6675D01*
X14308Y6518D01*
X14323Y6362D01*
X14369Y6212D01*
X14443Y6073D01*
X14543Y5951D01*
X14664Y5851D01*
X14803Y5777D01*
X14954Y5732D01*
X15110Y5716D01*
X15266Y5732D01*
X15417Y5777D01*
X15556Y5851D01*
X15677Y5951D01*
X15777Y6073D01*
X15851Y6212D01*
X15897Y6362D01*
X15912Y6518D01*
X15897Y6675D01*
X15851Y6826D01*
X15777Y6964D01*
X15677Y7086D01*
X15556Y7186D01*
X15417Y7260D01*
X15266Y7305D01*
X15110Y7321D01*
D02*
G37*
G36*
X10008D02*
X9852Y7305D01*
X9701Y7260D01*
X9563Y7186D01*
X9441Y7086D01*
X9341Y6964D01*
X9267Y6826D01*
X9222Y6675D01*
X9206Y6518D01*
X9222Y6362D01*
X9267Y6212D01*
X9341Y6073D01*
X9441Y5951D01*
X9563Y5851D01*
X9701Y5777D01*
X9852Y5732D01*
X10008Y5716D01*
X10165Y5732D01*
X10315Y5777D01*
X10454Y5851D01*
X10576Y5951D01*
X10675Y6073D01*
X10750Y6212D01*
X10795Y6362D01*
X10811Y6518D01*
X10795Y6675D01*
X10750Y6826D01*
X10675Y6964D01*
X10576Y7086D01*
X10454Y7186D01*
X10315Y7260D01*
X10165Y7305D01*
X10008Y7321D01*
D02*
G37*
G36*
X6910D02*
X6754Y7305D01*
X6603Y7260D01*
X6464Y7186D01*
X6343Y7086D01*
X6243Y6964D01*
X6169Y6826D01*
X6123Y6675D01*
X6108Y6518D01*
X6123Y6362D01*
X6169Y6212D01*
X6243Y6073D01*
X6343Y5951D01*
X6464Y5851D01*
X6603Y5777D01*
X6754Y5732D01*
X6910Y5716D01*
X7067Y5732D01*
X7217Y5777D01*
X7356Y5851D01*
X7477Y5951D01*
X7577Y6073D01*
X7651Y6212D01*
X7697Y6362D01*
X7712Y6518D01*
X7697Y6675D01*
X7651Y6826D01*
X7577Y6964D01*
X7477Y7086D01*
X7356Y7186D01*
X7217Y7260D01*
X7067Y7305D01*
X6910Y7321D01*
D02*
G37*
G36*
X6960Y3569D02*
Y3167D01*
X7362D01*
X7353Y3236D01*
X7307Y3346D01*
X7234Y3441D01*
X7139Y3514D01*
X7029Y3560D01*
X6960Y3569D01*
D02*
G37*
G36*
X6860D02*
X6791Y3560D01*
X6681Y3514D01*
X6586Y3441D01*
X6513Y3346D01*
X6467Y3236D01*
X6458Y3167D01*
X6860D01*
Y3569D01*
D02*
G37*
G36*
X7362Y3067D02*
X6960D01*
Y2665D01*
X7029Y2674D01*
X7139Y2720D01*
X7234Y2793D01*
X7307Y2888D01*
X7353Y2998D01*
X7362Y3067D01*
D02*
G37*
G36*
X6860D02*
X6458D01*
X6467Y2998D01*
X6513Y2888D01*
X6586Y2793D01*
X6681Y2720D01*
X6791Y2674D01*
X6860Y2665D01*
Y3067D01*
D02*
G37*
G36*
X37390Y2414D02*
X37199Y2399D01*
X37012Y2354D01*
X36834Y2280D01*
X36671Y2180D01*
X36525Y2055D01*
X36400Y1909D01*
X36300Y1746D01*
X36226Y1568D01*
X36181Y1381D01*
X36166Y1190D01*
X36181Y999D01*
X36226Y812D01*
X36300Y634D01*
X36400Y471D01*
X36525Y325D01*
X36671Y200D01*
X36834Y100D01*
X37012Y26D01*
X37199Y-19D01*
X37390Y-34D01*
X37581Y-19D01*
X37768Y26D01*
X37946Y100D01*
X38109Y200D01*
X38255Y325D01*
X38380Y471D01*
X38480Y634D01*
X38554Y812D01*
X38599Y999D01*
X38614Y1190D01*
X38599Y1381D01*
X38554Y1568D01*
X38480Y1746D01*
X38380Y1909D01*
X38255Y2055D01*
X38109Y2180D01*
X37946Y2280D01*
X37768Y2354D01*
X37581Y2399D01*
X37390Y2414D01*
D02*
G37*
G36*
X1200Y2384D02*
X1009Y2369D01*
X822Y2324D01*
X644Y2250D01*
X481Y2150D01*
X335Y2025D01*
X210Y1879D01*
X110Y1716D01*
X36Y1538D01*
X-9Y1351D01*
X-24Y1160D01*
X-9Y969D01*
X36Y782D01*
X110Y604D01*
X210Y441D01*
X335Y295D01*
X481Y170D01*
X644Y70D01*
X822Y-4D01*
X1009Y-49D01*
X1200Y-64D01*
X1391Y-49D01*
X1578Y-4D01*
X1756Y70D01*
X1919Y170D01*
X2065Y295D01*
X2190Y441D01*
X2290Y604D01*
X2364Y782D01*
X2409Y969D01*
X2424Y1160D01*
X2409Y1351D01*
X2364Y1538D01*
X2290Y1716D01*
X2190Y1879D01*
X2065Y2025D01*
X1919Y2150D01*
X1756Y2250D01*
X1578Y2324D01*
X1391Y2369D01*
X1200Y2384D01*
D02*
G37*
%LPD*%
D25*
X22351Y35749D02*
Y36830D01*
X33862Y33600D02*
X34050Y33788D01*
X24949Y36830D02*
X24999Y36880D01*
X32160Y34969D02*
Y35363D01*
X36062Y33788D02*
X36213Y33637D01*
Y30697D02*
X36313D01*
X6908Y31549D02*
Y31632D01*
X34050Y35990D02*
Y36150D01*
X11590Y36530D02*
X11600Y36540D01*
X20790Y35160D02*
X20810Y35180D01*
D26*
X6910Y6518D02*
D03*
Y28251D02*
D03*
X10008Y6518D02*
D03*
X3812Y28251D02*
D03*
X15110Y6518D02*
D03*
Y28251D02*
D03*
X18208Y6518D02*
D03*
X12012Y28251D02*
D03*
X23300Y6518D02*
D03*
Y28251D02*
D03*
X26398Y6518D02*
D03*
X20202Y28251D02*
D03*
X31490Y6518D02*
D03*
Y28251D02*
D03*
X34588Y6518D02*
D03*
X28392Y28251D02*
D03*
D27*
X6910Y3117D02*
D03*
Y31550D02*
D03*
X15110Y3117D02*
D03*
Y31550D02*
D03*
X23300Y3117D02*
D03*
Y31550D02*
D03*
X31490Y3117D02*
D03*
Y31550D02*
D03*
X34050Y37804D02*
D03*
D28*
X10008Y31550D02*
D03*
X18208D02*
D03*
X26398D02*
D03*
X34588D02*
D03*
D29*
X37450Y31528D02*
D03*
D30*
Y29560D02*
D03*
D31*
X34050Y33788D02*
D03*
D32*
Y36150D02*
D03*
D33*
X32160Y34969D02*
D03*
D34*
X28970Y35100D02*
D03*
X20810Y35180D02*
D03*
X4450Y35150D02*
D03*
X12590Y35170D02*
D03*
D35*
X27970Y35100D02*
D03*
X19810Y35180D02*
D03*
X3450Y35150D02*
D03*
X11590Y35170D02*
D03*
D36*
X37420Y37950D02*
D03*
X37390Y1190D02*
D03*
X1200Y1160D02*
D03*
X1130Y37930D02*
D03*
D37*
X22351Y36830D02*
D03*
X24949D02*
D03*
D38*
X24999Y36880D02*
X29420D01*
X30270Y34570D02*
Y36030D01*
X29420Y36880D02*
X30270Y36030D01*
Y34570D02*
X31240Y33600D01*
X23290Y34810D02*
X27680D01*
X22351Y35749D02*
X23290Y34810D01*
X27680D02*
X27970Y35100D01*
X19810Y36540D02*
X22294D01*
X31240Y33600D02*
X33862D01*
X28970Y34070D02*
X31490Y31550D01*
X28970Y34070D02*
Y35100D01*
X20790Y34070D02*
X25720Y29140D01*
X20790Y34070D02*
Y35160D01*
X34050Y33788D02*
X36062D01*
X36313Y30697D02*
X37450Y29560D01*
X36213Y30697D02*
Y33637D01*
X29180Y5417D02*
X31420Y3177D01*
X29180Y17650D02*
X29180Y5417D01*
X25720Y21110D02*
X29180Y17650D01*
X12590Y34048D02*
X17710Y28928D01*
Y23810D02*
X21360Y20160D01*
Y5067D02*
Y20160D01*
Y5067D02*
X23270Y3157D01*
X4480Y34060D02*
Y35150D01*
X6908Y31549D02*
X8540Y29918D01*
Y23390D02*
X12990Y18940D01*
Y5215D02*
Y18940D01*
Y5215D02*
X15088Y3116D01*
X19810Y35180D02*
Y36540D01*
X4190D02*
X11600D01*
X3450Y35800D02*
X4190Y36540D01*
X3450Y35150D02*
Y35800D01*
X11590Y35170D02*
Y36530D01*
X11600Y36540D02*
X19810D01*
X12590Y34048D02*
Y35170D01*
X4480Y34060D02*
X6908Y31632D01*
X25720Y21110D02*
Y29140D01*
X17710Y23810D02*
Y28928D01*
X8540Y23390D02*
Y29918D01*
M02*
