G04*
G04 #@! TF.GenerationSoftware,Altium Limited,Altium Designer,19.1.5 (86)*
G04*
G04 Layer_Physical_Order=1*
G04 Layer_Color=255*
%FSLAX24Y24*%
%MOIN*%
G70*
G01*
G75*
%ADD10C,0.0100*%
%ADD16R,0.0394X0.0433*%
%ADD17C,0.0600*%
%ADD18R,0.0433X0.0394*%
%ADD35C,0.0620*%
%ADD44C,0.2000*%
%ADD45C,0.0200*%
%ADD46P,0.0595X8X112.5*%
%ADD47O,0.1575X0.0787*%
%ADD48O,0.0787X0.1575*%
%ADD49O,0.0787X0.1772*%
%ADD50C,0.0709*%
%ADD51R,0.0620X0.0620*%
%ADD52C,0.1200*%
%ADD53P,0.0595X8X22.5*%
%ADD54O,0.0650X0.0600*%
%ADD55C,0.0650*%
%ADD56C,0.1350*%
%ADD57C,0.4000*%
%ADD58C,0.0540*%
%ADD59R,0.0620X0.0620*%
%ADD60O,0.0886X0.0453*%
%ADD61C,0.0453*%
%ADD62C,0.0350*%
%ADD63R,0.0350X0.0350*%
%ADD64C,0.1100*%
%ADD65C,0.0280*%
%ADD66C,0.0157*%
G36*
X1291Y24561D02*
X1475Y24505D01*
X1644Y24415D01*
X1793Y24293D01*
X1915Y24144D01*
X2005Y23975D01*
X2061Y23791D01*
X2080Y23600D01*
X2061Y23409D01*
X2005Y23225D01*
X1915Y23056D01*
X1793Y22907D01*
X1644Y22785D01*
X1475Y22695D01*
X1291Y22639D01*
X1100Y22620D01*
X909Y22639D01*
X725Y22695D01*
X556Y22785D01*
X407Y22907D01*
X285Y23056D01*
X195Y23225D01*
X139Y23409D01*
X120Y23600D01*
X139Y23791D01*
X195Y23975D01*
X285Y24144D01*
X407Y24293D01*
X556Y24415D01*
X725Y24505D01*
X909Y24561D01*
X1100Y24580D01*
X1291Y24561D01*
D02*
G37*
G36*
X52641Y24461D02*
X52825Y24405D01*
X52994Y24315D01*
X53143Y24193D01*
X53265Y24044D01*
X53355Y23875D01*
X53411Y23691D01*
X53430Y23500D01*
X53411Y23309D01*
X53355Y23125D01*
X53265Y22956D01*
X53143Y22807D01*
X52994Y22685D01*
X52825Y22595D01*
X52641Y22539D01*
X52450Y22520D01*
X52259Y22539D01*
X52075Y22595D01*
X51906Y22685D01*
X51757Y22807D01*
X51635Y22956D01*
X51545Y23125D01*
X51489Y23309D01*
X51470Y23500D01*
X51489Y23691D01*
X51545Y23875D01*
X51635Y24044D01*
X51757Y24193D01*
X51906Y24315D01*
X52075Y24405D01*
X52259Y24461D01*
X52450Y24480D01*
X52641Y24461D01*
D02*
G37*
G36*
X51990Y24630D02*
X51894Y24590D01*
X51731Y24490D01*
X51585Y24365D01*
X51460Y24219D01*
X51360Y24056D01*
X51286Y23878D01*
X51241Y23691D01*
X51226Y23500D01*
X51241Y23309D01*
X51286Y23122D01*
X51360Y22944D01*
X51460Y22781D01*
X51585Y22635D01*
X51731Y22510D01*
X51894Y22410D01*
X52072Y22336D01*
X52259Y22291D01*
X52450Y22276D01*
X52641Y22291D01*
X52828Y22336D01*
X53006Y22410D01*
X53169Y22510D01*
X53315Y22635D01*
X53440Y22781D01*
X53540Y22944D01*
X53590Y23065D01*
X53640Y23055D01*
X53640Y1645D01*
X53590Y1635D01*
X53540Y1756D01*
X53440Y1919D01*
X53315Y2065D01*
X53169Y2190D01*
X53006Y2290D01*
X52828Y2364D01*
X52641Y2409D01*
X52450Y2424D01*
X52259Y2409D01*
X52072Y2364D01*
X51894Y2290D01*
X51731Y2190D01*
X51585Y2065D01*
X51460Y1919D01*
X51360Y1756D01*
X51286Y1578D01*
X51241Y1391D01*
X51226Y1200D01*
X51241Y1009D01*
X51286Y822D01*
X51360Y644D01*
X51460Y481D01*
X51585Y335D01*
X51731Y210D01*
X51894Y110D01*
X52072Y36D01*
X52098Y30D01*
X52092Y-20D01*
X1248Y-20D01*
X1246Y30D01*
X1391Y41D01*
X1578Y86D01*
X1756Y160D01*
X1919Y260D01*
X2065Y385D01*
X2190Y531D01*
X2290Y694D01*
X2364Y872D01*
X2409Y1059D01*
X2424Y1250D01*
X2409Y1441D01*
X2364Y1628D01*
X2290Y1806D01*
X2190Y1969D01*
X2065Y2115D01*
X1919Y2240D01*
X1756Y2340D01*
X1578Y2414D01*
X1391Y2459D01*
X1200Y2474D01*
X1009Y2459D01*
X822Y2414D01*
X644Y2340D01*
X481Y2240D01*
X335Y2115D01*
X210Y1969D01*
X110Y1806D01*
X89Y1756D01*
X40Y1766D01*
X40Y22902D01*
X88Y22916D01*
X110Y22881D01*
X235Y22735D01*
X381Y22610D01*
X544Y22510D01*
X722Y22436D01*
X909Y22391D01*
X1100Y22376D01*
X1291Y22391D01*
X1478Y22436D01*
X1656Y22510D01*
X1819Y22610D01*
X1965Y22735D01*
X2090Y22881D01*
X2190Y23044D01*
X2264Y23222D01*
X2309Y23409D01*
X2324Y23600D01*
X2309Y23791D01*
X2264Y23978D01*
X2190Y24156D01*
X2090Y24319D01*
X1965Y24465D01*
X1819Y24590D01*
X1751Y24632D01*
X1765Y24680D01*
X51980Y24680D01*
X51990Y24630D01*
D02*
G37*
G36*
X1391Y2211D02*
X1575Y2155D01*
X1744Y2065D01*
X1893Y1943D01*
X2015Y1794D01*
X2105Y1625D01*
X2161Y1441D01*
X2180Y1250D01*
X2161Y1059D01*
X2105Y875D01*
X2015Y706D01*
X1893Y557D01*
X1744Y435D01*
X1575Y345D01*
X1391Y289D01*
X1200Y270D01*
X1009Y289D01*
X825Y345D01*
X656Y435D01*
X507Y557D01*
X385Y706D01*
X295Y875D01*
X239Y1059D01*
X220Y1250D01*
X239Y1441D01*
X295Y1625D01*
X385Y1794D01*
X507Y1943D01*
X656Y2065D01*
X825Y2155D01*
X1009Y2211D01*
X1200Y2230D01*
X1391Y2211D01*
D02*
G37*
G36*
X52641Y2161D02*
X52825Y2105D01*
X52994Y2015D01*
X53143Y1893D01*
X53265Y1744D01*
X53355Y1575D01*
X53411Y1391D01*
X53430Y1200D01*
X53411Y1009D01*
X53355Y825D01*
X53265Y656D01*
X53143Y507D01*
X52994Y385D01*
X52825Y295D01*
X52641Y239D01*
X52450Y220D01*
X52259Y239D01*
X52075Y295D01*
X51906Y385D01*
X51757Y507D01*
X51635Y656D01*
X51545Y825D01*
X51489Y1009D01*
X51470Y1200D01*
X51489Y1391D01*
X51545Y1575D01*
X51635Y1744D01*
X51757Y1893D01*
X51906Y2015D01*
X52075Y2105D01*
X52259Y2161D01*
X52450Y2180D01*
X52641Y2161D01*
D02*
G37*
G36*
X110Y694D02*
X210Y531D01*
X335Y385D01*
X481Y260D01*
X644Y160D01*
X822Y86D01*
X1009Y41D01*
X1154Y30D01*
X1152Y-20D01*
X40D01*
Y734D01*
X89Y744D01*
X110Y694D01*
D02*
G37*
G36*
X53640Y755D02*
Y-20D01*
X52808D01*
X52802Y30D01*
X52828Y36D01*
X53006Y110D01*
X53169Y210D01*
X53315Y335D01*
X53440Y481D01*
X53540Y644D01*
X53590Y765D01*
X53640Y755D01*
D02*
G37*
%LPC*%
G36*
X1100Y24274D02*
X969Y24261D01*
X842Y24223D01*
X726Y24161D01*
X624Y24077D01*
X540Y23975D01*
X478Y23859D01*
X440Y23732D01*
X427Y23601D01*
X440Y23470D01*
X478Y23343D01*
X540Y23227D01*
X624Y23125D01*
X726Y23041D01*
X842Y22979D01*
X969Y22941D01*
X1100Y22928D01*
X1231Y22941D01*
X1358Y22979D01*
X1474Y23041D01*
X1576Y23125D01*
X1660Y23227D01*
X1722Y23343D01*
X1760Y23470D01*
X1773Y23601D01*
X1760Y23732D01*
X1722Y23859D01*
X1660Y23975D01*
X1576Y24077D01*
X1474Y24161D01*
X1358Y24223D01*
X1231Y24261D01*
X1100Y24274D01*
D02*
G37*
G36*
X52450Y24148D02*
X52324Y24136D01*
X52202Y24099D01*
X52090Y24039D01*
X51992Y23958D01*
X51911Y23860D01*
X51851Y23748D01*
X51814Y23626D01*
X51802Y23500D01*
X51814Y23374D01*
X51851Y23252D01*
X51911Y23140D01*
X51992Y23042D01*
X52090Y22961D01*
X52202Y22901D01*
X52324Y22864D01*
X52450Y22852D01*
X52576Y22864D01*
X52698Y22901D01*
X52810Y22961D01*
X52908Y23042D01*
X52989Y23140D01*
X53049Y23252D01*
X53086Y23374D01*
X53098Y23500D01*
X53086Y23626D01*
X53049Y23748D01*
X52989Y23860D01*
X52908Y23958D01*
X52810Y24039D01*
X52698Y24099D01*
X52576Y24136D01*
X52450Y24148D01*
D02*
G37*
G36*
X6130Y24025D02*
Y23840D01*
X6315D01*
X6306Y23884D01*
X6253Y23963D01*
X6174Y24016D01*
X6130Y24025D01*
D02*
G37*
G36*
X6030D02*
X5986Y24016D01*
X5907Y23963D01*
X5854Y23884D01*
X5845Y23840D01*
X6030D01*
Y24025D01*
D02*
G37*
G36*
X34070Y24329D02*
Y23681D01*
X34718D01*
X34710Y23768D01*
X34670Y23900D01*
X34605Y24022D01*
X34517Y24128D01*
X34411Y24216D01*
X34289Y24281D01*
X34157Y24321D01*
X34070Y24329D01*
D02*
G37*
G36*
X33970D02*
X33883Y24321D01*
X33751Y24281D01*
X33629Y24216D01*
X33523Y24128D01*
X33435Y24022D01*
X33370Y23900D01*
X33330Y23768D01*
X33322Y23681D01*
X33970D01*
Y24329D01*
D02*
G37*
G36*
X27460Y24041D02*
X27100D01*
Y23681D01*
X27460D01*
Y24041D01*
D02*
G37*
G36*
X27000D02*
X26640D01*
Y23681D01*
X27000D01*
Y24041D01*
D02*
G37*
G36*
X23100Y24038D02*
Y23681D01*
X23457D01*
X23449Y23738D01*
X23408Y23838D01*
X23342Y23923D01*
X23257Y23989D01*
X23157Y24030D01*
X23100Y24038D01*
D02*
G37*
G36*
X23000D02*
X22943Y24030D01*
X22843Y23989D01*
X22758Y23923D01*
X22692Y23838D01*
X22651Y23738D01*
X22643Y23681D01*
X23000D01*
Y24038D01*
D02*
G37*
G36*
X22100D02*
Y23681D01*
X22457D01*
X22449Y23738D01*
X22408Y23838D01*
X22342Y23923D01*
X22257Y23989D01*
X22157Y24030D01*
X22100Y24038D01*
D02*
G37*
G36*
X22000D02*
X21943Y24030D01*
X21843Y23989D01*
X21758Y23923D01*
X21692Y23838D01*
X21651Y23738D01*
X21643Y23681D01*
X22000D01*
Y24038D01*
D02*
G37*
G36*
X18100D02*
Y23681D01*
X18457D01*
X18449Y23738D01*
X18408Y23838D01*
X18342Y23923D01*
X18257Y23989D01*
X18157Y24030D01*
X18100Y24038D01*
D02*
G37*
G36*
X18000D02*
X17943Y24030D01*
X17843Y23989D01*
X17758Y23923D01*
X17692Y23838D01*
X17651Y23738D01*
X17643Y23681D01*
X18000D01*
Y24038D01*
D02*
G37*
G36*
X17100D02*
Y23681D01*
X17457D01*
X17449Y23738D01*
X17408Y23838D01*
X17342Y23923D01*
X17257Y23989D01*
X17157Y24030D01*
X17100Y24038D01*
D02*
G37*
G36*
X16000D02*
X15943Y24030D01*
X15843Y23989D01*
X15758Y23923D01*
X15692Y23838D01*
X15651Y23738D01*
X15643Y23681D01*
X16000D01*
Y24038D01*
D02*
G37*
G36*
X15100D02*
Y23681D01*
X15457D01*
X15449Y23738D01*
X15408Y23838D01*
X15342Y23923D01*
X15257Y23989D01*
X15157Y24030D01*
X15100Y24038D01*
D02*
G37*
G36*
X15000D02*
X14943Y24030D01*
X14843Y23989D01*
X14758Y23923D01*
X14692Y23838D01*
X14651Y23738D01*
X14643Y23681D01*
X15000D01*
Y24038D01*
D02*
G37*
G36*
X14100D02*
Y23681D01*
X14457D01*
X14449Y23738D01*
X14408Y23838D01*
X14342Y23923D01*
X14257Y23989D01*
X14157Y24030D01*
X14100Y24038D01*
D02*
G37*
G36*
X14000D02*
X13943Y24030D01*
X13843Y23989D01*
X13758Y23923D01*
X13692Y23838D01*
X13651Y23738D01*
X13643Y23681D01*
X14000D01*
Y24038D01*
D02*
G37*
G36*
X9100D02*
Y23681D01*
X9457D01*
X9449Y23738D01*
X9408Y23838D01*
X9342Y23923D01*
X9257Y23989D01*
X9157Y24030D01*
X9100Y24038D01*
D02*
G37*
G36*
X9000D02*
X8943Y24030D01*
X8843Y23989D01*
X8758Y23923D01*
X8692Y23838D01*
X8651Y23738D01*
X8643Y23681D01*
X9000D01*
Y24038D01*
D02*
G37*
G36*
X8100D02*
Y23681D01*
X8457D01*
X8449Y23738D01*
X8408Y23838D01*
X8342Y23923D01*
X8257Y23989D01*
X8157Y24030D01*
X8100Y24038D01*
D02*
G37*
G36*
X8000D02*
X7943Y24030D01*
X7843Y23989D01*
X7758Y23923D01*
X7692Y23838D01*
X7651Y23738D01*
X7643Y23681D01*
X8000D01*
Y24038D01*
D02*
G37*
G36*
X49700Y23785D02*
Y23600D01*
X49885D01*
X49876Y23644D01*
X49823Y23723D01*
X49744Y23776D01*
X49700Y23785D01*
D02*
G37*
G36*
X49600D02*
X49556Y23776D01*
X49477Y23723D01*
X49424Y23644D01*
X49415Y23600D01*
X49600D01*
Y23785D01*
D02*
G37*
G36*
X6315Y23740D02*
X6130D01*
Y23555D01*
X6174Y23564D01*
X6253Y23617D01*
X6306Y23696D01*
X6315Y23740D01*
D02*
G37*
G36*
X6030D02*
X5845D01*
X5854Y23696D01*
X5907Y23617D01*
X5986Y23564D01*
X6030Y23555D01*
Y23740D01*
D02*
G37*
G36*
X36572Y24205D02*
X36228D01*
X36055Y24032D01*
Y23688D01*
X36228Y23515D01*
X36572D01*
X36745Y23688D01*
Y24032D01*
X36572Y24205D01*
D02*
G37*
G36*
X43800Y23872D02*
Y23500D01*
X44172D01*
X44164Y23561D01*
X44121Y23664D01*
X44053Y23753D01*
X43964Y23821D01*
X43861Y23864D01*
X43800Y23872D01*
D02*
G37*
G36*
X43700D02*
X43639Y23864D01*
X43536Y23821D01*
X43447Y23753D01*
X43379Y23664D01*
X43336Y23561D01*
X43328Y23500D01*
X43700D01*
Y23872D01*
D02*
G37*
G36*
X49885Y23500D02*
X49700D01*
Y23315D01*
X49744Y23324D01*
X49823Y23377D01*
X49876Y23456D01*
X49885Y23500D01*
D02*
G37*
G36*
X49600D02*
X49415D01*
X49424Y23456D01*
X49477Y23377D01*
X49556Y23324D01*
X49600Y23315D01*
Y23500D01*
D02*
G37*
G36*
X41750Y23848D02*
X41647Y23835D01*
X41551Y23795D01*
X41468Y23732D01*
X41405Y23649D01*
X41365Y23553D01*
X41352Y23450D01*
X41365Y23347D01*
X41405Y23251D01*
X41468Y23168D01*
X41551Y23105D01*
X41647Y23065D01*
X41750Y23052D01*
X41853Y23065D01*
X41949Y23105D01*
X42032Y23168D01*
X42095Y23251D01*
X42135Y23347D01*
X42148Y23450D01*
X42135Y23553D01*
X42095Y23649D01*
X42032Y23732D01*
X41949Y23795D01*
X41853Y23835D01*
X41750Y23848D01*
D02*
G37*
G36*
X44172Y23400D02*
X43800D01*
Y23028D01*
X43861Y23036D01*
X43964Y23079D01*
X44053Y23147D01*
X44121Y23236D01*
X44164Y23339D01*
X44172Y23400D01*
D02*
G37*
G36*
X43700D02*
X43328D01*
X43336Y23339D01*
X43379Y23236D01*
X43447Y23147D01*
X43536Y23079D01*
X43639Y23036D01*
X43700Y23028D01*
Y23400D01*
D02*
G37*
G36*
X34718Y23581D02*
X34070D01*
Y22933D01*
X34157Y22941D01*
X34289Y22981D01*
X34411Y23046D01*
X34517Y23134D01*
X34605Y23240D01*
X34670Y23362D01*
X34710Y23494D01*
X34718Y23581D01*
D02*
G37*
G36*
X33970D02*
X33322D01*
X33330Y23494D01*
X33370Y23362D01*
X33435Y23240D01*
X33523Y23134D01*
X33629Y23046D01*
X33751Y22981D01*
X33883Y22941D01*
X33970Y22933D01*
Y23581D01*
D02*
G37*
G36*
X27460D02*
X26640D01*
Y23221D01*
X26928D01*
Y22832D01*
X26848Y22799D01*
X26765Y22735D01*
X26701Y22652D01*
X26660Y22554D01*
X26653Y22500D01*
X27447D01*
X27440Y22554D01*
X27399Y22652D01*
X27335Y22735D01*
X27252Y22799D01*
X27172Y22832D01*
Y23221D01*
X27460D01*
Y23581D01*
D02*
G37*
G36*
X23457D02*
X22643D01*
X22651Y23524D01*
X22692Y23424D01*
X22758Y23339D01*
X22843Y23273D01*
X22928Y23238D01*
Y22832D01*
X22848Y22799D01*
X22765Y22735D01*
X22701Y22652D01*
X22660Y22554D01*
X22653Y22500D01*
X23447D01*
X23440Y22554D01*
X23399Y22652D01*
X23335Y22735D01*
X23252Y22799D01*
X23172Y22832D01*
Y23238D01*
X23257Y23273D01*
X23342Y23339D01*
X23408Y23424D01*
X23449Y23524D01*
X23457Y23581D01*
D02*
G37*
G36*
X22457D02*
X21643D01*
X21651Y23524D01*
X21692Y23424D01*
X21758Y23339D01*
X21843Y23273D01*
X21928Y23238D01*
Y22832D01*
X21848Y22799D01*
X21765Y22735D01*
X21701Y22652D01*
X21660Y22554D01*
X21653Y22500D01*
X22447D01*
X22440Y22554D01*
X22399Y22652D01*
X22335Y22735D01*
X22252Y22799D01*
X22172Y22832D01*
Y23238D01*
X22257Y23273D01*
X22342Y23339D01*
X22408Y23424D01*
X22449Y23524D01*
X22457Y23581D01*
D02*
G37*
G36*
X18457D02*
X17643D01*
X17651Y23524D01*
X17692Y23424D01*
X17758Y23339D01*
X17843Y23273D01*
X17928Y23238D01*
Y22832D01*
X17848Y22799D01*
X17765Y22735D01*
X17701Y22652D01*
X17660Y22554D01*
X17653Y22500D01*
X18447D01*
X18440Y22554D01*
X18399Y22652D01*
X18335Y22735D01*
X18252Y22799D01*
X18172Y22832D01*
Y23238D01*
X18257Y23273D01*
X18342Y23339D01*
X18408Y23424D01*
X18449Y23524D01*
X18457Y23581D01*
D02*
G37*
G36*
X15457D02*
X14643D01*
X14651Y23524D01*
X14692Y23424D01*
X14758Y23339D01*
X14843Y23273D01*
X14928Y23238D01*
Y22832D01*
X14848Y22799D01*
X14765Y22735D01*
X14701Y22652D01*
X14660Y22554D01*
X14653Y22500D01*
X15447D01*
X15440Y22554D01*
X15399Y22652D01*
X15335Y22735D01*
X15252Y22799D01*
X15172Y22832D01*
Y23238D01*
X15257Y23273D01*
X15342Y23339D01*
X15408Y23424D01*
X15449Y23524D01*
X15457Y23581D01*
D02*
G37*
G36*
X14457D02*
X13643D01*
X13651Y23524D01*
X13692Y23424D01*
X13758Y23339D01*
X13843Y23273D01*
X13928Y23238D01*
Y22832D01*
X13848Y22799D01*
X13765Y22735D01*
X13701Y22652D01*
X13660Y22554D01*
X13653Y22500D01*
X14447D01*
X14440Y22554D01*
X14399Y22652D01*
X14335Y22735D01*
X14252Y22799D01*
X14172Y22832D01*
Y23238D01*
X14257Y23273D01*
X14342Y23339D01*
X14408Y23424D01*
X14449Y23524D01*
X14457Y23581D01*
D02*
G37*
G36*
X9457D02*
X8643D01*
X8651Y23524D01*
X8692Y23424D01*
X8758Y23339D01*
X8843Y23273D01*
X8928Y23238D01*
Y22829D01*
X8856Y22799D01*
X8773Y22735D01*
X8708Y22652D01*
X8668Y22554D01*
X8661Y22500D01*
X9455D01*
X9448Y22554D01*
X9407Y22652D01*
X9343Y22735D01*
X9260Y22799D01*
X9172Y22835D01*
Y23238D01*
X9257Y23273D01*
X9342Y23339D01*
X9408Y23424D01*
X9449Y23524D01*
X9457Y23581D01*
D02*
G37*
G36*
X8457D02*
X7643D01*
X7651Y23524D01*
X7692Y23424D01*
X7758Y23339D01*
X7843Y23273D01*
X7928Y23238D01*
Y22822D01*
X7872Y22799D01*
X7788Y22735D01*
X7724Y22652D01*
X7684Y22554D01*
X7677Y22500D01*
X8470D01*
X8463Y22554D01*
X8423Y22652D01*
X8359Y22735D01*
X8275Y22799D01*
X8178Y22840D01*
X8172Y22840D01*
Y23238D01*
X8257Y23273D01*
X8342Y23339D01*
X8408Y23424D01*
X8449Y23524D01*
X8457Y23581D01*
D02*
G37*
G36*
X32210Y24314D02*
X32128Y24298D01*
X32059Y24251D01*
X32012Y24182D01*
X31996Y24100D01*
X32012Y24018D01*
X32059Y23949D01*
X32128Y23902D01*
X32210Y23886D01*
X32244Y23893D01*
X33643Y22493D01*
X33683Y22467D01*
X33730Y22458D01*
X36055D01*
Y22408D01*
X36228Y22235D01*
X36572D01*
X36745Y22408D01*
Y22752D01*
X36572Y22925D01*
X36228D01*
X36055Y22752D01*
Y22702D01*
X33781D01*
X32417Y24066D01*
X32424Y24100D01*
X32408Y24182D01*
X32361Y24251D01*
X32292Y24298D01*
X32210Y24314D01*
D02*
G37*
G36*
X26050Y24014D02*
X25951Y24001D01*
X25858Y23963D01*
X25779Y23902D01*
X25718Y23823D01*
X25680Y23730D01*
X25667Y23631D01*
X25680Y23532D01*
X25718Y23439D01*
X25779Y23360D01*
X25858Y23299D01*
X25928Y23270D01*
Y22800D01*
X25863Y22773D01*
X25786Y22714D01*
X25727Y22636D01*
X25690Y22546D01*
X25677Y22450D01*
X25690Y22353D01*
X25727Y22263D01*
X25786Y22186D01*
X25863Y22127D01*
X25953Y22089D01*
X26050Y22077D01*
X26147Y22089D01*
X26237Y22127D01*
X26314Y22186D01*
X26373Y22263D01*
X26410Y22353D01*
X26423Y22450D01*
X26410Y22546D01*
X26373Y22636D01*
X26314Y22714D01*
X26237Y22773D01*
X26172Y22800D01*
Y23270D01*
X26242Y23299D01*
X26321Y23360D01*
X26382Y23439D01*
X26420Y23532D01*
X26433Y23631D01*
X26420Y23730D01*
X26382Y23823D01*
X26321Y23902D01*
X26242Y23963D01*
X26149Y24001D01*
X26050Y24014D01*
D02*
G37*
G36*
X25050D02*
X24951Y24001D01*
X24858Y23963D01*
X24779Y23902D01*
X24718Y23823D01*
X24680Y23730D01*
X24667Y23631D01*
X24680Y23532D01*
X24718Y23439D01*
X24779Y23360D01*
X24858Y23299D01*
X24928Y23270D01*
Y22787D01*
X24895Y22773D01*
X24818Y22714D01*
X24758Y22636D01*
X24721Y22546D01*
X24708Y22450D01*
X24721Y22353D01*
X24758Y22263D01*
X24818Y22186D01*
X24895Y22127D01*
X24985Y22089D01*
X25082Y22077D01*
X25178Y22089D01*
X25268Y22127D01*
X25345Y22186D01*
X25405Y22263D01*
X25442Y22353D01*
X25455Y22450D01*
X25442Y22546D01*
X25405Y22636D01*
X25345Y22714D01*
X25268Y22773D01*
X25178Y22810D01*
X25172Y22811D01*
Y23270D01*
X25242Y23299D01*
X25321Y23360D01*
X25382Y23439D01*
X25420Y23532D01*
X25433Y23631D01*
X25420Y23730D01*
X25382Y23823D01*
X25321Y23902D01*
X25242Y23963D01*
X25149Y24001D01*
X25050Y24014D01*
D02*
G37*
G36*
X24050D02*
X23951Y24001D01*
X23858Y23963D01*
X23779Y23902D01*
X23718Y23823D01*
X23680Y23730D01*
X23667Y23631D01*
X23680Y23532D01*
X23718Y23439D01*
X23779Y23360D01*
X23858Y23299D01*
X23928Y23270D01*
Y22800D01*
X23863Y22773D01*
X23786Y22714D01*
X23727Y22636D01*
X23690Y22546D01*
X23677Y22450D01*
X23690Y22353D01*
X23727Y22263D01*
X23786Y22186D01*
X23863Y22127D01*
X23953Y22089D01*
X24050Y22077D01*
X24147Y22089D01*
X24237Y22127D01*
X24314Y22186D01*
X24373Y22263D01*
X24410Y22353D01*
X24423Y22450D01*
X24410Y22546D01*
X24373Y22636D01*
X24314Y22714D01*
X24237Y22773D01*
X24172Y22800D01*
Y23270D01*
X24242Y23299D01*
X24321Y23360D01*
X24382Y23439D01*
X24420Y23532D01*
X24433Y23631D01*
X24420Y23730D01*
X24382Y23823D01*
X24321Y23902D01*
X24242Y23963D01*
X24149Y24001D01*
X24050Y24014D01*
D02*
G37*
G36*
X21050D02*
X20951Y24001D01*
X20858Y23963D01*
X20779Y23902D01*
X20718Y23823D01*
X20680Y23730D01*
X20667Y23631D01*
X20680Y23532D01*
X20718Y23439D01*
X20779Y23360D01*
X20858Y23299D01*
X20928Y23270D01*
Y22800D01*
X20863Y22773D01*
X20786Y22714D01*
X20727Y22636D01*
X20690Y22546D01*
X20677Y22450D01*
X20690Y22353D01*
X20727Y22263D01*
X20786Y22186D01*
X20863Y22127D01*
X20953Y22089D01*
X21050Y22077D01*
X21147Y22089D01*
X21237Y22127D01*
X21314Y22186D01*
X21373Y22263D01*
X21410Y22353D01*
X21423Y22450D01*
X21410Y22546D01*
X21373Y22636D01*
X21314Y22714D01*
X21237Y22773D01*
X21172Y22800D01*
Y23270D01*
X21242Y23299D01*
X21321Y23360D01*
X21382Y23439D01*
X21420Y23532D01*
X21433Y23631D01*
X21420Y23730D01*
X21382Y23823D01*
X21321Y23902D01*
X21242Y23963D01*
X21149Y24001D01*
X21050Y24014D01*
D02*
G37*
G36*
X20050D02*
X19951Y24001D01*
X19858Y23963D01*
X19779Y23902D01*
X19718Y23823D01*
X19680Y23730D01*
X19667Y23631D01*
X19680Y23532D01*
X19718Y23439D01*
X19779Y23360D01*
X19858Y23299D01*
X19928Y23270D01*
Y22796D01*
X19871Y22773D01*
X19794Y22714D01*
X19735Y22636D01*
X19697Y22546D01*
X19685Y22450D01*
X19697Y22353D01*
X19735Y22263D01*
X19794Y22186D01*
X19871Y22127D01*
X19961Y22089D01*
X20058Y22077D01*
X20154Y22089D01*
X20244Y22127D01*
X20322Y22186D01*
X20381Y22263D01*
X20418Y22353D01*
X20431Y22450D01*
X20418Y22546D01*
X20381Y22636D01*
X20322Y22714D01*
X20244Y22773D01*
X20172Y22803D01*
Y23270D01*
X20242Y23299D01*
X20321Y23360D01*
X20382Y23439D01*
X20420Y23532D01*
X20433Y23631D01*
X20420Y23730D01*
X20382Y23823D01*
X20321Y23902D01*
X20242Y23963D01*
X20149Y24001D01*
X20050Y24014D01*
D02*
G37*
G36*
X19050D02*
X18951Y24001D01*
X18858Y23963D01*
X18779Y23902D01*
X18718Y23823D01*
X18680Y23730D01*
X18667Y23631D01*
X18680Y23532D01*
X18718Y23439D01*
X18779Y23360D01*
X18858Y23299D01*
X18928Y23270D01*
Y22800D01*
X18863Y22773D01*
X18786Y22714D01*
X18727Y22636D01*
X18690Y22546D01*
X18677Y22450D01*
X18690Y22353D01*
X18727Y22263D01*
X18786Y22186D01*
X18863Y22127D01*
X18953Y22089D01*
X19050Y22077D01*
X19147Y22089D01*
X19237Y22127D01*
X19314Y22186D01*
X19373Y22263D01*
X19410Y22353D01*
X19423Y22450D01*
X19410Y22546D01*
X19373Y22636D01*
X19314Y22714D01*
X19237Y22773D01*
X19172Y22800D01*
Y23270D01*
X19242Y23299D01*
X19321Y23360D01*
X19382Y23439D01*
X19420Y23532D01*
X19433Y23631D01*
X19420Y23730D01*
X19382Y23823D01*
X19321Y23902D01*
X19242Y23963D01*
X19149Y24001D01*
X19050Y24014D01*
D02*
G37*
G36*
X10050D02*
X9951Y24001D01*
X9858Y23963D01*
X9779Y23902D01*
X9718Y23823D01*
X9680Y23730D01*
X9667Y23631D01*
X9680Y23532D01*
X9718Y23439D01*
X9779Y23360D01*
X9858Y23299D01*
X9928Y23270D01*
Y22800D01*
X9863Y22773D01*
X9786Y22714D01*
X9727Y22636D01*
X9690Y22546D01*
X9677Y22450D01*
X9690Y22353D01*
X9727Y22263D01*
X9786Y22186D01*
X9863Y22127D01*
X9953Y22089D01*
X10050Y22077D01*
X10147Y22089D01*
X10237Y22127D01*
X10314Y22186D01*
X10373Y22263D01*
X10410Y22353D01*
X10423Y22450D01*
X10410Y22546D01*
X10373Y22636D01*
X10314Y22714D01*
X10237Y22773D01*
X10172Y22800D01*
Y23270D01*
X10242Y23299D01*
X10321Y23360D01*
X10382Y23439D01*
X10420Y23532D01*
X10433Y23631D01*
X10420Y23730D01*
X10382Y23823D01*
X10321Y23902D01*
X10242Y23963D01*
X10149Y24001D01*
X10050Y24014D01*
D02*
G37*
G36*
X27447Y22400D02*
X27100D01*
Y22053D01*
X27154Y22060D01*
X27252Y22101D01*
X27335Y22165D01*
X27399Y22248D01*
X27440Y22345D01*
X27447Y22400D01*
D02*
G37*
G36*
X27000D02*
X26653D01*
X26660Y22345D01*
X26701Y22248D01*
X26765Y22165D01*
X26848Y22101D01*
X26946Y22060D01*
X27000Y22053D01*
Y22400D01*
D02*
G37*
G36*
X23447D02*
X23100D01*
Y22053D01*
X23154Y22060D01*
X23252Y22101D01*
X23335Y22165D01*
X23399Y22248D01*
X23440Y22345D01*
X23447Y22400D01*
D02*
G37*
G36*
X23000D02*
X22653D01*
X22660Y22345D01*
X22701Y22248D01*
X22765Y22165D01*
X22848Y22101D01*
X22946Y22060D01*
X23000Y22053D01*
Y22400D01*
D02*
G37*
G36*
X22447D02*
X22100D01*
Y22053D01*
X22154Y22060D01*
X22252Y22101D01*
X22335Y22165D01*
X22399Y22248D01*
X22440Y22345D01*
X22447Y22400D01*
D02*
G37*
G36*
X22000D02*
X21653D01*
X21660Y22345D01*
X21701Y22248D01*
X21765Y22165D01*
X21848Y22101D01*
X21946Y22060D01*
X22000Y22053D01*
Y22400D01*
D02*
G37*
G36*
X18447D02*
X18100D01*
Y22053D01*
X18154Y22060D01*
X18252Y22101D01*
X18335Y22165D01*
X18399Y22248D01*
X18440Y22345D01*
X18447Y22400D01*
D02*
G37*
G36*
X18000D02*
X17653D01*
X17660Y22345D01*
X17701Y22248D01*
X17765Y22165D01*
X17848Y22101D01*
X17946Y22060D01*
X18000Y22053D01*
Y22400D01*
D02*
G37*
G36*
X17447D02*
X17100D01*
Y22053D01*
X17154Y22060D01*
X17252Y22101D01*
X17335Y22165D01*
X17399Y22248D01*
X17440Y22345D01*
X17447Y22400D01*
D02*
G37*
G36*
X16000D02*
X15653D01*
X15660Y22345D01*
X15701Y22248D01*
X15765Y22165D01*
X15848Y22101D01*
X15946Y22060D01*
X16000Y22053D01*
Y22400D01*
D02*
G37*
G36*
X15447D02*
X15100D01*
Y22053D01*
X15154Y22060D01*
X15252Y22101D01*
X15335Y22165D01*
X15399Y22248D01*
X15440Y22345D01*
X15447Y22400D01*
D02*
G37*
G36*
X15000D02*
X14653D01*
X14660Y22345D01*
X14701Y22248D01*
X14765Y22165D01*
X14848Y22101D01*
X14946Y22060D01*
X15000Y22053D01*
Y22400D01*
D02*
G37*
G36*
X14447D02*
X14100D01*
Y22053D01*
X14154Y22060D01*
X14252Y22101D01*
X14335Y22165D01*
X14399Y22248D01*
X14440Y22345D01*
X14447Y22400D01*
D02*
G37*
G36*
X14000D02*
X13653D01*
X13660Y22345D01*
X13701Y22248D01*
X13765Y22165D01*
X13848Y22101D01*
X13946Y22060D01*
X14000Y22053D01*
Y22400D01*
D02*
G37*
G36*
X9455D02*
X9108D01*
Y22053D01*
X9162Y22060D01*
X9260Y22101D01*
X9343Y22165D01*
X9407Y22248D01*
X9448Y22345D01*
X9455Y22400D01*
D02*
G37*
G36*
X9008D02*
X8661D01*
X8668Y22345D01*
X8708Y22248D01*
X8773Y22165D01*
X8856Y22101D01*
X8953Y22060D01*
X9008Y22053D01*
Y22400D01*
D02*
G37*
G36*
X8470D02*
X8124D01*
Y22053D01*
X8178Y22060D01*
X8275Y22101D01*
X8359Y22165D01*
X8423Y22248D01*
X8463Y22345D01*
X8470Y22400D01*
D02*
G37*
G36*
X8024D02*
X7677D01*
X7684Y22345D01*
X7724Y22248D01*
X7788Y22165D01*
X7872Y22101D01*
X7969Y22060D01*
X8024Y22053D01*
Y22400D01*
D02*
G37*
G36*
X11500Y22114D02*
X11418Y22098D01*
X11349Y22051D01*
X11329Y22022D01*
X10500D01*
X10453Y22013D01*
X10413Y21987D01*
X9484Y21057D01*
X9450Y21064D01*
X9368Y21048D01*
X9299Y21001D01*
X9252Y20932D01*
X9236Y20850D01*
X9252Y20768D01*
X9299Y20699D01*
X9368Y20652D01*
X9450Y20636D01*
X9532Y20652D01*
X9601Y20699D01*
X9648Y20768D01*
X9664Y20850D01*
X9657Y20884D01*
X10551Y21778D01*
X11329D01*
X11349Y21749D01*
X11418Y21702D01*
X11500Y21686D01*
X11582Y21702D01*
X11651Y21749D01*
X11698Y21818D01*
X11714Y21900D01*
X11698Y21982D01*
X11651Y22051D01*
X11582Y22098D01*
X11500Y22114D01*
D02*
G37*
G36*
X3250Y21650D02*
X3029D01*
X3032Y21628D01*
X3060Y21561D01*
X3104Y21504D01*
X3161Y21460D01*
X3228Y21432D01*
X3250Y21429D01*
Y21650D01*
D02*
G37*
G36*
X49350Y21764D02*
X49268Y21748D01*
X49199Y21701D01*
X49152Y21632D01*
X49136Y21550D01*
X49152Y21468D01*
X49199Y21399D01*
X49268Y21352D01*
X49350Y21336D01*
X49432Y21352D01*
X49501Y21399D01*
X49521Y21428D01*
X49763D01*
Y21214D01*
X50337D01*
Y21748D01*
X49763D01*
Y21672D01*
X49521D01*
X49501Y21701D01*
X49432Y21748D01*
X49350Y21764D01*
D02*
G37*
G36*
X1000Y21733D02*
X901Y21720D01*
X808Y21682D01*
X729Y21621D01*
X668Y21542D01*
X630Y21449D01*
X617Y21350D01*
X630Y21251D01*
X668Y21158D01*
X729Y21079D01*
X808Y21018D01*
X901Y20980D01*
X1000Y20967D01*
X1099Y20980D01*
X1192Y21018D01*
X1271Y21079D01*
X1332Y21158D01*
X1370Y21251D01*
X1383Y21350D01*
X1370Y21449D01*
X1332Y21542D01*
X1271Y21621D01*
X1192Y21682D01*
X1099Y21720D01*
X1000Y21733D01*
D02*
G37*
G36*
X45400Y21624D02*
Y20900D01*
X46124D01*
X46114Y21002D01*
X46069Y21148D01*
X45998Y21283D01*
X45901Y21401D01*
X45783Y21498D01*
X45648Y21569D01*
X45502Y21614D01*
X45400Y21624D01*
D02*
G37*
G36*
X45300D02*
X45198Y21614D01*
X45052Y21569D01*
X44917Y21498D01*
X44799Y21401D01*
X44702Y21283D01*
X44631Y21148D01*
X44586Y21002D01*
X44576Y20900D01*
X45300D01*
Y21624D01*
D02*
G37*
G36*
X40200D02*
Y20900D01*
X40924D01*
X40914Y21002D01*
X40869Y21148D01*
X40798Y21283D01*
X40701Y21401D01*
X40583Y21498D01*
X40448Y21569D01*
X40302Y21614D01*
X40200Y21624D01*
D02*
G37*
G36*
X40100D02*
X39998Y21614D01*
X39852Y21569D01*
X39717Y21498D01*
X39599Y21401D01*
X39502Y21283D01*
X39431Y21148D01*
X39386Y21002D01*
X39376Y20900D01*
X40100D01*
Y21624D01*
D02*
G37*
G36*
X47100Y20664D02*
X47018Y20648D01*
X46949Y20601D01*
X46902Y20532D01*
X46888Y20461D01*
X45763Y19337D01*
X45737Y19297D01*
X45728Y19250D01*
Y17671D01*
X45699Y17651D01*
X45652Y17582D01*
X45636Y17500D01*
X45652Y17418D01*
X45699Y17349D01*
X45768Y17302D01*
X45850Y17286D01*
X45932Y17302D01*
X46001Y17349D01*
X46048Y17418D01*
X46064Y17500D01*
X46048Y17582D01*
X46001Y17651D01*
X45972Y17671D01*
Y19199D01*
X47024Y20251D01*
X47100Y20236D01*
X47182Y20252D01*
X47251Y20299D01*
X47298Y20368D01*
X47314Y20450D01*
X47298Y20532D01*
X47251Y20601D01*
X47182Y20648D01*
X47100Y20664D01*
D02*
G37*
G36*
X30510Y20534D02*
X30428Y20518D01*
X30359Y20471D01*
X30339Y20442D01*
X30320D01*
X30273Y20433D01*
X30233Y20407D01*
X28264Y18437D01*
X28230Y18444D01*
X28148Y18428D01*
X28079Y18381D01*
X28032Y18312D01*
X28016Y18230D01*
X28032Y18148D01*
X28079Y18079D01*
X28148Y18032D01*
X28230Y18016D01*
X28312Y18032D01*
X28381Y18079D01*
X28428Y18148D01*
X28444Y18230D01*
X28437Y18264D01*
X30343Y20170D01*
X30359Y20169D01*
X30428Y20122D01*
X30510Y20106D01*
X30592Y20122D01*
X30661Y20169D01*
X30708Y20238D01*
X30724Y20320D01*
X30708Y20402D01*
X30661Y20471D01*
X30592Y20518D01*
X30510Y20534D01*
D02*
G37*
G36*
X46124Y20800D02*
X45400D01*
Y20076D01*
X45502Y20086D01*
X45648Y20131D01*
X45783Y20202D01*
X45901Y20299D01*
X45998Y20417D01*
X46069Y20552D01*
X46114Y20698D01*
X46124Y20800D01*
D02*
G37*
G36*
X45300D02*
X44576D01*
X44586Y20698D01*
X44631Y20552D01*
X44702Y20417D01*
X44799Y20299D01*
X44917Y20202D01*
X45052Y20131D01*
X45198Y20086D01*
X45300Y20076D01*
Y20800D01*
D02*
G37*
G36*
X40924D02*
X40200D01*
Y20076D01*
X40302Y20086D01*
X40448Y20131D01*
X40583Y20202D01*
X40701Y20299D01*
X40798Y20417D01*
X40869Y20552D01*
X40914Y20698D01*
X40924Y20800D01*
D02*
G37*
G36*
X40100D02*
X39376D01*
X39386Y20698D01*
X39431Y20552D01*
X39502Y20417D01*
X39599Y20299D01*
X39717Y20202D01*
X39852Y20131D01*
X39998Y20086D01*
X40100Y20076D01*
Y20800D01*
D02*
G37*
G36*
X12333Y24272D02*
X11500D01*
X11453Y24263D01*
X11413Y24237D01*
X11170Y23993D01*
X11149Y24001D01*
X11050Y24014D01*
X10951Y24001D01*
X10858Y23963D01*
X10779Y23902D01*
X10718Y23823D01*
X10680Y23730D01*
X10667Y23631D01*
X10680Y23532D01*
X10718Y23439D01*
X10779Y23360D01*
X10858Y23299D01*
X10928Y23270D01*
Y22809D01*
X10840Y22773D01*
X10762Y22714D01*
X10703Y22636D01*
X10666Y22546D01*
X10653Y22450D01*
X10666Y22353D01*
X10703Y22263D01*
X10762Y22186D01*
X10840Y22127D01*
X10930Y22089D01*
X11026Y22077D01*
X11123Y22089D01*
X11213Y22127D01*
X11290Y22186D01*
X11350Y22263D01*
X11387Y22353D01*
X11400Y22450D01*
X11387Y22546D01*
X11350Y22636D01*
X11290Y22714D01*
X11213Y22773D01*
X11172Y22790D01*
Y23270D01*
X11242Y23299D01*
X11321Y23360D01*
X11382Y23439D01*
X11420Y23532D01*
X11433Y23631D01*
X11420Y23730D01*
X11382Y23823D01*
X11366Y23843D01*
X11551Y24028D01*
X11884D01*
X11894Y23978D01*
X11858Y23963D01*
X11779Y23902D01*
X11718Y23823D01*
X11680Y23730D01*
X11667Y23631D01*
X11680Y23532D01*
X11718Y23439D01*
X11779Y23360D01*
X11858Y23299D01*
X11928Y23270D01*
Y22800D01*
X11863Y22773D01*
X11786Y22714D01*
X11727Y22636D01*
X11690Y22546D01*
X11677Y22450D01*
X11690Y22353D01*
X11727Y22263D01*
X11786Y22186D01*
X11863Y22127D01*
X11878Y22121D01*
Y18433D01*
X11098Y17654D01*
X11051Y17668D01*
X11048Y17682D01*
X11001Y17751D01*
X10932Y17798D01*
X10850Y17814D01*
X10768Y17798D01*
X10699Y17751D01*
X10652Y17682D01*
X10636Y17600D01*
X10643Y17566D01*
X10249Y17172D01*
X8400D01*
X8353Y17163D01*
X8313Y17137D01*
X7634Y16457D01*
X7600Y16464D01*
X7518Y16448D01*
X7449Y16401D01*
X7402Y16332D01*
X7386Y16250D01*
X7402Y16168D01*
X7449Y16099D01*
X7488Y16072D01*
X7473Y16022D01*
X6089D01*
X6069Y16072D01*
X6112Y16129D01*
X6146Y16211D01*
X6158Y16300D01*
X6146Y16389D01*
X6112Y16471D01*
X6057Y16542D01*
X5986Y16597D01*
X5904Y16631D01*
X5815Y16643D01*
X5726Y16631D01*
X5643Y16597D01*
X5572Y16542D01*
X5518Y16471D01*
X5484Y16389D01*
X5472Y16300D01*
X5484Y16211D01*
X5518Y16129D01*
X5561Y16072D01*
X5541Y16022D01*
X5360D01*
X3651Y17731D01*
X3670Y17778D01*
X6649D01*
X7443Y16984D01*
X7436Y16950D01*
X7452Y16868D01*
X7499Y16799D01*
X7568Y16752D01*
X7650Y16736D01*
X7732Y16752D01*
X7801Y16799D01*
X7848Y16868D01*
X7864Y16950D01*
X7848Y17032D01*
X7801Y17101D01*
X7732Y17148D01*
X7650Y17164D01*
X7616Y17157D01*
X6787Y17987D01*
X6747Y18013D01*
X6700Y18022D01*
X3601D01*
X2687Y18937D01*
X2647Y18963D01*
X2600Y18972D01*
X2211D01*
X2198Y19003D01*
X2197Y19022D01*
X2271Y19079D01*
X2332Y19158D01*
X2370Y19251D01*
X2383Y19350D01*
X2370Y19449D01*
X2332Y19542D01*
X2271Y19621D01*
X2197Y19678D01*
X2198Y19697D01*
X2211Y19728D01*
X2549D01*
X4153Y18123D01*
X4193Y18097D01*
X4240Y18088D01*
X9689D01*
X9863Y17913D01*
X9903Y17887D01*
X9950Y17878D01*
X10429D01*
X10449Y17849D01*
X10518Y17802D01*
X10600Y17786D01*
X10682Y17802D01*
X10751Y17849D01*
X10798Y17918D01*
X10814Y18000D01*
X10798Y18082D01*
X10751Y18151D01*
X10682Y18198D01*
X10600Y18214D01*
X10518Y18198D01*
X10449Y18151D01*
X10429Y18122D01*
X10001D01*
X9827Y18297D01*
X9787Y18323D01*
X9764Y18328D01*
X9769Y18378D01*
X10479D01*
X10499Y18349D01*
X10568Y18302D01*
X10650Y18286D01*
X10732Y18302D01*
X10801Y18349D01*
X10848Y18418D01*
X10864Y18500D01*
X10848Y18582D01*
X10801Y18651D01*
X10732Y18698D01*
X10650Y18714D01*
X10568Y18698D01*
X10499Y18651D01*
X10479Y18622D01*
X5287D01*
X5264Y18650D01*
X5248Y18732D01*
X5201Y18801D01*
X5132Y18848D01*
X5050Y18864D01*
X4968Y18848D01*
X4899Y18801D01*
X4852Y18732D01*
X4836Y18650D01*
X4852Y18568D01*
X4899Y18499D01*
X4968Y18452D01*
X5039Y18438D01*
X5063Y18413D01*
X5103Y18387D01*
X5126Y18382D01*
X5121Y18332D01*
X4291D01*
X2772Y19851D01*
X2791Y19898D01*
X5979D01*
X6313Y19563D01*
X6353Y19537D01*
X6400Y19528D01*
X7156D01*
X7183Y19478D01*
X7152Y19432D01*
X7136Y19350D01*
X7152Y19268D01*
X7199Y19199D01*
X7268Y19152D01*
X7350Y19136D01*
X7432Y19152D01*
X7501Y19199D01*
X7548Y19268D01*
X7564Y19350D01*
X7557Y19384D01*
X7651Y19478D01*
X9179D01*
X9199Y19449D01*
X9268Y19402D01*
X9350Y19386D01*
X9432Y19402D01*
X9501Y19449D01*
X9548Y19518D01*
X9564Y19600D01*
X9548Y19682D01*
X9504Y19748D01*
X9515Y19796D01*
X9515Y19798D01*
X9929D01*
X9949Y19769D01*
X10018Y19722D01*
X10100Y19706D01*
X10182Y19722D01*
X10251Y19769D01*
X10298Y19838D01*
X10314Y19920D01*
X10298Y20002D01*
X10273Y20039D01*
X10309Y20075D01*
X10328Y20062D01*
X10410Y20046D01*
X10492Y20062D01*
X10561Y20109D01*
X10608Y20178D01*
X10624Y20260D01*
X10608Y20342D01*
X10561Y20411D01*
X10492Y20458D01*
X10410Y20474D01*
X10328Y20458D01*
X10259Y20411D01*
X10239Y20382D01*
X7892D01*
X7877Y20432D01*
X7901Y20449D01*
X7948Y20518D01*
X7964Y20600D01*
X7948Y20682D01*
X7901Y20751D01*
X7872Y20771D01*
Y21500D01*
X7863Y21547D01*
X7837Y21587D01*
X6807Y22616D01*
X6814Y22650D01*
X6798Y22732D01*
X6751Y22801D01*
X6682Y22848D01*
X6600Y22864D01*
X6518Y22848D01*
X6449Y22801D01*
X6402Y22732D01*
X6386Y22650D01*
X6393Y22616D01*
X5599Y21822D01*
X5545D01*
Y21945D01*
X5449D01*
X5434Y21995D01*
X5477Y22023D01*
X5531Y22104D01*
X5550Y22200D01*
X5531Y22296D01*
X5477Y22377D01*
X5396Y22431D01*
X5300Y22450D01*
X5204Y22431D01*
X5123Y22377D01*
X5078Y22308D01*
X5067Y22306D01*
X5033D01*
X5022Y22308D01*
X4977Y22377D01*
X4896Y22431D01*
X4800Y22450D01*
X4704Y22431D01*
X4623Y22377D01*
X4578Y22308D01*
X4567Y22306D01*
X4533D01*
X4522Y22308D01*
X4477Y22377D01*
X4396Y22431D01*
X4300Y22450D01*
X4204Y22431D01*
X4123Y22377D01*
X4078Y22308D01*
X4067Y22306D01*
X4033D01*
X4022Y22308D01*
X3977Y22377D01*
X3896Y22431D01*
X3800Y22450D01*
X3704Y22431D01*
X3623Y22377D01*
X3578Y22308D01*
X3567Y22306D01*
X3533D01*
X3522Y22308D01*
X3477Y22377D01*
X3396Y22431D01*
X3300Y22450D01*
X3204Y22431D01*
X3123Y22377D01*
X3069Y22296D01*
X3050Y22200D01*
X3069Y22104D01*
X3123Y22023D01*
X3165Y21996D01*
X3161Y21940D01*
X3104Y21896D01*
X3060Y21839D01*
X3032Y21772D01*
X3029Y21750D01*
X3300D01*
Y21700D01*
X3350D01*
Y21429D01*
X3372Y21432D01*
X3439Y21460D01*
X3496Y21504D01*
X3519Y21534D01*
X3581D01*
X3604Y21504D01*
X3661Y21460D01*
X3728Y21432D01*
X3750Y21429D01*
Y21700D01*
X3850D01*
Y21429D01*
X3872Y21432D01*
X3939Y21460D01*
X3996Y21504D01*
X4019Y21534D01*
X4081D01*
X4104Y21504D01*
X4161Y21460D01*
X4228Y21432D01*
X4250Y21429D01*
Y21700D01*
X4350D01*
Y21429D01*
X4372Y21432D01*
X4439Y21460D01*
X4496Y21504D01*
X4519Y21534D01*
X4581D01*
X4604Y21504D01*
X4661Y21460D01*
X4728Y21432D01*
X4750Y21429D01*
Y21700D01*
X4850D01*
Y21429D01*
X4872Y21432D01*
X4939Y21460D01*
X4996Y21504D01*
X5005Y21515D01*
X5055Y21498D01*
Y21455D01*
X5545D01*
Y21578D01*
X5650D01*
X5697Y21587D01*
X5737Y21613D01*
X6566Y22443D01*
X6600Y22436D01*
X6634Y22443D01*
X7628Y21449D01*
Y20771D01*
X7599Y20751D01*
X7552Y20682D01*
X7536Y20600D01*
X7546Y20547D01*
X7500Y20523D01*
X6687Y21337D01*
X6647Y21363D01*
X6600Y21372D01*
X2380D01*
Y21730D01*
X1620D01*
Y20970D01*
X2380D01*
Y21128D01*
X6549D01*
X7503Y20173D01*
X7543Y20147D01*
X7590Y20138D01*
X9958D01*
X9973Y20088D01*
X9949Y20071D01*
X9929Y20042D01*
X7470D01*
X7423Y20033D01*
X7383Y20007D01*
X7149Y19772D01*
X6451D01*
X6117Y20107D01*
X6077Y20133D01*
X6030Y20142D01*
X2381D01*
X2342Y20182D01*
X2370Y20251D01*
X2383Y20350D01*
X2370Y20449D01*
X2332Y20542D01*
X2271Y20621D01*
X2192Y20682D01*
X2099Y20720D01*
X2000Y20733D01*
X1901Y20720D01*
X1808Y20682D01*
X1729Y20621D01*
X1668Y20542D01*
X1630Y20449D01*
X1617Y20350D01*
X1630Y20251D01*
X1668Y20158D01*
X1729Y20079D01*
X1803Y20022D01*
X1802Y20003D01*
X1789Y19972D01*
X1551D01*
X1342Y20182D01*
X1370Y20251D01*
X1383Y20350D01*
X1370Y20449D01*
X1332Y20542D01*
X1271Y20621D01*
X1192Y20682D01*
X1099Y20720D01*
X1000Y20733D01*
X901Y20720D01*
X808Y20682D01*
X729Y20621D01*
X668Y20542D01*
X630Y20449D01*
X617Y20350D01*
X630Y20251D01*
X668Y20158D01*
X729Y20079D01*
X808Y20018D01*
X901Y19980D01*
X1000Y19967D01*
X1099Y19980D01*
X1168Y20008D01*
X1413Y19763D01*
X1453Y19737D01*
X1500Y19728D01*
X1789D01*
X1802Y19697D01*
X1803Y19678D01*
X1729Y19621D01*
X1668Y19542D01*
X1630Y19449D01*
X1617Y19350D01*
X1630Y19251D01*
X1668Y19158D01*
X1729Y19079D01*
X1803Y19022D01*
X1802Y19003D01*
X1789Y18972D01*
X1651D01*
X1370Y19253D01*
X1383Y19350D01*
X1370Y19449D01*
X1332Y19542D01*
X1271Y19621D01*
X1192Y19682D01*
X1099Y19720D01*
X1000Y19733D01*
X901Y19720D01*
X808Y19682D01*
X729Y19621D01*
X668Y19542D01*
X630Y19449D01*
X617Y19350D01*
X630Y19251D01*
X668Y19158D01*
X729Y19079D01*
X808Y19018D01*
X901Y18980D01*
X1000Y18967D01*
X1099Y18980D01*
X1192Y19018D01*
X1230Y19047D01*
X1513Y18763D01*
X1553Y18737D01*
X1600Y18728D01*
X1789D01*
X1802Y18697D01*
X1803Y18678D01*
X1729Y18621D01*
X1668Y18542D01*
X1630Y18449D01*
X1617Y18350D01*
X1630Y18251D01*
X1668Y18158D01*
X1729Y18079D01*
X1803Y18022D01*
X1802Y18003D01*
X1789Y17972D01*
X1551D01*
X1342Y18182D01*
X1370Y18251D01*
X1383Y18350D01*
X1370Y18449D01*
X1332Y18542D01*
X1271Y18621D01*
X1192Y18682D01*
X1099Y18720D01*
X1000Y18733D01*
X901Y18720D01*
X808Y18682D01*
X729Y18621D01*
X668Y18542D01*
X630Y18449D01*
X617Y18350D01*
X630Y18251D01*
X668Y18158D01*
X729Y18079D01*
X808Y18018D01*
X901Y17980D01*
X1000Y17967D01*
X1099Y17980D01*
X1168Y18008D01*
X1413Y17763D01*
X1453Y17737D01*
X1500Y17728D01*
X1789D01*
X1802Y17697D01*
X1803Y17678D01*
X1729Y17621D01*
X1668Y17542D01*
X1660Y17523D01*
X1340D01*
X1332Y17542D01*
X1271Y17621D01*
X1192Y17682D01*
X1099Y17720D01*
X1000Y17733D01*
X901Y17720D01*
X808Y17682D01*
X729Y17621D01*
X668Y17542D01*
X630Y17449D01*
X617Y17350D01*
X630Y17251D01*
X668Y17158D01*
X729Y17079D01*
X808Y17018D01*
X901Y16980D01*
X1000Y16967D01*
X1099Y16980D01*
X1192Y17018D01*
X1271Y17079D01*
X1332Y17158D01*
X1340Y17177D01*
X1660D01*
X1668Y17158D01*
X1729Y17079D01*
X1808Y17018D01*
X1901Y16980D01*
X2000Y16967D01*
X2099Y16980D01*
X2192Y17018D01*
X2271Y17079D01*
X2332Y17158D01*
X2340Y17177D01*
X2678D01*
X2827Y17028D01*
Y16434D01*
X2780Y16415D01*
X2723Y16473D01*
X2666Y16510D01*
X2600Y16523D01*
X2340D01*
X2332Y16542D01*
X2271Y16621D01*
X2192Y16682D01*
X2099Y16720D01*
X2000Y16733D01*
X1901Y16720D01*
X1808Y16682D01*
X1729Y16621D01*
X1668Y16542D01*
X1660Y16523D01*
X1340D01*
X1332Y16542D01*
X1271Y16621D01*
X1192Y16682D01*
X1099Y16720D01*
X1000Y16733D01*
X901Y16720D01*
X808Y16682D01*
X729Y16621D01*
X668Y16542D01*
X630Y16449D01*
X617Y16350D01*
X630Y16251D01*
X668Y16158D01*
X729Y16079D01*
X808Y16018D01*
X901Y15980D01*
X1000Y15967D01*
X1099Y15980D01*
X1192Y16018D01*
X1271Y16079D01*
X1332Y16158D01*
X1340Y16177D01*
X1660D01*
X1668Y16158D01*
X1729Y16079D01*
X1808Y16018D01*
X1901Y15980D01*
X2000Y15967D01*
X2099Y15980D01*
X2192Y16018D01*
X2271Y16079D01*
X2332Y16158D01*
X2340Y16177D01*
X2528D01*
X2830Y15875D01*
Y15603D01*
X3002Y15431D01*
Y14875D01*
X3015Y14809D01*
X3052Y14752D01*
X4627Y13177D01*
X4684Y13140D01*
X4750Y13127D01*
X6808D01*
X7947Y11988D01*
Y9923D01*
X7897Y9908D01*
X7873Y9943D01*
X7794Y9996D01*
X7750Y10005D01*
Y9770D01*
X7700D01*
Y9720D01*
X7465D01*
X7474Y9676D01*
X7516Y9613D01*
X7494Y9563D01*
X7329D01*
X7292Y9588D01*
X7210Y9604D01*
X7128Y9588D01*
X7059Y9541D01*
X7012Y9472D01*
X6996Y9390D01*
X7012Y9308D01*
X7059Y9239D01*
X7128Y9192D01*
X7210Y9176D01*
X7292Y9192D01*
X7329Y9217D01*
X8038D01*
X10539Y6716D01*
X10526Y6650D01*
X10542Y6568D01*
X10549Y6557D01*
X10526Y6513D01*
X9682D01*
X6706Y9489D01*
X6698Y9532D01*
X6651Y9601D01*
X6582Y9648D01*
X6500Y9664D01*
X6418Y9648D01*
X6349Y9601D01*
X6302Y9532D01*
X6286Y9450D01*
X6302Y9368D01*
X6349Y9299D01*
X6418Y9252D01*
X6461Y9244D01*
X9487Y6217D01*
X9544Y6180D01*
X9610Y6167D01*
X11440D01*
X11506Y6180D01*
X11563Y6217D01*
X11897Y6552D01*
X11940Y6561D01*
X12010Y6607D01*
X12056Y6676D01*
X12072Y6758D01*
X12056Y6840D01*
X12010Y6910D01*
X11940Y6956D01*
X11858Y6972D01*
X11776Y6956D01*
X11707Y6910D01*
X11661Y6840D01*
X11652Y6797D01*
X11368Y6513D01*
X10954D01*
X10931Y6557D01*
X10938Y6568D01*
X10954Y6650D01*
X10938Y6732D01*
X10911Y6772D01*
X10900Y6826D01*
X10863Y6883D01*
X8293Y9452D01*
Y12060D01*
X8280Y12126D01*
X8243Y12183D01*
X7003Y13423D01*
X6946Y13460D01*
X6880Y13473D01*
X4822D01*
X3348Y14947D01*
Y15431D01*
X3520Y15603D01*
Y15948D01*
X3347Y16120D01*
X3173D01*
Y17100D01*
X3160Y17166D01*
X3123Y17223D01*
X2873Y17473D01*
X2816Y17510D01*
X2750Y17523D01*
X2340D01*
X2332Y17542D01*
X2271Y17621D01*
X2197Y17678D01*
X2198Y17697D01*
X2211Y17728D01*
X3309D01*
X5223Y15813D01*
X5263Y15787D01*
X5310Y15778D01*
X5526D01*
X5546Y15728D01*
X5503Y15671D01*
X5469Y15589D01*
X5457Y15500D01*
X5467Y15427D01*
X5420Y15403D01*
X3907Y16916D01*
X3914Y16950D01*
X3898Y17032D01*
X3851Y17101D01*
X3782Y17148D01*
X3700Y17164D01*
X3618Y17148D01*
X3549Y17101D01*
X3502Y17032D01*
X3486Y16950D01*
X3502Y16868D01*
X3549Y16799D01*
X3618Y16752D01*
X3700Y16736D01*
X3734Y16743D01*
X5553Y14923D01*
X5593Y14897D01*
X5640Y14888D01*
X7220D01*
X7221Y14887D01*
X7268Y14878D01*
X7550D01*
X7597Y14887D01*
X7637Y14913D01*
X8951Y16228D01*
X9323D01*
X9338Y16178D01*
X9299Y16151D01*
X9252Y16082D01*
X9236Y16000D01*
X9252Y15918D01*
X9299Y15849D01*
X9324Y15832D01*
X9313Y15779D01*
X9292Y15774D01*
X9222Y15728D01*
X9176Y15658D01*
X9160Y15576D01*
X9176Y15494D01*
X9222Y15425D01*
X9251Y15406D01*
Y11676D01*
X9261Y11630D01*
X9287Y11590D01*
X14557Y6320D01*
X14538Y6273D01*
X12228D01*
X12228Y6273D01*
X12162Y6260D01*
X12106Y6223D01*
X11484Y5601D01*
X11468Y5598D01*
X11399Y5551D01*
X11352Y5482D01*
X11336Y5400D01*
X11352Y5318D01*
X11399Y5249D01*
X11468Y5202D01*
X11550Y5186D01*
X11632Y5202D01*
X11701Y5249D01*
X11748Y5318D01*
X11762Y5388D01*
X12300Y5927D01*
X19028D01*
X19227Y5727D01*
X19284Y5690D01*
X19350Y5677D01*
X19881D01*
X19918Y5652D01*
X20000Y5636D01*
X20082Y5652D01*
X20151Y5699D01*
X20198Y5768D01*
X20214Y5850D01*
X20198Y5932D01*
X20151Y6001D01*
X20082Y6048D01*
X20000Y6064D01*
X19918Y6048D01*
X19881Y6023D01*
X19422D01*
X19267Y6178D01*
X19288Y6228D01*
X20149D01*
X21113Y5263D01*
X21153Y5237D01*
X21200Y5228D01*
X21679D01*
X21699Y5199D01*
X21768Y5152D01*
X21850Y5136D01*
X21932Y5152D01*
X22001Y5199D01*
X22048Y5268D01*
X22064Y5350D01*
X22048Y5432D01*
X22001Y5501D01*
X21932Y5548D01*
X21850Y5564D01*
X21768Y5548D01*
X21699Y5501D01*
X21679Y5472D01*
X21251D01*
X20295Y6428D01*
X20304Y6462D01*
X20315Y6478D01*
X20449D01*
X20868Y6059D01*
X20861Y6025D01*
X20877Y5943D01*
X20924Y5874D01*
X20993Y5827D01*
X21075Y5811D01*
X21157Y5827D01*
X21226Y5874D01*
X21273Y5943D01*
X21289Y6025D01*
X21273Y6107D01*
X21226Y6176D01*
X21157Y6223D01*
X21075Y6239D01*
X21041Y6232D01*
X20587Y6687D01*
X20547Y6713D01*
X20500Y6722D01*
X14933D01*
X9756Y11899D01*
Y13305D01*
X9800Y13328D01*
X9806Y13324D01*
X9850Y13315D01*
Y13550D01*
Y13785D01*
X9806Y13776D01*
X9800Y13772D01*
X9756Y13795D01*
Y15826D01*
X9747Y15873D01*
X9720Y15913D01*
X9659Y15974D01*
X9664Y16000D01*
X9648Y16082D01*
X9601Y16151D01*
X9562Y16178D01*
X9577Y16228D01*
X9799D01*
X10749Y15278D01*
X10788Y15252D01*
X10835Y15242D01*
X12644D01*
X12663Y15213D01*
X12733Y15167D01*
X12815Y15151D01*
X12897Y15167D01*
X12966Y15213D01*
X13013Y15283D01*
X13029Y15365D01*
X13013Y15447D01*
X12966Y15516D01*
X12897Y15563D01*
X12815Y15579D01*
X12733Y15563D01*
X12663Y15516D01*
X12644Y15487D01*
X10886D01*
X9937Y16437D01*
X9897Y16463D01*
X9850Y16472D01*
X8900D01*
X8853Y16463D01*
X8813Y16437D01*
X7499Y15122D01*
X7306D01*
X7305Y15123D01*
X7258Y15132D01*
X5932D01*
X5922Y15182D01*
X5971Y15203D01*
X6042Y15258D01*
X6097Y15329D01*
X6131Y15411D01*
X6143Y15500D01*
X6131Y15589D01*
X6097Y15671D01*
X6054Y15728D01*
X6074Y15778D01*
X7513D01*
X7536Y15750D01*
X7552Y15668D01*
X7599Y15599D01*
X7668Y15552D01*
X7750Y15536D01*
X7832Y15552D01*
X7901Y15599D01*
X7948Y15668D01*
X7964Y15750D01*
X7948Y15832D01*
X7901Y15901D01*
X7832Y15948D01*
X7750Y15964D01*
X7716Y15957D01*
X7687Y15987D01*
X7669Y15999D01*
X7679Y16052D01*
X7682Y16052D01*
X7751Y16099D01*
X7798Y16168D01*
X7814Y16250D01*
X7807Y16284D01*
X8451Y16928D01*
X10300D01*
X10302Y16928D01*
X10327Y16882D01*
X10313Y16869D01*
X10287Y16829D01*
X10278Y16782D01*
Y16733D01*
X10249Y16714D01*
X10202Y16644D01*
X10186Y16562D01*
X10202Y16481D01*
X10249Y16411D01*
X10318Y16365D01*
X10400Y16348D01*
X10482Y16365D01*
X10551Y16411D01*
X10598Y16481D01*
X10614Y16562D01*
X10598Y16644D01*
X10551Y16714D01*
X10547Y16756D01*
X12087Y18296D01*
X12133Y18275D01*
X12128Y18250D01*
Y16371D01*
X12099Y16351D01*
X12052Y16282D01*
X12036Y16200D01*
X12052Y16118D01*
X12083Y16072D01*
X12056Y16022D01*
X11171D01*
X11151Y16051D01*
X11082Y16098D01*
X11000Y16114D01*
X10918Y16098D01*
X10849Y16051D01*
X10802Y15982D01*
X10786Y15900D01*
X10802Y15818D01*
X10849Y15749D01*
X10918Y15702D01*
X11000Y15686D01*
X11082Y15702D01*
X11151Y15749D01*
X11171Y15778D01*
X12720D01*
X12767Y15787D01*
X12807Y15813D01*
X14541Y17548D01*
X14600Y17536D01*
X14682Y17552D01*
X14751Y17599D01*
X14798Y17668D01*
X14814Y17750D01*
X14804Y17803D01*
X14850Y17827D01*
X14978Y17699D01*
Y16460D01*
X14987Y16413D01*
X15013Y16373D01*
X15583Y15803D01*
X15623Y15777D01*
X15670Y15768D01*
X16173D01*
X16188Y15718D01*
X16149Y15691D01*
X16102Y15622D01*
X16086Y15540D01*
X16102Y15458D01*
X16149Y15389D01*
X16218Y15342D01*
X16300Y15326D01*
X16382Y15342D01*
X16451Y15389D01*
X16471Y15418D01*
X17659D01*
X19993Y13084D01*
X19986Y13050D01*
X20002Y12968D01*
X20010Y12956D01*
X19986Y12912D01*
X17738D01*
X17691Y12981D01*
X17622Y13028D01*
X17540Y13044D01*
X17506Y13037D01*
X17372Y13171D01*
Y13529D01*
X17401Y13549D01*
X17448Y13618D01*
X17464Y13700D01*
X17448Y13782D01*
X17401Y13851D01*
X17332Y13898D01*
X17250Y13914D01*
X17168Y13898D01*
X17099Y13851D01*
X17052Y13782D01*
X17036Y13700D01*
X17052Y13618D01*
X17099Y13549D01*
X17128Y13529D01*
Y13120D01*
X17137Y13073D01*
X17163Y13033D01*
X17333Y12864D01*
X17326Y12830D01*
X17342Y12748D01*
X17389Y12679D01*
X17458Y12632D01*
X17540Y12616D01*
X17622Y12632D01*
X17675Y12668D01*
X20409D01*
X21182Y11895D01*
X21161Y11845D01*
X20877D01*
X20705Y11673D01*
Y11328D01*
X20877Y11155D01*
X21223D01*
X21395Y11328D01*
Y11611D01*
X21445Y11632D01*
X22813Y10263D01*
X22830Y10252D01*
X22815Y10202D01*
X19471D01*
X16787Y12887D01*
X16747Y12913D01*
X16700Y12922D01*
X15671D01*
X15651Y12951D01*
X15582Y12998D01*
X15500Y13014D01*
X15418Y12998D01*
X15349Y12951D01*
X15302Y12882D01*
X15286Y12800D01*
X15302Y12718D01*
X15349Y12649D01*
X15418Y12602D01*
X15500Y12586D01*
X15582Y12602D01*
X15651Y12649D01*
X15671Y12678D01*
X16649D01*
X19333Y9993D01*
X19373Y9967D01*
X19420Y9958D01*
X24519D01*
X27963Y6513D01*
X28003Y6487D01*
X28050Y6478D01*
X31673D01*
X31688Y6428D01*
X31649Y6401D01*
X31602Y6332D01*
X31586Y6250D01*
X31602Y6168D01*
X31649Y6099D01*
X31718Y6052D01*
X31800Y6036D01*
X31882Y6052D01*
X31951Y6099D01*
X31971Y6128D01*
X36249D01*
X39463Y2913D01*
X39503Y2887D01*
X39550Y2878D01*
X40834D01*
X40843Y2729D01*
X40896Y2463D01*
X40983Y2206D01*
X41103Y1963D01*
X41254Y1737D01*
X41433Y1533D01*
X41637Y1354D01*
X41863Y1203D01*
X42106Y1083D01*
X42363Y996D01*
X42629Y943D01*
X42900Y926D01*
X43171Y943D01*
X43437Y996D01*
X43694Y1083D01*
X43937Y1203D01*
X44163Y1354D01*
X44367Y1533D01*
X44546Y1737D01*
X44697Y1963D01*
X44817Y2206D01*
X44904Y2463D01*
X44957Y2729D01*
X44974Y3000D01*
X44957Y3271D01*
X44904Y3537D01*
X44817Y3794D01*
X44697Y4037D01*
X44546Y4263D01*
X44367Y4467D01*
X44163Y4646D01*
X43937Y4797D01*
X43694Y4917D01*
X43437Y5004D01*
X43171Y5057D01*
X42900Y5074D01*
X42629Y5057D01*
X42363Y5004D01*
X42106Y4917D01*
X41863Y4797D01*
X41637Y4646D01*
X41433Y4467D01*
X41254Y4263D01*
X41103Y4037D01*
X40983Y3794D01*
X40896Y3537D01*
X40843Y3271D01*
X40834Y3122D01*
X39601D01*
X36387Y6337D01*
X36347Y6363D01*
X36300Y6372D01*
X31971D01*
X31951Y6401D01*
X31912Y6428D01*
X31927Y6478D01*
X39149D01*
X40143Y5484D01*
X40136Y5450D01*
X40152Y5368D01*
X40199Y5299D01*
X40268Y5252D01*
X40350Y5236D01*
X40432Y5252D01*
X40501Y5299D01*
X40548Y5368D01*
X40564Y5450D01*
X40548Y5532D01*
X40501Y5601D01*
X40432Y5648D01*
X40350Y5664D01*
X40316Y5657D01*
X39287Y6687D01*
X39247Y6713D01*
X39200Y6722D01*
X30327D01*
X30312Y6772D01*
X30351Y6799D01*
X30398Y6868D01*
X30414Y6950D01*
X30398Y7032D01*
X30351Y7101D01*
X30322Y7121D01*
Y11100D01*
X30313Y11147D01*
X30287Y11187D01*
X29457Y12016D01*
X29464Y12050D01*
X29448Y12132D01*
X29401Y12201D01*
X29332Y12248D01*
X29250Y12264D01*
X29168Y12248D01*
X29099Y12201D01*
X29052Y12132D01*
X29036Y12050D01*
X29052Y11968D01*
X29099Y11899D01*
X29168Y11852D01*
X29250Y11836D01*
X29284Y11843D01*
X30078Y11049D01*
Y7121D01*
X30049Y7101D01*
X30002Y7032D01*
X29986Y6950D01*
X30002Y6868D01*
X30049Y6799D01*
X30088Y6772D01*
X30073Y6722D01*
X28101D01*
X24657Y10167D01*
X24640Y10178D01*
X24655Y10228D01*
X28300D01*
X28347Y10237D01*
X28387Y10263D01*
X28787Y10663D01*
X28813Y10703D01*
X28822Y10750D01*
Y13579D01*
X28851Y13599D01*
X28898Y13668D01*
X28914Y13750D01*
X28898Y13832D01*
X28851Y13901D01*
X28782Y13948D01*
X28700Y13964D01*
X28618Y13948D01*
X28549Y13901D01*
X28502Y13832D01*
X28486Y13750D01*
X28502Y13668D01*
X28549Y13599D01*
X28578Y13579D01*
Y10801D01*
X28249Y10472D01*
X22951D01*
X22294Y11129D01*
X22305Y11184D01*
X22308Y11186D01*
X22350Y11178D01*
X28079D01*
X28099Y11149D01*
X28168Y11102D01*
X28250Y11086D01*
X28332Y11102D01*
X28401Y11149D01*
X28448Y11218D01*
X28464Y11300D01*
X28448Y11382D01*
X28401Y11451D01*
X28332Y11498D01*
X28250Y11514D01*
X28168Y11498D01*
X28099Y11451D01*
X28079Y11422D01*
X22401D01*
X21780Y12043D01*
X21807Y12087D01*
X21882Y12102D01*
X21951Y12149D01*
X21998Y12218D01*
X22014Y12300D01*
X21998Y12382D01*
X21951Y12451D01*
X21882Y12498D01*
X21800Y12514D01*
X21766Y12507D01*
X21284Y12989D01*
Y13117D01*
X21313Y13137D01*
X21360Y13206D01*
X21376Y13288D01*
X21360Y13370D01*
X21313Y13440D01*
X21244Y13486D01*
X21162Y13502D01*
X21128Y13495D01*
X18857Y15767D01*
X18817Y15793D01*
X18788Y15799D01*
X18766Y15831D01*
X18697Y15878D01*
X18615Y15894D01*
X18533Y15878D01*
X18464Y15831D01*
X18417Y15762D01*
X18401Y15680D01*
X18417Y15598D01*
X18464Y15529D01*
X18533Y15482D01*
X18615Y15466D01*
X18697Y15482D01*
X18756Y15521D01*
X20955Y13322D01*
X20948Y13288D01*
X20964Y13206D01*
X21010Y13137D01*
X21040Y13117D01*
Y12938D01*
X21049Y12891D01*
X21075Y12852D01*
X21575Y12352D01*
X21571Y12322D01*
X21518Y12305D01*
X13617Y20207D01*
X13577Y20233D01*
X13530Y20242D01*
X13413D01*
X13398Y20261D01*
X13391Y20271D01*
X13389Y20273D01*
X13383Y20281D01*
X13397Y20328D01*
X14759D01*
X16999Y18088D01*
X16974Y18042D01*
X16960Y18045D01*
Y17860D01*
X17145D01*
X17142Y17874D01*
X17188Y17899D01*
X23023Y12063D01*
X23063Y12037D01*
X23110Y12028D01*
X26179D01*
X26199Y11999D01*
X26268Y11952D01*
X26350Y11936D01*
X26432Y11952D01*
X26501Y11999D01*
X26548Y12068D01*
X26564Y12150D01*
X26548Y12232D01*
X26501Y12301D01*
X26432Y12348D01*
X26350Y12364D01*
X26268Y12348D01*
X26199Y12301D01*
X26179Y12272D01*
X23161D01*
X18800Y16633D01*
X18825Y16679D01*
X18830Y16678D01*
X22879D01*
X22899Y16649D01*
X22968Y16602D01*
X23050Y16586D01*
X23132Y16602D01*
X23201Y16649D01*
X23248Y16718D01*
X23264Y16800D01*
X23248Y16882D01*
X23201Y16951D01*
X23132Y16998D01*
X23050Y17014D01*
X22968Y16998D01*
X22899Y16951D01*
X22879Y16922D01*
X18899D01*
X18863Y16965D01*
X18870Y16999D01*
X18872Y17001D01*
X18950Y16986D01*
X19032Y17002D01*
X19101Y17049D01*
X19148Y17118D01*
X19164Y17200D01*
X19148Y17282D01*
X19101Y17351D01*
X19032Y17398D01*
X18950Y17414D01*
X18916Y17407D01*
X15187Y21137D01*
X15147Y21163D01*
X15100Y21172D01*
X13171D01*
X13151Y21201D01*
X13082Y21248D01*
X13000Y21264D01*
X12918Y21248D01*
X12849Y21201D01*
X12802Y21132D01*
X12786Y21050D01*
X12802Y20968D01*
X12849Y20899D01*
X12918Y20852D01*
X13000Y20836D01*
X13082Y20852D01*
X13151Y20899D01*
X13171Y20928D01*
X13256D01*
X13283Y20878D01*
X13252Y20832D01*
X13236Y20750D01*
X13252Y20668D01*
X13283Y20622D01*
X13256Y20572D01*
X13071D01*
X13051Y20601D01*
X12982Y20648D01*
X12900Y20664D01*
X12818Y20648D01*
X12749Y20601D01*
X12732Y20577D01*
X12682Y20592D01*
Y22242D01*
X12705Y22253D01*
X12732Y22256D01*
X12786Y22186D01*
X12863Y22127D01*
X12953Y22089D01*
X13026Y22080D01*
X13038Y22028D01*
X12999Y22001D01*
X12952Y21932D01*
X12936Y21850D01*
X12952Y21768D01*
X12999Y21699D01*
X13068Y21652D01*
X13150Y21636D01*
X13232Y21652D01*
X13301Y21699D01*
X13321Y21728D01*
X46259D01*
X46305Y21737D01*
X46345Y21763D01*
X46709Y22128D01*
X49763D01*
Y21883D01*
X50337D01*
Y22417D01*
X49763D01*
Y22372D01*
X46659D01*
X46612Y22363D01*
X46572Y22337D01*
X46208Y21972D01*
X16744D01*
X16717Y22022D01*
X16748Y22068D01*
X16756Y22108D01*
X16811Y22129D01*
X16848Y22101D01*
X16946Y22060D01*
X17000Y22053D01*
Y22450D01*
X17050D01*
Y22500D01*
X17447D01*
X17440Y22554D01*
X17399Y22652D01*
X17335Y22735D01*
X17252Y22799D01*
X17172Y22832D01*
Y23238D01*
X17257Y23273D01*
X17342Y23339D01*
X17408Y23424D01*
X17449Y23524D01*
X17457Y23581D01*
X17050D01*
Y23631D01*
X17000D01*
Y24038D01*
X16943Y24030D01*
X16843Y23989D01*
X16812Y23965D01*
X16757Y23986D01*
X16748Y24032D01*
X16701Y24101D01*
X16632Y24148D01*
X16550Y24164D01*
X16468Y24148D01*
X16399Y24101D01*
X16352Y24032D01*
X16343Y23986D01*
X16288Y23965D01*
X16257Y23989D01*
X16157Y24030D01*
X16100Y24038D01*
Y23631D01*
X16050D01*
Y23581D01*
X15643D01*
X15651Y23524D01*
X15692Y23424D01*
X15758Y23339D01*
X15843Y23273D01*
X15928Y23238D01*
Y22832D01*
X15848Y22799D01*
X15765Y22735D01*
X15701Y22652D01*
X15660Y22554D01*
X15653Y22500D01*
X16050D01*
Y22450D01*
X16100D01*
Y22053D01*
X16154Y22060D01*
X16252Y22101D01*
X16289Y22129D01*
X16344Y22108D01*
X16352Y22068D01*
X16383Y22022D01*
X16356Y21972D01*
X13321D01*
X13301Y22001D01*
X13232Y22048D01*
X13195Y22055D01*
X13190Y22107D01*
X13237Y22127D01*
X13314Y22186D01*
X13373Y22263D01*
X13410Y22353D01*
X13423Y22450D01*
X13410Y22546D01*
X13373Y22636D01*
X13314Y22714D01*
X13237Y22773D01*
X13172Y22800D01*
Y23270D01*
X13242Y23299D01*
X13321Y23360D01*
X13382Y23439D01*
X13420Y23532D01*
X13433Y23631D01*
X13420Y23730D01*
X13382Y23823D01*
X13321Y23902D01*
X13242Y23963D01*
X13149Y24001D01*
X13050Y24014D01*
X12951Y24001D01*
X12858Y23963D01*
X12779Y23902D01*
X12732Y23841D01*
X12682Y23858D01*
Y23923D01*
X12673Y23969D01*
X12647Y24009D01*
X12419Y24237D01*
X12379Y24263D01*
X12333Y24272D01*
D02*
G37*
G36*
X11473Y20545D02*
X11128D01*
X10955Y20373D01*
Y20027D01*
X11128Y19855D01*
X11473D01*
X11645Y20027D01*
Y20373D01*
X11473Y20545D01*
D02*
G37*
G36*
X28940Y20144D02*
X28858Y20128D01*
X28789Y20081D01*
X28742Y20012D01*
X28736Y19979D01*
X27575Y18818D01*
X27522Y18853D01*
X27440Y18869D01*
X27358Y18853D01*
X27289Y18806D01*
X27242Y18737D01*
X27226Y18655D01*
X27242Y18573D01*
X27289Y18504D01*
X27358Y18457D01*
X27440Y18441D01*
X27522Y18457D01*
X27591Y18504D01*
X27615Y18539D01*
X27632Y18542D01*
X27672Y18568D01*
X28844Y19741D01*
X28858Y19732D01*
X28940Y19716D01*
X29022Y19732D01*
X29091Y19779D01*
X29138Y19848D01*
X29154Y19930D01*
X29138Y20012D01*
X29091Y20081D01*
X29022Y20128D01*
X28940Y20144D01*
D02*
G37*
G36*
X14950Y19885D02*
Y19700D01*
X15135D01*
X15126Y19744D01*
X15073Y19823D01*
X14994Y19876D01*
X14950Y19885D01*
D02*
G37*
G36*
X14850D02*
X14806Y19876D01*
X14727Y19823D01*
X14674Y19744D01*
X14665Y19700D01*
X14850D01*
Y19885D01*
D02*
G37*
G36*
X15135Y19600D02*
X14950D01*
Y19415D01*
X14994Y19424D01*
X15073Y19477D01*
X15126Y19556D01*
X15135Y19600D01*
D02*
G37*
G36*
X14850D02*
X14665D01*
X14674Y19556D01*
X14727Y19477D01*
X14806Y19424D01*
X14850Y19415D01*
Y19600D01*
D02*
G37*
G36*
X26790Y19734D02*
X26708Y19718D01*
X26639Y19671D01*
X26592Y19602D01*
X26576Y19520D01*
X26583Y19486D01*
X25874Y18777D01*
X25840Y18784D01*
X25758Y18768D01*
X25689Y18721D01*
X25642Y18652D01*
X25626Y18570D01*
X25642Y18488D01*
X25689Y18419D01*
X25758Y18372D01*
X25840Y18356D01*
X25922Y18372D01*
X25991Y18419D01*
X26038Y18488D01*
X26054Y18570D01*
X26047Y18604D01*
X26756Y19313D01*
X26790Y19306D01*
X26872Y19322D01*
X26941Y19369D01*
X26988Y19438D01*
X27004Y19520D01*
X26988Y19602D01*
X26941Y19671D01*
X26872Y19718D01*
X26790Y19734D01*
D02*
G37*
G36*
X16500Y21264D02*
X16418Y21248D01*
X16349Y21201D01*
X16302Y21132D01*
X16286Y21050D01*
X16302Y20968D01*
X16349Y20899D01*
X16418Y20852D01*
X16500Y20836D01*
X16582Y20852D01*
X16651Y20899D01*
X16671Y20928D01*
X16899D01*
X18893Y18934D01*
X18886Y18900D01*
X18902Y18818D01*
X18949Y18749D01*
X19018Y18702D01*
X19100Y18686D01*
X19182Y18702D01*
X19251Y18749D01*
X19298Y18818D01*
X19314Y18900D01*
X19298Y18982D01*
X19251Y19051D01*
X19182Y19098D01*
X19100Y19114D01*
X19066Y19107D01*
X17037Y21137D01*
X16997Y21163D01*
X16950Y21172D01*
X16671D01*
X16651Y21201D01*
X16582Y21248D01*
X16500Y21264D01*
D02*
G37*
G36*
X44200Y19664D02*
X44118Y19648D01*
X44049Y19601D01*
X44002Y19532D01*
X43986Y19450D01*
X44002Y19368D01*
X44049Y19299D01*
X44078Y19279D01*
Y18751D01*
X43930Y18603D01*
X43853Y18635D01*
X43750Y18648D01*
X43647Y18635D01*
X43551Y18595D01*
X43468Y18532D01*
X43405Y18449D01*
X43365Y18353D01*
X43352Y18250D01*
X43365Y18147D01*
X43405Y18051D01*
X43468Y17968D01*
X43551Y17905D01*
X43647Y17865D01*
X43750Y17852D01*
X43853Y17865D01*
X43949Y17905D01*
X44032Y17968D01*
X44095Y18051D01*
X44135Y18147D01*
X44148Y18250D01*
X44135Y18353D01*
X44103Y18430D01*
X44287Y18613D01*
X44313Y18653D01*
X44322Y18700D01*
Y19279D01*
X44351Y19299D01*
X44398Y19368D01*
X44414Y19450D01*
X44398Y19532D01*
X44351Y19601D01*
X44282Y19648D01*
X44200Y19664D01*
D02*
G37*
G36*
X42800Y18672D02*
Y18300D01*
X43172D01*
X43164Y18361D01*
X43121Y18464D01*
X43053Y18553D01*
X42964Y18621D01*
X42861Y18664D01*
X42800Y18672D01*
D02*
G37*
G36*
X42700D02*
X42639Y18664D01*
X42536Y18621D01*
X42447Y18553D01*
X42379Y18464D01*
X42336Y18361D01*
X42328Y18300D01*
X42700D01*
Y18672D01*
D02*
G37*
G36*
X41775Y18623D02*
X41725D01*
X41628Y18610D01*
X41538Y18573D01*
X41461Y18514D01*
X41402Y18437D01*
X41365Y18347D01*
X41352Y18250D01*
X41365Y18153D01*
X41402Y18063D01*
X41461Y17986D01*
X41538Y17927D01*
X41628Y17890D01*
X41725Y17877D01*
X41775D01*
X41872Y17890D01*
X41962Y17927D01*
X42039Y17986D01*
X42098Y18063D01*
X42135Y18153D01*
X42148Y18250D01*
X42135Y18347D01*
X42098Y18437D01*
X42039Y18514D01*
X41962Y18573D01*
X41872Y18610D01*
X41775Y18623D01*
D02*
G37*
G36*
X16860Y18045D02*
X16816Y18036D01*
X16737Y17983D01*
X16684Y17904D01*
X16675Y17860D01*
X16860D01*
Y18045D01*
D02*
G37*
G36*
X43172Y18200D02*
X42800D01*
Y17828D01*
X42861Y17836D01*
X42964Y17879D01*
X43053Y17947D01*
X43121Y18036D01*
X43164Y18139D01*
X43172Y18200D01*
D02*
G37*
G36*
X42700D02*
X42328D01*
X42336Y18139D01*
X42379Y18036D01*
X42447Y17947D01*
X42536Y17879D01*
X42639Y17836D01*
X42700Y17828D01*
Y18200D01*
D02*
G37*
G36*
X9450Y17885D02*
Y17700D01*
X9635D01*
X9626Y17744D01*
X9573Y17823D01*
X9494Y17876D01*
X9450Y17885D01*
D02*
G37*
G36*
X9350D02*
X9306Y17876D01*
X9227Y17823D01*
X9174Y17744D01*
X9165Y17700D01*
X9350D01*
Y17885D01*
D02*
G37*
G36*
X20747Y17856D02*
X20700Y17846D01*
X20660Y17820D01*
X20634Y17780D01*
X20624Y17733D01*
X20634Y17687D01*
X20660Y17647D01*
Y17647D01*
X20700Y17620D01*
X20747Y17611D01*
X20794Y17620D01*
X20833Y17647D01*
X20860Y17687D01*
X20869Y17733D01*
X20860Y17780D01*
X20833Y17820D01*
X20833D01*
X20794Y17846D01*
X20747Y17856D01*
D02*
G37*
G36*
X17145Y17760D02*
X16960D01*
Y17575D01*
X17004Y17584D01*
X17083Y17637D01*
X17136Y17716D01*
X17145Y17760D01*
D02*
G37*
G36*
X16860D02*
X16675D01*
X16684Y17716D01*
X16737Y17637D01*
X16816Y17584D01*
X16860Y17575D01*
Y17760D01*
D02*
G37*
G36*
X9635Y17600D02*
X9450D01*
Y17415D01*
X9494Y17424D01*
X9573Y17477D01*
X9626Y17556D01*
X9635Y17600D01*
D02*
G37*
G36*
X9350D02*
X9165D01*
X9174Y17556D01*
X9227Y17477D01*
X9306Y17424D01*
X9350Y17415D01*
Y17600D01*
D02*
G37*
G36*
X4600Y17585D02*
Y17400D01*
X4785D01*
X4776Y17444D01*
X4723Y17523D01*
X4644Y17576D01*
X4600Y17585D01*
D02*
G37*
G36*
X4500D02*
X4456Y17576D01*
X4377Y17523D01*
X4324Y17444D01*
X4315Y17400D01*
X4500D01*
Y17585D01*
D02*
G37*
G36*
X21523Y18045D02*
X21177D01*
X21005Y17873D01*
Y17528D01*
X21177Y17355D01*
X21523D01*
X21695Y17528D01*
Y17873D01*
X21523Y18045D01*
D02*
G37*
G36*
X4785Y17300D02*
X4600D01*
Y17115D01*
X4644Y17124D01*
X4723Y17177D01*
X4776Y17256D01*
X4785Y17300D01*
D02*
G37*
G36*
X4500D02*
X4315D01*
X4324Y17256D01*
X4377Y17177D01*
X4456Y17124D01*
X4500Y17115D01*
Y17300D01*
D02*
G37*
G36*
X14720Y17045D02*
Y16860D01*
X14905D01*
X14896Y16904D01*
X14843Y16983D01*
X14764Y17036D01*
X14720Y17045D01*
D02*
G37*
G36*
X14620D02*
X14576Y17036D01*
X14497Y16983D01*
X14444Y16904D01*
X14435Y16860D01*
X14620D01*
Y17045D01*
D02*
G37*
G36*
X46350Y16835D02*
Y16650D01*
X46535D01*
X46526Y16694D01*
X46473Y16773D01*
X46394Y16826D01*
X46350Y16835D01*
D02*
G37*
G36*
X46250D02*
X46206Y16826D01*
X46127Y16773D01*
X46074Y16694D01*
X46065Y16650D01*
X46250D01*
Y16835D01*
D02*
G37*
G36*
X11550Y17514D02*
X11468Y17498D01*
X11399Y17451D01*
X11352Y17382D01*
X11336Y17300D01*
X11352Y17218D01*
X11399Y17149D01*
X11428Y17129D01*
Y16849D01*
X11412Y16834D01*
X11340Y16819D01*
X11270Y16773D01*
X11224Y16704D01*
X11208Y16622D01*
X11224Y16540D01*
X11270Y16470D01*
X11340Y16424D01*
X11422Y16408D01*
X11504Y16424D01*
X11573Y16470D01*
X11619Y16540D01*
X11636Y16622D01*
X11621Y16697D01*
X11637Y16712D01*
X11663Y16752D01*
X11672Y16799D01*
Y17129D01*
X11701Y17149D01*
X11748Y17218D01*
X11764Y17300D01*
X11748Y17382D01*
X11701Y17451D01*
X11632Y17498D01*
X11550Y17514D01*
D02*
G37*
G36*
X46535Y16550D02*
X46350D01*
Y16365D01*
X46394Y16374D01*
X46473Y16427D01*
X46526Y16506D01*
X46535Y16550D01*
D02*
G37*
G36*
X46250D02*
X46065D01*
X46074Y16506D01*
X46127Y16427D01*
X46206Y16374D01*
X46250Y16365D01*
Y16550D01*
D02*
G37*
G36*
X14905Y16760D02*
X14435D01*
X14444Y16716D01*
X14497Y16637D01*
X14548Y16603D01*
Y16371D01*
X14363Y16186D01*
X14358Y16187D01*
Y16002D01*
X14542D01*
X14540Y16017D01*
X14757Y16233D01*
X14783Y16273D01*
X14792Y16320D01*
Y16603D01*
X14843Y16637D01*
X14896Y16716D01*
X14905Y16760D01*
D02*
G37*
G36*
X14258Y16187D02*
X14214Y16178D01*
X14135Y16125D01*
X14082Y16046D01*
X14073Y16002D01*
X14258D01*
Y16187D01*
D02*
G37*
G36*
X14542Y15902D02*
X14358D01*
Y15718D01*
X14401Y15726D01*
X14481Y15779D01*
X14534Y15859D01*
X14542Y15902D01*
D02*
G37*
G36*
X14258D02*
X14073D01*
X14082Y15859D01*
X14135Y15779D01*
X14214Y15726D01*
X14258Y15718D01*
Y15902D01*
D02*
G37*
G36*
X2050Y15757D02*
Y15400D01*
X2407D01*
X2399Y15457D01*
X2358Y15557D01*
X2292Y15642D01*
X2207Y15708D01*
X2107Y15749D01*
X2050Y15757D01*
D02*
G37*
G36*
X1050D02*
Y15400D01*
X1407D01*
X1399Y15457D01*
X1358Y15557D01*
X1292Y15642D01*
X1207Y15708D01*
X1107Y15749D01*
X1050Y15757D01*
D02*
G37*
G36*
X1950D02*
X1893Y15749D01*
X1793Y15708D01*
X1708Y15642D01*
X1642Y15557D01*
X1601Y15457D01*
X1593Y15400D01*
X1950D01*
Y15757D01*
D02*
G37*
G36*
X950D02*
X893Y15749D01*
X793Y15708D01*
X708Y15642D01*
X642Y15557D01*
X601Y15457D01*
X593Y15400D01*
X950D01*
Y15757D01*
D02*
G37*
G36*
X43800Y15472D02*
Y15100D01*
X44172D01*
X44164Y15161D01*
X44121Y15264D01*
X44053Y15353D01*
X43964Y15421D01*
X43861Y15464D01*
X43800Y15472D01*
D02*
G37*
G36*
X43700D02*
X43639Y15464D01*
X43536Y15421D01*
X43447Y15353D01*
X43379Y15264D01*
X43336Y15161D01*
X43328Y15100D01*
X43700D01*
Y15472D01*
D02*
G37*
G36*
X12450Y15135D02*
Y14950D01*
X12635D01*
X12626Y14994D01*
X12573Y15073D01*
X12494Y15126D01*
X12450Y15135D01*
D02*
G37*
G36*
X12350D02*
X12306Y15126D01*
X12227Y15073D01*
X12174Y14994D01*
X12165Y14950D01*
X12350D01*
Y15135D01*
D02*
G37*
G36*
X2407Y15300D02*
X2050D01*
Y14943D01*
X2107Y14951D01*
X2207Y14992D01*
X2292Y15058D01*
X2358Y15143D01*
X2399Y15243D01*
X2407Y15300D01*
D02*
G37*
G36*
X1407D02*
X1050D01*
Y14943D01*
X1107Y14951D01*
X1207Y14992D01*
X1292Y15058D01*
X1358Y15143D01*
X1399Y15243D01*
X1407Y15300D01*
D02*
G37*
G36*
X1950D02*
X1593D01*
X1601Y15243D01*
X1642Y15143D01*
X1708Y15058D01*
X1793Y14992D01*
X1893Y14951D01*
X1950Y14943D01*
Y15300D01*
D02*
G37*
G36*
X950D02*
X593D01*
X601Y15243D01*
X642Y15143D01*
X708Y15058D01*
X793Y14992D01*
X893Y14951D01*
X950Y14943D01*
Y15300D01*
D02*
G37*
G36*
X12635Y14850D02*
X12450D01*
Y14665D01*
X12494Y14674D01*
X12573Y14727D01*
X12626Y14806D01*
X12635Y14850D01*
D02*
G37*
G36*
X12350D02*
X12165D01*
X12174Y14806D01*
X12227Y14727D01*
X12306Y14674D01*
X12350Y14665D01*
Y14850D01*
D02*
G37*
G36*
X41750Y15448D02*
X41647Y15435D01*
X41551Y15395D01*
X41468Y15332D01*
X41405Y15249D01*
X41365Y15153D01*
X41352Y15050D01*
X41365Y14947D01*
X41405Y14851D01*
X41468Y14768D01*
X41551Y14705D01*
X41647Y14665D01*
X41750Y14652D01*
X41853Y14665D01*
X41949Y14705D01*
X42032Y14768D01*
X42095Y14851D01*
X42135Y14947D01*
X42148Y15050D01*
X42135Y15153D01*
X42095Y15249D01*
X42032Y15332D01*
X41949Y15395D01*
X41853Y15435D01*
X41750Y15448D01*
D02*
G37*
G36*
X13600Y15064D02*
X13518Y15048D01*
X13449Y15001D01*
X13429Y14972D01*
X13232D01*
X13185Y14963D01*
X13146Y14937D01*
X11993Y13784D01*
X11967Y13745D01*
X11958Y13698D01*
Y11831D01*
X11929Y11811D01*
X11882Y11742D01*
X11866Y11660D01*
X11882Y11578D01*
X11929Y11509D01*
X11998Y11462D01*
X12080Y11446D01*
X12162Y11462D01*
X12231Y11509D01*
X12278Y11578D01*
X12294Y11660D01*
X12278Y11742D01*
X12231Y11811D01*
X12202Y11831D01*
Y13647D01*
X12362Y13807D01*
X12408Y13782D01*
X12408Y13780D01*
Y12111D01*
X12379Y12091D01*
X12332Y12022D01*
X12316Y11940D01*
X12332Y11858D01*
X12379Y11789D01*
X12448Y11742D01*
X12530Y11726D01*
X12612Y11742D01*
X12681Y11789D01*
X12728Y11858D01*
X12744Y11940D01*
X12728Y12022D01*
X12681Y12091D01*
X12652Y12111D01*
Y12298D01*
X12702Y12313D01*
X12739Y12259D01*
X12808Y12212D01*
X12890Y12196D01*
X12972Y12212D01*
X13041Y12259D01*
X13088Y12328D01*
X13104Y12410D01*
X13097Y12444D01*
X14009Y13356D01*
X14042Y13362D01*
X14068Y13379D01*
X14118Y13353D01*
Y13091D01*
X11738Y10711D01*
X11720Y10714D01*
X11638Y10698D01*
X11569Y10651D01*
X11522Y10582D01*
X11506Y10500D01*
X11522Y10418D01*
X11569Y10349D01*
X11638Y10302D01*
X11720Y10286D01*
X11802Y10302D01*
X11871Y10349D01*
X11918Y10418D01*
X11934Y10500D01*
X11924Y10551D01*
X14327Y12953D01*
X14353Y12993D01*
X14362Y13040D01*
Y13999D01*
X14391Y14019D01*
X14438Y14088D01*
X14454Y14170D01*
X14438Y14252D01*
X14391Y14321D01*
X14322Y14368D01*
X14240Y14384D01*
X14158Y14368D01*
X14089Y14321D01*
X14042Y14252D01*
X14026Y14170D01*
X14042Y14088D01*
X14089Y14019D01*
X14118Y13999D01*
Y13767D01*
X14068Y13741D01*
X14042Y13758D01*
X13960Y13774D01*
X13878Y13758D01*
X13809Y13711D01*
X13762Y13642D01*
X13746Y13560D01*
X13748Y13551D01*
X13700Y13532D01*
X13673Y13573D01*
X13594Y13626D01*
X13550Y13635D01*
Y13400D01*
X13500D01*
Y13350D01*
X13265D01*
X13274Y13306D01*
X13327Y13227D01*
X13406Y13174D01*
X13417Y13172D01*
X13431Y13124D01*
X12924Y12617D01*
X12890Y12624D01*
X12808Y12608D01*
X12739Y12561D01*
X12702Y12507D01*
X12652Y12522D01*
Y13729D01*
X12934Y14011D01*
X12968Y14004D01*
X13050Y14020D01*
X13120Y14067D01*
X13166Y14136D01*
X13182Y14218D01*
X13166Y14300D01*
X13120Y14370D01*
X13050Y14416D01*
X13036Y14419D01*
X13022Y14467D01*
X13283Y14728D01*
X13429D01*
X13449Y14699D01*
X13518Y14652D01*
X13600Y14636D01*
X13682Y14652D01*
X13751Y14699D01*
X13798Y14768D01*
X13814Y14850D01*
X13798Y14932D01*
X13751Y15001D01*
X13682Y15048D01*
X13600Y15064D01*
D02*
G37*
G36*
X8100D02*
X8018Y15048D01*
X7949Y15001D01*
X7902Y14932D01*
X7886Y14850D01*
X7902Y14768D01*
X7949Y14699D01*
X8018Y14652D01*
X8100Y14636D01*
X8182Y14652D01*
X8251Y14699D01*
X8298Y14768D01*
X8314Y14850D01*
X8298Y14932D01*
X8251Y15001D01*
X8182Y15048D01*
X8100Y15064D01*
D02*
G37*
G36*
X44172Y15000D02*
X43800D01*
Y14628D01*
X43861Y14636D01*
X43964Y14679D01*
X44053Y14747D01*
X44121Y14836D01*
X44164Y14939D01*
X44172Y15000D01*
D02*
G37*
G36*
X43700D02*
X43328D01*
X43336Y14939D01*
X43379Y14836D01*
X43447Y14747D01*
X43536Y14679D01*
X43639Y14636D01*
X43700Y14628D01*
Y15000D01*
D02*
G37*
G36*
X2050Y14757D02*
Y14400D01*
X2407D01*
X2399Y14457D01*
X2358Y14557D01*
X2292Y14642D01*
X2207Y14708D01*
X2107Y14749D01*
X2050Y14757D01*
D02*
G37*
G36*
X1050D02*
Y14400D01*
X1407D01*
X1399Y14457D01*
X1358Y14557D01*
X1292Y14642D01*
X1207Y14708D01*
X1107Y14749D01*
X1050Y14757D01*
D02*
G37*
G36*
X1950D02*
X1893Y14749D01*
X1793Y14708D01*
X1708Y14642D01*
X1642Y14557D01*
X1601Y14457D01*
X1593Y14400D01*
X1950D01*
Y14757D01*
D02*
G37*
G36*
X950D02*
X893Y14749D01*
X793Y14708D01*
X708Y14642D01*
X642Y14557D01*
X601Y14457D01*
X593Y14400D01*
X950D01*
Y14757D01*
D02*
G37*
G36*
X3840Y16454D02*
X3758Y16438D01*
X3689Y16391D01*
X3642Y16322D01*
X3626Y16240D01*
X3642Y16158D01*
X3689Y16089D01*
X3758Y16042D01*
X3840Y16026D01*
X3849Y16028D01*
X5543Y14334D01*
X5536Y14300D01*
X5552Y14218D01*
X5599Y14149D01*
X5668Y14102D01*
X5750Y14086D01*
X5832Y14102D01*
X5901Y14149D01*
X5948Y14218D01*
X5964Y14300D01*
X5948Y14382D01*
X5901Y14451D01*
X5832Y14498D01*
X5750Y14514D01*
X5716Y14507D01*
X4042Y16181D01*
X4054Y16240D01*
X4038Y16322D01*
X3991Y16391D01*
X3922Y16438D01*
X3840Y16454D01*
D02*
G37*
G36*
X2407Y14300D02*
X2050D01*
Y13943D01*
X2107Y13951D01*
X2207Y13992D01*
X2292Y14058D01*
X2358Y14143D01*
X2399Y14243D01*
X2407Y14300D01*
D02*
G37*
G36*
X1407D02*
X1050D01*
Y13943D01*
X1107Y13951D01*
X1207Y13992D01*
X1292Y14058D01*
X1358Y14143D01*
X1399Y14243D01*
X1407Y14300D01*
D02*
G37*
G36*
X1950D02*
X1593D01*
X1601Y14243D01*
X1642Y14143D01*
X1708Y14058D01*
X1793Y13992D01*
X1893Y13951D01*
X1950Y13943D01*
Y14300D01*
D02*
G37*
G36*
X950D02*
X593D01*
X601Y14243D01*
X642Y14143D01*
X708Y14058D01*
X793Y13992D01*
X893Y13951D01*
X950Y13943D01*
Y14300D01*
D02*
G37*
G36*
X9950Y13785D02*
Y13600D01*
X10135D01*
X10126Y13644D01*
X10073Y13723D01*
X9994Y13776D01*
X9950Y13785D01*
D02*
G37*
G36*
X13450Y13635D02*
X13406Y13626D01*
X13327Y13573D01*
X13274Y13494D01*
X13265Y13450D01*
X13450D01*
Y13635D01*
D02*
G37*
G36*
X10135Y13500D02*
X9950D01*
Y13315D01*
X9994Y13324D01*
X10073Y13377D01*
X10126Y13456D01*
X10135Y13500D01*
D02*
G37*
G36*
X1717Y13316D02*
X1550D01*
Y13037D01*
X2039D01*
X2035Y13072D01*
X2002Y13152D01*
X1949Y13220D01*
X1881Y13272D01*
X1802Y13305D01*
X1717Y13316D01*
D02*
G37*
G36*
X1450D02*
X1283D01*
X1198Y13305D01*
X1119Y13272D01*
X1051Y13220D01*
X998Y13152D01*
X965Y13072D01*
X961Y13037D01*
X1450D01*
Y13316D01*
D02*
G37*
G36*
X5000Y14114D02*
X4918Y14098D01*
X4849Y14051D01*
X4802Y13982D01*
X4786Y13900D01*
X4802Y13818D01*
X4849Y13749D01*
X4918Y13702D01*
X5000Y13686D01*
X5082Y13702D01*
X5151Y13749D01*
X5171Y13778D01*
X7323D01*
X7338Y13728D01*
X7299Y13701D01*
X7252Y13632D01*
X7236Y13550D01*
X7252Y13468D01*
X7299Y13399D01*
X7368Y13352D01*
X7450Y13336D01*
X7484Y13343D01*
X7663Y13163D01*
X7703Y13137D01*
X7750Y13128D01*
X8789D01*
X8809Y13099D01*
X8878Y13052D01*
X8960Y13036D01*
X9042Y13052D01*
X9111Y13099D01*
X9158Y13168D01*
X9174Y13250D01*
X9158Y13332D01*
X9111Y13401D01*
X9042Y13448D01*
X8960Y13464D01*
X8878Y13448D01*
X8809Y13401D01*
X8789Y13372D01*
X8505D01*
X8505Y13374D01*
X8494Y13422D01*
X8538Y13488D01*
X8554Y13570D01*
X8538Y13652D01*
X8491Y13721D01*
X8422Y13768D01*
X8340Y13784D01*
X8258Y13768D01*
X8189Y13721D01*
X8169Y13692D01*
X7961D01*
X7667Y13987D01*
X7627Y14013D01*
X7580Y14022D01*
X5171D01*
X5151Y14051D01*
X5082Y14098D01*
X5000Y14114D01*
D02*
G37*
G36*
X2039Y12937D02*
X1550D01*
Y12658D01*
X1717D01*
X1802Y12669D01*
X1881Y12702D01*
X1949Y12754D01*
X2002Y12822D01*
X2035Y12902D01*
X2039Y12937D01*
D02*
G37*
G36*
X1450D02*
X961D01*
X965Y12902D01*
X998Y12822D01*
X1051Y12754D01*
X1119Y12702D01*
X1198Y12669D01*
X1283Y12658D01*
X1450D01*
Y12937D01*
D02*
G37*
G36*
X28200Y12835D02*
Y12650D01*
X28385D01*
X28376Y12694D01*
X28323Y12773D01*
X28244Y12826D01*
X28200Y12835D01*
D02*
G37*
G36*
X28100D02*
X28056Y12826D01*
X27977Y12773D01*
X27924Y12694D01*
X27915Y12650D01*
X28100D01*
Y12835D01*
D02*
G37*
G36*
X6210Y12805D02*
Y12620D01*
X6395D01*
X6386Y12664D01*
X6333Y12743D01*
X6254Y12796D01*
X6210Y12805D01*
D02*
G37*
G36*
X6110D02*
X6066Y12796D01*
X5987Y12743D01*
X5934Y12664D01*
X5925Y12620D01*
X6110D01*
Y12805D01*
D02*
G37*
G36*
X45400Y13224D02*
Y12500D01*
X46124D01*
X46114Y12602D01*
X46069Y12748D01*
X45998Y12883D01*
X45901Y13001D01*
X45783Y13098D01*
X45648Y13169D01*
X45502Y13214D01*
X45400Y13224D01*
D02*
G37*
G36*
X45300D02*
X45198Y13214D01*
X45052Y13169D01*
X44917Y13098D01*
X44799Y13001D01*
X44702Y12883D01*
X44631Y12748D01*
X44586Y12602D01*
X44576Y12500D01*
X45300D01*
Y13224D01*
D02*
G37*
G36*
X40200D02*
Y12500D01*
X40924D01*
X40914Y12602D01*
X40869Y12748D01*
X40798Y12883D01*
X40701Y13001D01*
X40583Y13098D01*
X40448Y13169D01*
X40302Y13214D01*
X40200Y13224D01*
D02*
G37*
G36*
X40100D02*
X39998Y13214D01*
X39852Y13169D01*
X39717Y13098D01*
X39599Y13001D01*
X39502Y12883D01*
X39431Y12748D01*
X39386Y12602D01*
X39376Y12500D01*
X40100D01*
Y13224D01*
D02*
G37*
G36*
X49900Y16574D02*
X49629Y16557D01*
X49363Y16504D01*
X49106Y16417D01*
X48863Y16297D01*
X48637Y16146D01*
X48433Y15967D01*
X48254Y15763D01*
X48103Y15537D01*
X47983Y15294D01*
X47896Y15037D01*
X47843Y14771D01*
X47826Y14500D01*
X47843Y14229D01*
X47896Y13963D01*
X47983Y13706D01*
X48103Y13463D01*
X48254Y13237D01*
X48433Y13033D01*
X48637Y12854D01*
X48863Y12703D01*
X49106Y12583D01*
X49363Y12496D01*
X49629Y12443D01*
X49900Y12426D01*
X50171Y12443D01*
X50437Y12496D01*
X50694Y12583D01*
X50937Y12703D01*
X51163Y12854D01*
X51367Y13033D01*
X51546Y13237D01*
X51697Y13463D01*
X51817Y13706D01*
X51904Y13963D01*
X51957Y14229D01*
X51974Y14500D01*
X51957Y14771D01*
X51904Y15037D01*
X51817Y15294D01*
X51697Y15537D01*
X51546Y15763D01*
X51367Y15967D01*
X51163Y16146D01*
X50937Y16297D01*
X50694Y16417D01*
X50437Y16504D01*
X50171Y16557D01*
X49900Y16574D01*
D02*
G37*
G36*
X24900Y16964D02*
X24818Y16948D01*
X24749Y16901D01*
X24702Y16832D01*
X24686Y16750D01*
X24702Y16668D01*
X24749Y16599D01*
X24778Y16579D01*
Y13150D01*
X24787Y13103D01*
X24813Y13063D01*
X25243Y12634D01*
X25236Y12600D01*
X25252Y12518D01*
X25299Y12449D01*
X25368Y12402D01*
X25450Y12386D01*
X25532Y12402D01*
X25601Y12449D01*
X25648Y12518D01*
X25664Y12600D01*
X25648Y12682D01*
X25601Y12751D01*
X25532Y12798D01*
X25450Y12814D01*
X25416Y12807D01*
X25022Y13201D01*
Y16579D01*
X25051Y16599D01*
X25098Y16668D01*
X25114Y16750D01*
X25098Y16832D01*
X25051Y16901D01*
X24982Y16948D01*
X24900Y16964D01*
D02*
G37*
G36*
X28385Y12550D02*
X28200D01*
Y12365D01*
X28244Y12374D01*
X28323Y12427D01*
X28376Y12506D01*
X28385Y12550D01*
D02*
G37*
G36*
X28100D02*
X27915D01*
X27924Y12506D01*
X27977Y12427D01*
X28056Y12374D01*
X28100Y12365D01*
Y12550D01*
D02*
G37*
G36*
X6395Y12520D02*
X6210D01*
Y12335D01*
X6254Y12344D01*
X6333Y12397D01*
X6386Y12476D01*
X6395Y12520D01*
D02*
G37*
G36*
X6110D02*
X5925D01*
X5934Y12476D01*
X5987Y12397D01*
X6066Y12344D01*
X6110Y12335D01*
Y12520D01*
D02*
G37*
G36*
X3499Y12503D02*
Y12230D01*
X3771D01*
X3767Y12265D01*
X3734Y12345D01*
X3682Y12413D01*
X3613Y12465D01*
X3534Y12498D01*
X3499Y12503D01*
D02*
G37*
G36*
X3399D02*
X3364Y12498D01*
X3284Y12465D01*
X3216Y12413D01*
X3164Y12345D01*
X3131Y12265D01*
X3120Y12180D01*
X3121Y12172D01*
X3075Y12137D01*
X3034Y12154D01*
X2957Y12164D01*
X2879Y12154D01*
X2807Y12124D01*
X2745Y12076D01*
X2698Y12014D01*
X2668Y11942D01*
X2658Y11865D01*
X2668Y11788D01*
X2698Y11715D01*
X2745Y11654D01*
X2807Y11606D01*
X2879Y11576D01*
X2887Y11575D01*
Y11525D01*
X2879Y11524D01*
X2807Y11494D01*
X2745Y11446D01*
X2698Y11385D01*
X2668Y11312D01*
X2658Y11235D01*
X2668Y11158D01*
X2698Y11086D01*
X2745Y11024D01*
X2807Y10976D01*
X2879Y10946D01*
X2957Y10936D01*
X3034Y10946D01*
X3106Y10976D01*
X3107Y10977D01*
X3154Y10950D01*
X3150Y10920D01*
X3160Y10843D01*
X3190Y10771D01*
X3237Y10709D01*
X3299Y10661D01*
X3371Y10631D01*
X3449Y10621D01*
X3526Y10631D01*
X3598Y10661D01*
X3660Y10709D01*
X3708Y10771D01*
X3738Y10843D01*
X3748Y10920D01*
X3738Y10997D01*
X3708Y11070D01*
X3660Y11131D01*
X3598Y11179D01*
X3526Y11209D01*
X3519Y11210D01*
Y11260D01*
X3526Y11261D01*
X3598Y11291D01*
X3660Y11339D01*
X3708Y11401D01*
X3738Y11473D01*
X3748Y11550D01*
X3738Y11627D01*
X3708Y11699D01*
X3660Y11761D01*
X3598Y11809D01*
X3567Y11822D01*
Y11876D01*
X3613Y11895D01*
X3682Y11947D01*
X3734Y12015D01*
X3767Y12095D01*
X3771Y12130D01*
X3449D01*
Y12180D01*
X3399D01*
Y12503D01*
D02*
G37*
G36*
X23050Y11985D02*
Y11800D01*
X23235D01*
X23226Y11844D01*
X23173Y11923D01*
X23094Y11976D01*
X23050Y11985D01*
D02*
G37*
G36*
X22950D02*
X22906Y11976D01*
X22827Y11923D01*
X22774Y11844D01*
X22765Y11800D01*
X22950D01*
Y11985D01*
D02*
G37*
G36*
X46124Y12400D02*
X45400D01*
Y11676D01*
X45502Y11686D01*
X45648Y11731D01*
X45783Y11802D01*
X45901Y11899D01*
X45998Y12017D01*
X46069Y12152D01*
X46114Y12298D01*
X46124Y12400D01*
D02*
G37*
G36*
X45300D02*
X44576D01*
X44586Y12298D01*
X44631Y12152D01*
X44702Y12017D01*
X44799Y11899D01*
X44917Y11802D01*
X45052Y11731D01*
X45198Y11686D01*
X45300Y11676D01*
Y12400D01*
D02*
G37*
G36*
X40924D02*
X40200D01*
Y11676D01*
X40302Y11686D01*
X40448Y11731D01*
X40583Y11802D01*
X40701Y11899D01*
X40798Y12017D01*
X40869Y12152D01*
X40914Y12298D01*
X40924Y12400D01*
D02*
G37*
G36*
X40100D02*
X39376D01*
X39386Y12298D01*
X39431Y12152D01*
X39502Y12017D01*
X39599Y11899D01*
X39717Y11802D01*
X39852Y11731D01*
X39998Y11686D01*
X40100Y11676D01*
Y12400D01*
D02*
G37*
G36*
X23235Y11700D02*
X23050D01*
Y11515D01*
X23094Y11524D01*
X23173Y11577D01*
X23226Y11656D01*
X23235Y11700D01*
D02*
G37*
G36*
X22950D02*
X22765D01*
X22774Y11656D01*
X22827Y11577D01*
X22906Y11524D01*
X22950Y11515D01*
Y11700D01*
D02*
G37*
G36*
X48080Y11980D02*
X47320D01*
Y11220D01*
X48080D01*
Y11980D01*
D02*
G37*
G36*
X51700Y11983D02*
X51601Y11970D01*
X51508Y11932D01*
X51429Y11871D01*
X51368Y11792D01*
X51330Y11699D01*
X51317Y11600D01*
X51330Y11501D01*
X51368Y11408D01*
X51429Y11329D01*
X51508Y11268D01*
X51601Y11230D01*
X51700Y11217D01*
X51799Y11230D01*
X51892Y11268D01*
X51971Y11329D01*
X52032Y11408D01*
X52070Y11501D01*
X52083Y11600D01*
X52070Y11699D01*
X52032Y11792D01*
X51971Y11871D01*
X51892Y11932D01*
X51799Y11970D01*
X51700Y11983D01*
D02*
G37*
G36*
X50700D02*
X50601Y11970D01*
X50508Y11932D01*
X50429Y11871D01*
X50368Y11792D01*
X50330Y11699D01*
X50317Y11600D01*
X50330Y11501D01*
X50368Y11408D01*
X50429Y11329D01*
X50508Y11268D01*
X50601Y11230D01*
X50700Y11217D01*
X50799Y11230D01*
X50892Y11268D01*
X50971Y11329D01*
X51032Y11408D01*
X51070Y11501D01*
X51083Y11600D01*
X51070Y11699D01*
X51032Y11792D01*
X50971Y11871D01*
X50892Y11932D01*
X50799Y11970D01*
X50700Y11983D01*
D02*
G37*
G36*
X49700D02*
X49601Y11970D01*
X49508Y11932D01*
X49429Y11871D01*
X49368Y11792D01*
X49330Y11699D01*
X49317Y11600D01*
X49330Y11501D01*
X49368Y11408D01*
X49429Y11329D01*
X49508Y11268D01*
X49601Y11230D01*
X49700Y11217D01*
X49799Y11230D01*
X49892Y11268D01*
X49971Y11329D01*
X50032Y11408D01*
X50070Y11501D01*
X50083Y11600D01*
X50070Y11699D01*
X50032Y11792D01*
X49971Y11871D01*
X49892Y11932D01*
X49799Y11970D01*
X49700Y11983D01*
D02*
G37*
G36*
X48700D02*
X48601Y11970D01*
X48508Y11932D01*
X48429Y11871D01*
X48368Y11792D01*
X48330Y11699D01*
X48317Y11600D01*
X48330Y11501D01*
X48368Y11408D01*
X48429Y11329D01*
X48508Y11268D01*
X48601Y11230D01*
X48700Y11217D01*
X48799Y11230D01*
X48892Y11268D01*
X48971Y11329D01*
X49032Y11408D01*
X49070Y11501D01*
X49083Y11600D01*
X49070Y11699D01*
X49032Y11792D01*
X48971Y11871D01*
X48892Y11932D01*
X48799Y11970D01*
X48700Y11983D01*
D02*
G37*
G36*
X6620Y11045D02*
Y10860D01*
X6805D01*
X6796Y10904D01*
X6743Y10983D01*
X6664Y11036D01*
X6620Y11045D01*
D02*
G37*
G36*
X6520D02*
X6476Y11036D01*
X6397Y10983D01*
X6344Y10904D01*
X6335Y10860D01*
X6520D01*
Y11045D01*
D02*
G37*
G36*
X7427Y10882D02*
X7408Y10879D01*
X7349Y10839D01*
X7345Y10834D01*
X7295D01*
X7291Y10839D01*
X7232Y10879D01*
X7213Y10882D01*
Y10710D01*
Y10538D01*
X7232Y10542D01*
X7289Y10580D01*
X7303Y10587D01*
X7337D01*
X7351Y10580D01*
X7408Y10542D01*
X7427Y10538D01*
Y10710D01*
Y10882D01*
D02*
G37*
G36*
X7527D02*
Y10760D01*
X7650D01*
X7646Y10780D01*
X7606Y10839D01*
X7547Y10879D01*
X7527Y10882D01*
D02*
G37*
G36*
X7113D02*
X7093Y10879D01*
X7034Y10839D01*
X6994Y10780D01*
X6990Y10760D01*
X7113D01*
Y10882D01*
D02*
G37*
G36*
X6805Y10760D02*
X6620D01*
Y10575D01*
X6664Y10584D01*
X6743Y10637D01*
X6796Y10716D01*
X6805Y10760D01*
D02*
G37*
G36*
X6520D02*
X6335D01*
X6344Y10716D01*
X6397Y10637D01*
X6476Y10584D01*
X6520Y10575D01*
Y10760D01*
D02*
G37*
G36*
X7650Y10660D02*
X7527D01*
Y10538D01*
X7547Y10542D01*
X7606Y10581D01*
X7646Y10640D01*
X7650Y10660D01*
D02*
G37*
G36*
X7113D02*
X6990D01*
X6994Y10640D01*
X7034Y10581D01*
X7093Y10542D01*
X7113Y10538D01*
Y10660D01*
D02*
G37*
G36*
X51700Y10983D02*
X51601Y10970D01*
X51508Y10932D01*
X51429Y10871D01*
X51368Y10792D01*
X51330Y10699D01*
X51317Y10600D01*
X51330Y10501D01*
X51368Y10408D01*
X51429Y10329D01*
X51508Y10268D01*
X51601Y10230D01*
X51700Y10217D01*
X51799Y10230D01*
X51892Y10268D01*
X51971Y10329D01*
X52032Y10408D01*
X52070Y10501D01*
X52083Y10600D01*
X52070Y10699D01*
X52032Y10792D01*
X51971Y10871D01*
X51892Y10932D01*
X51799Y10970D01*
X51700Y10983D01*
D02*
G37*
G36*
X50700D02*
X50601Y10970D01*
X50508Y10932D01*
X50429Y10871D01*
X50368Y10792D01*
X50330Y10699D01*
X50317Y10600D01*
X50330Y10501D01*
X50368Y10408D01*
X50429Y10329D01*
X50508Y10268D01*
X50601Y10230D01*
X50700Y10217D01*
X50799Y10230D01*
X50892Y10268D01*
X50971Y10329D01*
X51032Y10408D01*
X51070Y10501D01*
X51083Y10600D01*
X51070Y10699D01*
X51032Y10792D01*
X50971Y10871D01*
X50892Y10932D01*
X50799Y10970D01*
X50700Y10983D01*
D02*
G37*
G36*
X49700D02*
X49601Y10970D01*
X49508Y10932D01*
X49429Y10871D01*
X49368Y10792D01*
X49330Y10699D01*
X49317Y10600D01*
X49330Y10501D01*
X49368Y10408D01*
X49429Y10329D01*
X49508Y10268D01*
X49601Y10230D01*
X49700Y10217D01*
X49799Y10230D01*
X49892Y10268D01*
X49971Y10329D01*
X50032Y10408D01*
X50070Y10501D01*
X50083Y10600D01*
X50070Y10699D01*
X50032Y10792D01*
X49971Y10871D01*
X49892Y10932D01*
X49799Y10970D01*
X49700Y10983D01*
D02*
G37*
G36*
X48700D02*
X48601Y10970D01*
X48508Y10932D01*
X48429Y10871D01*
X48368Y10792D01*
X48330Y10699D01*
X48317Y10600D01*
X48330Y10501D01*
X48368Y10408D01*
X48429Y10329D01*
X48508Y10268D01*
X48601Y10230D01*
X48700Y10217D01*
X48799Y10230D01*
X48892Y10268D01*
X48971Y10329D01*
X49032Y10408D01*
X49070Y10501D01*
X49083Y10600D01*
X49070Y10699D01*
X49032Y10792D01*
X48971Y10871D01*
X48892Y10932D01*
X48799Y10970D01*
X48700Y10983D01*
D02*
G37*
G36*
X47700D02*
X47601Y10970D01*
X47508Y10932D01*
X47429Y10871D01*
X47368Y10792D01*
X47330Y10699D01*
X47317Y10600D01*
X47330Y10501D01*
X47368Y10408D01*
X47429Y10329D01*
X47508Y10268D01*
X47601Y10230D01*
X47700Y10217D01*
X47799Y10230D01*
X47892Y10268D01*
X47971Y10329D01*
X48032Y10408D01*
X48070Y10501D01*
X48083Y10600D01*
X48070Y10699D01*
X48032Y10792D01*
X47971Y10871D01*
X47892Y10932D01*
X47799Y10970D01*
X47700Y10983D01*
D02*
G37*
G36*
X1717Y10442D02*
X1550D01*
Y10163D01*
X2039D01*
X2035Y10198D01*
X2002Y10278D01*
X1949Y10346D01*
X1881Y10398D01*
X1802Y10431D01*
X1717Y10442D01*
D02*
G37*
G36*
X1450D02*
X1283D01*
X1198Y10431D01*
X1119Y10398D01*
X1051Y10346D01*
X998Y10278D01*
X965Y10198D01*
X961Y10163D01*
X1450D01*
Y10442D01*
D02*
G37*
G36*
X42800Y10272D02*
Y9900D01*
X43172D01*
X43164Y9961D01*
X43121Y10064D01*
X43053Y10153D01*
X42964Y10221D01*
X42861Y10264D01*
X42800Y10272D01*
D02*
G37*
G36*
X42700D02*
X42639Y10264D01*
X42536Y10221D01*
X42447Y10153D01*
X42379Y10064D01*
X42336Y9961D01*
X42328Y9900D01*
X42700D01*
Y10272D01*
D02*
G37*
G36*
X7650Y10005D02*
X7606Y9996D01*
X7527Y9943D01*
X7474Y9864D01*
X7465Y9820D01*
X7650D01*
Y10005D01*
D02*
G37*
G36*
X2039Y10063D02*
X1550D01*
Y9784D01*
X1717D01*
X1802Y9795D01*
X1881Y9828D01*
X1949Y9880D01*
X2002Y9948D01*
X2035Y10028D01*
X2039Y10063D01*
D02*
G37*
G36*
X41775Y10223D02*
X41725D01*
X41628Y10210D01*
X41538Y10173D01*
X41461Y10114D01*
X41402Y10037D01*
X41365Y9947D01*
X41352Y9850D01*
X41365Y9753D01*
X41402Y9663D01*
X41461Y9586D01*
X41538Y9527D01*
X41628Y9490D01*
X41725Y9477D01*
X41775D01*
X41872Y9490D01*
X41962Y9527D01*
X42039Y9586D01*
X42098Y9663D01*
X42135Y9753D01*
X42148Y9850D01*
X42135Y9947D01*
X42098Y10037D01*
X42039Y10114D01*
X41962Y10173D01*
X41872Y10210D01*
X41775Y10223D01*
D02*
G37*
G36*
X43750Y10248D02*
X43647Y10235D01*
X43551Y10195D01*
X43468Y10132D01*
X43405Y10049D01*
X43365Y9953D01*
X43352Y9850D01*
X43365Y9747D01*
X43405Y9651D01*
X43468Y9568D01*
X43551Y9505D01*
X43647Y9465D01*
X43750Y9452D01*
X43853Y9465D01*
X43949Y9505D01*
X44032Y9568D01*
X44095Y9651D01*
X44135Y9747D01*
X44148Y9850D01*
X44135Y9953D01*
X44095Y10049D01*
X44032Y10132D01*
X43949Y10195D01*
X43853Y10235D01*
X43750Y10248D01*
D02*
G37*
G36*
X1450Y10063D02*
X961D01*
X965Y10028D01*
X998Y9948D01*
X1022Y9917D01*
X1017Y9908D01*
Y9219D01*
X1666D01*
X1657Y9306D01*
X1617Y9438D01*
X1552Y9560D01*
X1465Y9666D01*
X1382Y9734D01*
X1400Y9784D01*
X1450D01*
Y10063D01*
D02*
G37*
G36*
X917Y9867D02*
X830Y9859D01*
X698Y9819D01*
X577Y9754D01*
X470Y9666D01*
X382Y9560D01*
X317Y9438D01*
X277Y9306D01*
X269Y9219D01*
X917D01*
Y9867D01*
D02*
G37*
G36*
X15200Y10072D02*
X13850D01*
X13803Y10063D01*
X13763Y10037D01*
X13737Y9997D01*
X13728Y9950D01*
X13737Y9903D01*
X13763Y9863D01*
X13803Y9837D01*
X13850Y9828D01*
X14879D01*
X14900Y9778D01*
X14775Y9653D01*
Y9308D01*
X14948Y9135D01*
X15293D01*
X15465Y9308D01*
Y9653D01*
X15303Y9814D01*
X15293Y9844D01*
X15294Y9874D01*
X15313Y9903D01*
X15322Y9950D01*
X15313Y9997D01*
X15287Y10037D01*
X15247Y10063D01*
X15200Y10072D01*
D02*
G37*
G36*
X25400Y15964D02*
X25318Y15948D01*
X25249Y15901D01*
X25202Y15832D01*
X25186Y15750D01*
X25202Y15668D01*
X25249Y15599D01*
X25318Y15552D01*
X25400Y15536D01*
X25482Y15552D01*
X25551Y15599D01*
X25571Y15628D01*
X30049D01*
X36513Y9163D01*
X36553Y9137D01*
X36600Y9128D01*
X45379D01*
X45399Y9099D01*
X45468Y9052D01*
X45550Y9036D01*
X45632Y9052D01*
X45701Y9099D01*
X45748Y9168D01*
X45764Y9250D01*
X45748Y9332D01*
X45701Y9401D01*
X45632Y9448D01*
X45550Y9464D01*
X45468Y9448D01*
X45399Y9401D01*
X45379Y9372D01*
X42761D01*
X42758Y9422D01*
X42790Y9427D01*
X42861Y9436D01*
X42964Y9479D01*
X43053Y9547D01*
X43121Y9636D01*
X43164Y9739D01*
X43172Y9800D01*
X42328D01*
X42336Y9739D01*
X42379Y9636D01*
X42447Y9547D01*
X42536Y9479D01*
X42639Y9436D01*
X42710Y9427D01*
X42742Y9422D01*
X42739Y9372D01*
X36651D01*
X30187Y15837D01*
X30147Y15863D01*
X30100Y15872D01*
X25571D01*
X25551Y15901D01*
X25482Y15948D01*
X25400Y15964D01*
D02*
G37*
G36*
X34070Y9369D02*
Y8720D01*
X34718D01*
X34710Y8808D01*
X34670Y8940D01*
X34605Y9061D01*
X34517Y9168D01*
X34411Y9255D01*
X34289Y9320D01*
X34157Y9360D01*
X34070Y9369D01*
D02*
G37*
G36*
X33970D02*
X33883Y9360D01*
X33751Y9320D01*
X33629Y9255D01*
X33523Y9168D01*
X33435Y9061D01*
X33370Y8940D01*
X33330Y8808D01*
X33322Y8720D01*
X33970D01*
Y9369D01*
D02*
G37*
G36*
X1666Y9119D02*
X1017D01*
Y8470D01*
X1105Y8479D01*
X1236Y8519D01*
X1358Y8584D01*
X1465Y8671D01*
X1552Y8778D01*
X1617Y8900D01*
X1657Y9032D01*
X1666Y9119D01*
D02*
G37*
G36*
X917D02*
X269D01*
X277Y9032D01*
X317Y8900D01*
X382Y8778D01*
X470Y8671D01*
X577Y8584D01*
X698Y8519D01*
X830Y8479D01*
X917Y8470D01*
Y9119D01*
D02*
G37*
G36*
X29410Y11514D02*
X29328Y11498D01*
X29259Y11451D01*
X29212Y11382D01*
X29196Y11300D01*
X29212Y11218D01*
X29259Y11149D01*
X29288Y11129D01*
Y8740D01*
X29297Y8693D01*
X29323Y8653D01*
X29551Y8426D01*
X29549Y8401D01*
X29502Y8332D01*
X29486Y8250D01*
X29502Y8168D01*
X29549Y8099D01*
X29618Y8052D01*
X29700Y8036D01*
X29782Y8052D01*
X29851Y8099D01*
X29898Y8168D01*
X29914Y8250D01*
X29898Y8332D01*
X29851Y8401D01*
X29822Y8421D01*
Y8450D01*
X29813Y8497D01*
X29787Y8537D01*
X29532Y8791D01*
Y11129D01*
X29561Y11149D01*
X29608Y11218D01*
X29624Y11300D01*
X29608Y11382D01*
X29561Y11451D01*
X29492Y11498D01*
X29410Y11514D01*
D02*
G37*
G36*
X34718Y8620D02*
X34070D01*
Y7972D01*
X34157Y7980D01*
X34289Y8021D01*
X34411Y8086D01*
X34517Y8173D01*
X34605Y8280D01*
X34670Y8401D01*
X34710Y8533D01*
X34718Y8620D01*
D02*
G37*
G36*
X33970D02*
X33322D01*
X33330Y8533D01*
X33370Y8401D01*
X33435Y8280D01*
X33523Y8173D01*
X33629Y8086D01*
X33751Y8021D01*
X33883Y7980D01*
X33970Y7972D01*
Y8620D01*
D02*
G37*
G36*
X7700Y7735D02*
Y7550D01*
X7885D01*
X7876Y7594D01*
X7823Y7673D01*
X7744Y7726D01*
X7700Y7735D01*
D02*
G37*
G36*
X7600D02*
X7556Y7726D01*
X7477Y7673D01*
X7424Y7594D01*
X7415Y7550D01*
X7600D01*
Y7735D01*
D02*
G37*
G36*
X7885Y7450D02*
X7700D01*
Y7265D01*
X7744Y7274D01*
X7823Y7327D01*
X7876Y7406D01*
X7885Y7450D01*
D02*
G37*
G36*
X7600D02*
X7415D01*
X7424Y7406D01*
X7477Y7327D01*
X7556Y7274D01*
X7600Y7265D01*
Y7450D01*
D02*
G37*
G36*
X4648Y6968D02*
X4305D01*
Y6520D01*
X5140D01*
X5129Y6599D01*
X5080Y6719D01*
X5000Y6822D01*
X4897Y6901D01*
X4777Y6951D01*
X4648Y6968D01*
D02*
G37*
G36*
X4205D02*
X3861D01*
X3732Y6951D01*
X3612Y6901D01*
X3509Y6822D01*
X3430Y6719D01*
X3380Y6599D01*
X3370Y6520D01*
X4205D01*
Y6968D01*
D02*
G37*
G36*
X5140Y6420D02*
X4305D01*
Y5972D01*
X4648D01*
X4777Y5989D01*
X4897Y6039D01*
X5000Y6118D01*
X5080Y6221D01*
X5129Y6341D01*
X5140Y6420D01*
D02*
G37*
G36*
X4205D02*
X3370D01*
X3380Y6341D01*
X3430Y6221D01*
X3509Y6118D01*
X3612Y6039D01*
X3732Y5989D01*
X3861Y5972D01*
X4205D01*
Y6420D01*
D02*
G37*
G36*
X14898Y5787D02*
X14364D01*
Y5643D01*
X14314Y5633D01*
X14301Y5651D01*
X14232Y5698D01*
X14150Y5714D01*
X14068Y5698D01*
X13999Y5651D01*
X13952Y5582D01*
X13936Y5500D01*
X13952Y5418D01*
X13999Y5349D01*
X14068Y5302D01*
X14150Y5286D01*
X14232Y5302D01*
X14301Y5349D01*
X14314Y5367D01*
X14364Y5357D01*
Y5213D01*
X14898D01*
Y5787D01*
D02*
G37*
G36*
X42767Y5737D02*
X42233D01*
Y5593D01*
X42183Y5583D01*
X42171Y5601D01*
X42101Y5648D01*
X42019Y5664D01*
X41937Y5648D01*
X41868Y5601D01*
X41821Y5532D01*
X41805Y5450D01*
X41821Y5368D01*
X41868Y5299D01*
X41937Y5252D01*
X42019Y5236D01*
X42101Y5252D01*
X42171Y5299D01*
X42183Y5317D01*
X42233Y5307D01*
Y5163D01*
X42767D01*
Y5737D01*
D02*
G37*
G36*
X15597Y5817D02*
X15350D01*
Y5550D01*
X15597D01*
Y5817D01*
D02*
G37*
G36*
X24550D02*
X24303D01*
Y5550D01*
X24550D01*
Y5817D01*
D02*
G37*
G36*
X15250D02*
X15003D01*
Y5550D01*
X15250D01*
Y5817D01*
D02*
G37*
G36*
X43466Y5767D02*
X43219D01*
Y5500D01*
X43466D01*
Y5767D01*
D02*
G37*
G36*
X32997D02*
X32750D01*
Y5500D01*
X32997D01*
Y5767D01*
D02*
G37*
G36*
X32650D02*
X32403D01*
Y5500D01*
X32650D01*
Y5767D01*
D02*
G37*
G36*
X43119D02*
X42872D01*
Y5500D01*
X43119D01*
Y5767D01*
D02*
G37*
G36*
X22800Y6214D02*
X22718Y6198D01*
X22649Y6151D01*
X22602Y6082D01*
X22586Y6000D01*
X22602Y5918D01*
X22649Y5849D01*
X22718Y5802D01*
X22800Y5786D01*
X22834Y5793D01*
X23213Y5413D01*
X23253Y5387D01*
X23300Y5378D01*
X23664D01*
Y5213D01*
X24198D01*
Y5787D01*
X23664D01*
Y5622D01*
X23351D01*
X23007Y5966D01*
X23014Y6000D01*
X22998Y6082D01*
X22951Y6151D01*
X22882Y6198D01*
X22800Y6214D01*
D02*
G37*
G36*
X24897Y5450D02*
X24650D01*
Y5183D01*
X24897D01*
Y5450D01*
D02*
G37*
G36*
X24550D02*
X24303D01*
Y5183D01*
X24550D01*
Y5450D01*
D02*
G37*
G36*
X15597D02*
X15350D01*
Y5183D01*
X15597D01*
Y5450D01*
D02*
G37*
G36*
X15250D02*
X15003D01*
Y5183D01*
X15250D01*
Y5450D01*
D02*
G37*
G36*
X32298Y5737D02*
X31764D01*
Y5572D01*
X31550D01*
X31503Y5563D01*
X31486Y5551D01*
X31468Y5548D01*
X31399Y5501D01*
X31352Y5432D01*
X31336Y5350D01*
X31352Y5268D01*
X31399Y5199D01*
X31468Y5152D01*
X31550Y5136D01*
X31632Y5152D01*
X31701Y5199D01*
X31714Y5217D01*
X31764Y5202D01*
Y5163D01*
X32298D01*
Y5737D01*
D02*
G37*
G36*
X43466Y5400D02*
X43219D01*
Y5133D01*
X43466D01*
Y5400D01*
D02*
G37*
G36*
X43119D02*
X42872D01*
Y5133D01*
X43119D01*
Y5400D01*
D02*
G37*
G36*
X32997D02*
X32750D01*
Y5133D01*
X32997D01*
Y5400D01*
D02*
G37*
G36*
X32650D02*
X32403D01*
Y5133D01*
X32650D01*
Y5400D01*
D02*
G37*
G36*
X49900Y9074D02*
X49629Y9057D01*
X49363Y9004D01*
X49106Y8917D01*
X48863Y8797D01*
X48637Y8646D01*
X48433Y8467D01*
X48254Y8263D01*
X48103Y8037D01*
X47983Y7794D01*
X47896Y7537D01*
X47843Y7271D01*
X47826Y7000D01*
X47843Y6729D01*
X47896Y6463D01*
X47983Y6206D01*
X48103Y5963D01*
X48254Y5737D01*
X48433Y5533D01*
X48637Y5354D01*
X48863Y5203D01*
X49106Y5083D01*
X49363Y4996D01*
X49629Y4943D01*
X49900Y4926D01*
X50171Y4943D01*
X50437Y4996D01*
X50694Y5083D01*
X50937Y5203D01*
X51163Y5354D01*
X51367Y5533D01*
X51546Y5737D01*
X51697Y5963D01*
X51817Y6206D01*
X51904Y6463D01*
X51957Y6729D01*
X51974Y7000D01*
X51957Y7271D01*
X51904Y7537D01*
X51817Y7794D01*
X51697Y8037D01*
X51546Y8263D01*
X51367Y8467D01*
X51163Y8646D01*
X50937Y8797D01*
X50694Y8917D01*
X50437Y9004D01*
X50171Y9057D01*
X49900Y9074D01*
D02*
G37*
G36*
X3124Y5465D02*
Y4630D01*
X3571D01*
Y4974D01*
X3555Y5103D01*
X3505Y5223D01*
X3426Y5326D01*
X3323Y5405D01*
X3202Y5455D01*
X3124Y5465D01*
D02*
G37*
G36*
X3024D02*
X2945Y5455D01*
X2825Y5405D01*
X2721Y5326D01*
X2642Y5223D01*
X2593Y5103D01*
X2576Y4974D01*
Y4630D01*
X3024D01*
Y5465D01*
D02*
G37*
G36*
X48950Y4535D02*
Y4350D01*
X49135D01*
X49126Y4394D01*
X49073Y4473D01*
X48994Y4526D01*
X48950Y4535D01*
D02*
G37*
G36*
X48850D02*
X48806Y4526D01*
X48727Y4473D01*
X48674Y4394D01*
X48665Y4350D01*
X48850D01*
Y4535D01*
D02*
G37*
G36*
X1420Y5008D02*
X1309Y4993D01*
X1206Y4951D01*
X1117Y4883D01*
X1049Y4794D01*
X1007Y4691D01*
X992Y4580D01*
X1007Y4469D01*
X1049Y4366D01*
X1117Y4277D01*
X1206Y4209D01*
X1309Y4167D01*
X1420Y4152D01*
X1531Y4167D01*
X1634Y4209D01*
X1723Y4277D01*
X1791Y4366D01*
X1833Y4469D01*
X1848Y4580D01*
X1833Y4691D01*
X1791Y4794D01*
X1723Y4883D01*
X1634Y4951D01*
X1531Y4993D01*
X1420Y5008D01*
D02*
G37*
G36*
X49135Y4250D02*
X48950D01*
Y4065D01*
X48994Y4074D01*
X49073Y4127D01*
X49126Y4206D01*
X49135Y4250D01*
D02*
G37*
G36*
X48850D02*
X48665D01*
X48674Y4206D01*
X48727Y4127D01*
X48806Y4074D01*
X48850Y4065D01*
Y4250D01*
D02*
G37*
G36*
X27438Y4375D02*
X27300D01*
Y4050D01*
X27625D01*
Y4187D01*
X27438Y4375D01*
D02*
G37*
G36*
X27200D02*
X27062D01*
X26875Y4187D01*
Y4050D01*
X27200D01*
Y4375D01*
D02*
G37*
G36*
X3571Y4530D02*
X3124D01*
Y3695D01*
X3202Y3705D01*
X3323Y3755D01*
X3426Y3834D01*
X3505Y3937D01*
X3555Y4057D01*
X3571Y4186D01*
Y4530D01*
D02*
G37*
G36*
X3024D02*
X2576D01*
Y4186D01*
X2593Y4057D01*
X2642Y3937D01*
X2721Y3834D01*
X2825Y3755D01*
X2945Y3705D01*
X3024Y3695D01*
Y4530D01*
D02*
G37*
G36*
X24640Y7874D02*
X24558Y7858D01*
X24489Y7811D01*
X24442Y7742D01*
X24426Y7660D01*
X24442Y7578D01*
X24489Y7509D01*
X24518Y7489D01*
Y6260D01*
X24527Y6213D01*
X24553Y6173D01*
X24860Y5867D01*
X24840Y5817D01*
X24650D01*
Y5550D01*
X24897D01*
Y5759D01*
X24947Y5780D01*
X25028Y5699D01*
Y4965D01*
X24987Y4936D01*
X24787Y5004D01*
X24521Y5057D01*
X24250Y5074D01*
X23979Y5057D01*
X23713Y5004D01*
X23456Y4917D01*
X23213Y4797D01*
X22987Y4646D01*
X22783Y4467D01*
X22604Y4263D01*
X22453Y4037D01*
X22333Y3794D01*
X22246Y3537D01*
X22193Y3271D01*
X22176Y3000D01*
X22193Y2729D01*
X22246Y2463D01*
X22333Y2206D01*
X22453Y1963D01*
X22604Y1737D01*
X22783Y1533D01*
X22987Y1354D01*
X23213Y1203D01*
X23456Y1083D01*
X23713Y996D01*
X23979Y943D01*
X24250Y926D01*
X24521Y943D01*
X24787Y996D01*
X25044Y1083D01*
X25287Y1203D01*
X25513Y1354D01*
X25717Y1533D01*
X25896Y1737D01*
X26047Y1963D01*
X26167Y2206D01*
X26254Y2463D01*
X26307Y2729D01*
X26324Y3000D01*
X26307Y3271D01*
X26254Y3537D01*
X26167Y3794D01*
X26047Y4037D01*
X25896Y4263D01*
X25717Y4467D01*
X25513Y4646D01*
X25287Y4797D01*
X25272Y4804D01*
Y5456D01*
X25322Y5483D01*
X25368Y5452D01*
X25450Y5436D01*
X25484Y5443D01*
X26201Y4726D01*
X26186Y4650D01*
X26202Y4568D01*
X26249Y4499D01*
X26318Y4452D01*
X26400Y4436D01*
X26482Y4452D01*
X26551Y4499D01*
X26598Y4568D01*
X26614Y4650D01*
X26598Y4732D01*
X26551Y4801D01*
X26482Y4848D01*
X26411Y4862D01*
X25657Y5616D01*
X25664Y5650D01*
X25654Y5703D01*
X25700Y5727D01*
X26613Y4813D01*
X26653Y4787D01*
X26700Y4778D01*
X28429D01*
X28970Y4237D01*
X28905Y4173D01*
Y3828D01*
X29077Y3655D01*
X29423D01*
X29595Y3828D01*
Y4173D01*
X29423Y4345D01*
X29208D01*
X28567Y4987D01*
X28527Y5013D01*
X28480Y5022D01*
X26751D01*
X25387Y6387D01*
X25347Y6413D01*
X25300Y6422D01*
X25221D01*
X25201Y6451D01*
X25132Y6498D01*
X25050Y6514D01*
X24968Y6498D01*
X24899Y6451D01*
X24852Y6382D01*
X24839Y6315D01*
X24793Y6293D01*
X24762Y6317D01*
Y7489D01*
X24791Y7509D01*
X24838Y7578D01*
X24854Y7660D01*
X24838Y7742D01*
X24791Y7811D01*
X24722Y7858D01*
X24640Y7874D01*
D02*
G37*
G36*
X28423Y4345D02*
X28077D01*
X27905Y4173D01*
Y3828D01*
X28077Y3655D01*
X28423D01*
X28595Y3828D01*
Y4173D01*
X28423Y4345D01*
D02*
G37*
G36*
X27625Y3950D02*
X27300D01*
Y3625D01*
X27438D01*
X27625Y3812D01*
Y3950D01*
D02*
G37*
G36*
X27200D02*
X26875D01*
Y3812D01*
X27062Y3625D01*
X27200D01*
Y3950D01*
D02*
G37*
G36*
X5436Y5540D02*
X5315Y5524D01*
X5202Y5477D01*
X5105Y5403D01*
X5031Y5306D01*
X4984Y5193D01*
X4968Y5072D01*
Y4088D01*
X4984Y3967D01*
X5031Y3854D01*
X5105Y3757D01*
X5202Y3683D01*
X5315Y3636D01*
X5436Y3620D01*
X5557Y3636D01*
X5670Y3683D01*
X5766Y3757D01*
X5841Y3854D01*
X5888Y3967D01*
X5903Y4088D01*
Y5072D01*
X5888Y5193D01*
X5841Y5306D01*
X5766Y5403D01*
X5670Y5477D01*
X5557Y5524D01*
X5436Y5540D01*
D02*
G37*
G36*
X26810Y2545D02*
Y2360D01*
X26995D01*
X26986Y2404D01*
X26933Y2483D01*
X26854Y2536D01*
X26810Y2545D01*
D02*
G37*
G36*
X26710D02*
X26666Y2536D01*
X26587Y2483D01*
X26534Y2404D01*
X26525Y2360D01*
X26710D01*
Y2545D01*
D02*
G37*
G36*
X15000Y5074D02*
X14729Y5057D01*
X14463Y5004D01*
X14206Y4917D01*
X13963Y4797D01*
X13737Y4646D01*
X13533Y4467D01*
X13354Y4263D01*
X13203Y4037D01*
X13083Y3794D01*
X12996Y3537D01*
X12943Y3271D01*
X12926Y3000D01*
X12943Y2729D01*
X12996Y2463D01*
X13083Y2206D01*
X13203Y1963D01*
X13354Y1737D01*
X13533Y1533D01*
X13737Y1354D01*
X13963Y1203D01*
X14206Y1083D01*
X14463Y996D01*
X14729Y943D01*
X15000Y926D01*
X15271Y943D01*
X15537Y996D01*
X15794Y1083D01*
X16037Y1203D01*
X16263Y1354D01*
X16467Y1533D01*
X16646Y1737D01*
X16797Y1963D01*
X16917Y2206D01*
X17004Y2463D01*
X17057Y2729D01*
X17064Y2842D01*
X17115Y2862D01*
X17713Y2263D01*
X17753Y2237D01*
X17800Y2228D01*
X17829D01*
X17849Y2199D01*
X17918Y2152D01*
X18000Y2136D01*
X18082Y2152D01*
X18151Y2199D01*
X18198Y2268D01*
X18214Y2350D01*
X18198Y2432D01*
X18151Y2501D01*
X18082Y2548D01*
X18000Y2564D01*
X17918Y2548D01*
X17849Y2501D01*
X17824Y2499D01*
X17237Y3087D01*
X17197Y3113D01*
X17150Y3122D01*
X17066D01*
X17057Y3271D01*
X17004Y3537D01*
X16917Y3794D01*
X16797Y4037D01*
X16665Y4234D01*
X16665Y4234D01*
X16646Y4263D01*
X16636Y4274D01*
X16467Y4467D01*
X16263Y4646D01*
X16037Y4797D01*
X15794Y4917D01*
X15537Y5004D01*
X15271Y5057D01*
X15000Y5074D01*
D02*
G37*
G36*
X26995Y2260D02*
X26810D01*
Y2075D01*
X26854Y2084D01*
X26933Y2137D01*
X26986Y2216D01*
X26995Y2260D01*
D02*
G37*
G36*
X26710D02*
X26525D01*
X26534Y2216D01*
X26587Y2137D01*
X26666Y2084D01*
X26710Y2075D01*
Y2260D01*
D02*
G37*
G36*
X30050Y2235D02*
Y2050D01*
X30235D01*
X30226Y2094D01*
X30173Y2173D01*
X30094Y2226D01*
X30050Y2235D01*
D02*
G37*
G36*
X29950D02*
X29906Y2226D01*
X29827Y2173D01*
X29774Y2094D01*
X29765Y2050D01*
X29950D01*
Y2235D01*
D02*
G37*
G36*
X30235Y1950D02*
X30050D01*
Y1765D01*
X30094Y1774D01*
X30173Y1827D01*
X30226Y1906D01*
X30235Y1950D01*
D02*
G37*
G36*
X29950D02*
X29765D01*
X29774Y1906D01*
X29827Y1827D01*
X29906Y1774D01*
X29950Y1765D01*
Y1950D01*
D02*
G37*
G36*
X13050Y1785D02*
Y1600D01*
X13235D01*
X13226Y1644D01*
X13173Y1723D01*
X13094Y1776D01*
X13050Y1785D01*
D02*
G37*
G36*
X12950D02*
X12906Y1776D01*
X12827Y1723D01*
X12774Y1644D01*
X12765Y1600D01*
X12950D01*
Y1785D01*
D02*
G37*
G36*
X40800Y1635D02*
Y1450D01*
X40985D01*
X40976Y1494D01*
X40923Y1573D01*
X40844Y1626D01*
X40800Y1635D01*
D02*
G37*
G36*
X40700D02*
X40656Y1626D01*
X40577Y1573D01*
X40524Y1494D01*
X40515Y1450D01*
X40700D01*
Y1635D01*
D02*
G37*
G36*
X13235Y1500D02*
X13050D01*
Y1315D01*
X13094Y1324D01*
X13173Y1377D01*
X13226Y1456D01*
X13235Y1500D01*
D02*
G37*
G36*
X12950D02*
X12765D01*
X12774Y1456D01*
X12827Y1377D01*
X12906Y1324D01*
X12950Y1315D01*
Y1500D01*
D02*
G37*
G36*
X40985Y1350D02*
X40800D01*
Y1165D01*
X40844Y1174D01*
X40923Y1227D01*
X40976Y1306D01*
X40985Y1350D01*
D02*
G37*
G36*
X40700D02*
X40515D01*
X40524Y1306D01*
X40577Y1227D01*
X40656Y1174D01*
X40700Y1165D01*
Y1350D01*
D02*
G37*
G36*
X48888Y1375D02*
X48750D01*
Y1050D01*
X49075D01*
Y1187D01*
X48888Y1375D01*
D02*
G37*
G36*
X48650D02*
X48513D01*
X48325Y1187D01*
Y1050D01*
X48650D01*
Y1375D01*
D02*
G37*
G36*
X3187D02*
X3050D01*
Y1050D01*
X3375D01*
Y1187D01*
X3187Y1375D01*
D02*
G37*
G36*
X2950D02*
X2812D01*
X2625Y1187D01*
Y1050D01*
X2950D01*
Y1375D01*
D02*
G37*
G36*
X24660Y8594D02*
X24578Y8578D01*
X24509Y8531D01*
X24462Y8462D01*
X24446Y8380D01*
X24462Y8298D01*
X24509Y8229D01*
X24578Y8182D01*
X24660Y8166D01*
X24694Y8173D01*
X27453Y5413D01*
X27493Y5387D01*
X27540Y5378D01*
X28817D01*
X30022Y4172D01*
X30062Y4146D01*
X30109Y4137D01*
X30617D01*
X30640Y4092D01*
X30603Y4037D01*
X30483Y3794D01*
X30396Y3537D01*
X30343Y3271D01*
X30326Y3000D01*
X30343Y2729D01*
X30396Y2463D01*
X30483Y2206D01*
X30603Y1963D01*
X30754Y1737D01*
X30933Y1533D01*
X31137Y1354D01*
X31363Y1203D01*
X31606Y1083D01*
X31863Y996D01*
X32129Y943D01*
X32400Y926D01*
X32671Y943D01*
X32937Y996D01*
X33194Y1083D01*
X33437Y1203D01*
X33663Y1354D01*
X33867Y1533D01*
X34046Y1737D01*
X34197Y1963D01*
X34317Y2206D01*
X34404Y2463D01*
X34457Y2729D01*
X34474Y3000D01*
X34457Y3271D01*
X34404Y3537D01*
X34317Y3794D01*
X34197Y4037D01*
X34046Y4263D01*
X33867Y4467D01*
X33663Y4646D01*
X33437Y4797D01*
X33194Y4917D01*
X32937Y5004D01*
X32671Y5057D01*
X32400Y5074D01*
X32129Y5057D01*
X31863Y5004D01*
X31606Y4917D01*
X31363Y4797D01*
X31137Y4646D01*
X30933Y4467D01*
X30858Y4381D01*
X30160D01*
X28954Y5587D01*
X28915Y5613D01*
X28868Y5622D01*
X27591D01*
X24867Y8346D01*
X24874Y8380D01*
X24858Y8462D01*
X24811Y8531D01*
X24742Y8578D01*
X24660Y8594D01*
D02*
G37*
G36*
X49075Y950D02*
X48750D01*
Y625D01*
X48888D01*
X49075Y812D01*
Y950D01*
D02*
G37*
G36*
X48650D02*
X48325D01*
Y812D01*
X48513Y625D01*
X48650D01*
Y950D01*
D02*
G37*
G36*
X3375Y950D02*
X3050D01*
Y625D01*
X3187D01*
X3375Y812D01*
Y950D01*
D02*
G37*
G36*
X2950D02*
X2625D01*
Y812D01*
X2812Y625D01*
X2950D01*
Y950D01*
D02*
G37*
%LPD*%
G36*
X12438Y22288D02*
Y20864D01*
X12394Y20840D01*
X12382Y20848D01*
X12300Y20864D01*
X12218Y20848D01*
X12172Y20817D01*
X12122Y20844D01*
Y22086D01*
X12147Y22089D01*
X12237Y22127D01*
X12314Y22186D01*
X12373Y22263D01*
X12388Y22298D01*
X12438Y22288D01*
D02*
G37*
G36*
X12749Y20299D02*
X12818Y20252D01*
X12900Y20236D01*
X12982Y20252D01*
X13043Y20293D01*
X13079Y20257D01*
X13042Y20202D01*
X13026Y20120D01*
X13042Y20038D01*
X13089Y19969D01*
X13158Y19922D01*
X13240Y19906D01*
X13322Y19922D01*
X13391Y19969D01*
X13411Y19998D01*
X13479D01*
X17766Y15711D01*
X17755Y15656D01*
X17752Y15654D01*
X17710Y15662D01*
X17337D01*
X17322Y15712D01*
X17361Y15739D01*
X17408Y15808D01*
X17424Y15890D01*
X17408Y15972D01*
X17361Y16041D01*
X17292Y16088D01*
X17210Y16104D01*
X17128Y16088D01*
X17059Y16041D01*
X17039Y16012D01*
X15721D01*
X15222Y16511D01*
Y17750D01*
X15213Y17797D01*
X15187Y17837D01*
X14437Y18587D01*
X14397Y18613D01*
X14350Y18622D01*
X13150D01*
X13103Y18613D01*
X13063Y18587D01*
X12684Y18207D01*
X12650Y18214D01*
X12568Y18198D01*
X12499Y18151D01*
X12452Y18082D01*
X12436Y18000D01*
X12452Y17918D01*
X12499Y17849D01*
X12568Y17802D01*
X12650Y17786D01*
X12732Y17802D01*
X12801Y17849D01*
X12848Y17918D01*
X12864Y18000D01*
X12857Y18034D01*
X13201Y18378D01*
X14006D01*
X14033Y18328D01*
X14002Y18282D01*
X13986Y18200D01*
X13993Y18166D01*
X13249Y17422D01*
X12871D01*
X12851Y17451D01*
X12782Y17498D01*
X12700Y17514D01*
X12618Y17498D01*
X12549Y17451D01*
X12502Y17382D01*
X12486Y17300D01*
X12502Y17218D01*
X12549Y17149D01*
X12618Y17102D01*
X12636Y17099D01*
X12653Y17087D01*
X12700Y17078D01*
X12747Y17087D01*
X12764Y17099D01*
X12782Y17102D01*
X12851Y17149D01*
X12871Y17178D01*
X13300D01*
X13342Y17186D01*
X13345Y17184D01*
X13356Y17129D01*
X12949Y16722D01*
X12721D01*
X12701Y16751D01*
X12632Y16798D01*
X12550Y16814D01*
X12468Y16798D01*
X12422Y16767D01*
X12372Y16794D01*
Y18199D01*
X12647Y18473D01*
X12673Y18513D01*
X12682Y18560D01*
Y19414D01*
X12732Y19429D01*
X12767Y19377D01*
X12846Y19324D01*
X12890Y19315D01*
Y19550D01*
Y19785D01*
X12846Y19776D01*
X12767Y19723D01*
X12732Y19671D01*
X12682Y19686D01*
Y20308D01*
X12732Y20323D01*
X12749Y20299D01*
D02*
G37*
G36*
X12218Y19552D02*
X12300Y19536D01*
X12382Y19552D01*
X12394Y19560D01*
X12438Y19536D01*
Y18611D01*
X12163Y18337D01*
X12117Y18358D01*
X12122Y18382D01*
Y19556D01*
X12172Y19583D01*
X12218Y19552D01*
D02*
G37*
G36*
X3258Y18019D02*
X3239Y17972D01*
X2211D01*
X2198Y18003D01*
X2197Y18022D01*
X2271Y18079D01*
X2332Y18158D01*
X2370Y18251D01*
X2383Y18350D01*
X2370Y18449D01*
X2332Y18542D01*
X2271Y18621D01*
X2197Y18678D01*
X2198Y18697D01*
X2211Y18728D01*
X2549D01*
X3258Y18019D01*
D02*
G37*
G36*
X18743Y17234D02*
X18736Y17200D01*
X18751Y17122D01*
X18749Y17120D01*
X18695Y17108D01*
X14967Y20837D01*
X14927Y20863D01*
X14880Y20872D01*
X13671D01*
X13668Y20878D01*
X13696Y20928D01*
X15049D01*
X18743Y17234D01*
D02*
G37*
G36*
X14080Y17504D02*
X14096Y17449D01*
X12670Y16022D01*
X12444D01*
X12417Y16072D01*
X12448Y16118D01*
X12464Y16200D01*
X12448Y16282D01*
X12401Y16351D01*
X12387Y16361D01*
X12388Y16401D01*
X12434Y16425D01*
X12468Y16402D01*
X12550Y16386D01*
X12632Y16402D01*
X12701Y16449D01*
X12721Y16478D01*
X13000D01*
X13047Y16487D01*
X13087Y16513D01*
X14078Y17505D01*
X14080Y17504D01*
D02*
G37*
G36*
X14756Y6553D02*
X14743Y6496D01*
X14739Y6495D01*
X14726Y6497D01*
X9519Y11704D01*
X9523Y11716D01*
X9578Y11731D01*
X14756Y6553D01*
D02*
G37*
%LPC*%
G36*
X12990Y19785D02*
Y19600D01*
X13175D01*
X13166Y19644D01*
X13113Y19723D01*
X13034Y19776D01*
X12990Y19785D01*
D02*
G37*
G36*
X13175Y19500D02*
X12990D01*
Y19315D01*
X13034Y19324D01*
X13113Y19377D01*
X13166Y19456D01*
X13175Y19500D01*
D02*
G37*
G36*
X1200Y1898D02*
X1074Y1886D01*
X952Y1849D01*
X840Y1789D01*
X742Y1708D01*
X661Y1610D01*
X601Y1498D01*
X564Y1376D01*
X552Y1250D01*
X564Y1124D01*
X601Y1002D01*
X661Y890D01*
X742Y792D01*
X840Y711D01*
X952Y651D01*
X1074Y614D01*
X1200Y602D01*
X1326Y614D01*
X1448Y651D01*
X1560Y711D01*
X1658Y792D01*
X1739Y890D01*
X1799Y1002D01*
X1836Y1124D01*
X1848Y1250D01*
X1836Y1376D01*
X1799Y1498D01*
X1739Y1610D01*
X1658Y1708D01*
X1560Y1789D01*
X1448Y1849D01*
X1326Y1886D01*
X1200Y1898D01*
D02*
G37*
G36*
X52450Y1848D02*
X52324Y1836D01*
X52202Y1799D01*
X52090Y1739D01*
X51992Y1658D01*
X51911Y1560D01*
X51851Y1448D01*
X51814Y1326D01*
X51802Y1200D01*
X51814Y1074D01*
X51851Y952D01*
X51911Y840D01*
X51992Y742D01*
X52090Y661D01*
X52202Y601D01*
X52324Y564D01*
X52450Y552D01*
X52576Y564D01*
X52698Y601D01*
X52810Y661D01*
X52908Y742D01*
X52989Y840D01*
X53049Y952D01*
X53086Y1074D01*
X53098Y1200D01*
X53086Y1326D01*
X53049Y1448D01*
X52989Y1560D01*
X52908Y1658D01*
X52810Y1739D01*
X52698Y1799D01*
X52576Y1836D01*
X52450Y1848D01*
D02*
G37*
%LPD*%
D10*
X27540Y5500D02*
X28868D01*
X24660Y8380D02*
X27540Y5500D01*
X24640Y6260D02*
Y7660D01*
Y6260D02*
X25150Y5750D01*
X13960Y13480D02*
Y13560D01*
X12890Y12410D02*
X13960Y13480D01*
X7590Y20260D02*
X10410D01*
X6600Y21250D02*
X7590Y20260D01*
X7470Y19920D02*
X10100D01*
X7200Y19650D02*
X7470Y19920D01*
X5650Y21700D02*
X6600Y22650D01*
X5450Y21700D02*
X5650D01*
X2100Y21250D02*
X6600D01*
X33730Y22580D02*
X36400D01*
X32210Y24100D02*
X33730Y22580D01*
X15100Y16460D02*
Y17750D01*
X14350Y18500D02*
X15100Y17750D01*
X13150Y18500D02*
X14350D01*
X13300Y17300D02*
X14200Y18200D01*
X12800Y17300D02*
X13300D01*
X13000Y16600D02*
X14150Y17750D01*
X12650Y16600D02*
X13000D01*
X7910Y13570D02*
X8340D01*
X7580Y13900D02*
X7910Y13570D01*
X5000Y13900D02*
X7580D01*
X11800Y6700D02*
X11900D01*
X7750Y13250D02*
X8960D01*
X7450Y13550D02*
X7750Y13250D01*
X17710Y15540D02*
X20200Y13050D01*
X16300Y15540D02*
X17710D01*
X15670Y15890D02*
X17210D01*
X15100Y16460D02*
X15670Y15890D01*
X14308Y15952D02*
Y15958D01*
X14670Y16320D01*
Y16810D01*
X15100Y21050D02*
X18950Y17200D01*
X13000Y21050D02*
X15100D01*
X23110Y12150D02*
X26350D01*
X14810Y20450D02*
X23110Y12150D01*
X12900Y20450D02*
X14810D01*
X18830Y16800D02*
X23050D01*
X14880Y20750D02*
X18830Y16800D01*
X13450Y20750D02*
X14880D01*
X25840Y18570D02*
X26790Y19520D01*
X28860Y19930D02*
X28940D01*
X27585Y18655D02*
X28860Y19930D01*
X27440Y18655D02*
X27585D01*
X30320Y20320D02*
X30510D01*
X28230Y18230D02*
X30320Y20320D01*
X29410Y8740D02*
X29700Y8450D01*
X29410Y8740D02*
Y11300D01*
X30200Y6950D02*
Y11100D01*
X29250Y12050D02*
X30200Y11100D01*
X11720Y10500D02*
Y10520D01*
X14240Y13040D01*
X12080Y11660D02*
Y13698D01*
X13232Y14850D01*
X12530Y11940D02*
Y13780D01*
X12968Y14218D01*
X12050Y22550D02*
Y23631D01*
Y22450D02*
Y22550D01*
X11050Y22750D02*
Y23631D01*
Y22584D02*
Y22750D01*
X27050Y22450D02*
Y23631D01*
X20747Y17733D02*
X20747Y17733D01*
X26050Y22450D02*
Y23631D01*
X25050Y22481D02*
Y23631D01*
X24050Y22450D02*
Y23631D01*
X23050Y22450D02*
Y23631D01*
X22050Y22568D02*
Y23631D01*
X21050Y22450D02*
Y23631D01*
X20050Y22615D02*
Y23631D01*
X19050Y22450D02*
Y23631D01*
X18050Y22450D02*
Y23631D01*
X17050Y22450D02*
Y23631D01*
X16050Y22584D02*
Y23631D01*
X15050Y22537D02*
Y23631D01*
X14050Y22537D02*
Y23631D01*
X13050Y22450D02*
Y23631D01*
X10050Y22481D02*
Y23631D01*
X9050Y22560D02*
Y23631D01*
X8050Y22552D02*
Y23631D01*
X10500Y21900D02*
X11500D01*
X9450Y20850D02*
X10500Y21900D01*
X26700Y4900D02*
X28480D01*
X29250Y4000D02*
Y4130D01*
X28480Y4900D02*
X29250Y4130D01*
X14240Y13040D02*
Y14170D01*
X17540Y12830D02*
X17580Y12790D01*
X20460D01*
X17250Y13120D02*
Y13700D01*
Y13120D02*
X17540Y12830D01*
X20460Y12790D02*
X22900Y10350D01*
X3840Y16210D02*
X5750Y14300D01*
X3840Y16210D02*
Y16240D01*
X13240Y20120D02*
X13530D01*
X18770Y15680D02*
X21162Y13288D01*
X18615Y15680D02*
X18770D01*
X12300Y19750D02*
Y20650D01*
X5000Y18650D02*
X5150Y18500D01*
X10650D01*
X21200Y5350D02*
X21850D01*
X20200Y6350D02*
X21200Y5350D01*
X14700Y6350D02*
X20200D01*
X9374Y11676D02*
X14700Y6350D01*
X20500Y6600D02*
X21075Y6025D01*
X14882Y6600D02*
X20500D01*
X9634Y11849D02*
X14882Y6600D01*
X22900Y10350D02*
X28300D01*
X28700Y10750D01*
X19420Y10080D02*
X24570D01*
X16700Y12800D02*
X19420Y10080D01*
X24570D02*
X28050Y6600D01*
X15500Y12800D02*
X16700D01*
X14150Y5500D02*
X14631D01*
X13530Y20120D02*
X22350Y11300D01*
X28250D01*
X3700Y16950D02*
X5640Y15010D01*
X7258D01*
X5310Y15900D02*
X7600D01*
X3360Y17850D02*
X5310Y15900D01*
X1500Y17850D02*
X3360D01*
X9374Y11676D02*
Y15576D01*
X9634Y11849D02*
Y15826D01*
X22800Y6000D02*
X23300Y5500D01*
X23931D01*
X25050Y6300D02*
X25300D01*
X26700Y4900D01*
X39550Y3000D02*
X41900D01*
X42900D01*
X36300Y6250D02*
X39550Y3000D01*
X31800Y6250D02*
X36300D01*
X39200Y6600D02*
X40350Y5450D01*
X28050Y6600D02*
X39200D01*
X28868Y5500D02*
X30109Y4259D01*
X25450Y5650D02*
X26400Y4700D01*
Y4650D02*
Y4700D01*
X25150Y3100D02*
Y5750D01*
Y3100D02*
X25250Y3000D01*
X17800Y2350D02*
X18000D01*
X17150Y3000D02*
X17800Y2350D01*
X16000Y3000D02*
X17150D01*
X15000D02*
X16000D01*
X14631Y5500D02*
Y5520D01*
X21162Y12938D02*
X21800Y12300D01*
X21162Y12938D02*
Y13288D01*
X6600Y22650D02*
X7750Y21500D01*
Y20600D02*
Y21500D01*
X6400Y19650D02*
X7200D01*
X6030Y20020D02*
X6400Y19650D01*
X7600Y19600D02*
X9350D01*
X7350Y19350D02*
X7600Y19600D01*
X2330Y20020D02*
X6030D01*
X2000Y20350D02*
X2330Y20020D01*
X2000Y21350D02*
X2100Y21250D01*
X12650Y18000D02*
X13150Y18500D01*
X12560Y18560D02*
Y23923D01*
X12250Y18250D02*
X12560Y18560D01*
X12250Y16200D02*
Y18250D01*
X12000Y18382D02*
Y22400D01*
X10400Y16782D02*
X12000Y18382D01*
X10400Y16562D02*
Y16782D01*
X12333Y24150D02*
X12560Y23923D01*
X12700Y17200D02*
X12800Y17300D01*
X14570Y17750D02*
X14600D01*
X12720Y15900D02*
X14570Y17750D01*
X11000Y15900D02*
X12720D01*
X24900Y13150D02*
X25450Y12600D01*
X24900Y13150D02*
Y16750D01*
X25400Y15750D02*
X30100D01*
X29700Y8250D02*
Y8450D01*
X30926Y4259D02*
X31594Y3591D01*
X16550Y22150D02*
Y23950D01*
X11500Y24150D02*
X12333D01*
X11050Y23700D02*
X11500Y24150D01*
X30109Y4259D02*
X30926D01*
X31550Y5450D02*
X32031D01*
X42019D02*
X42500D01*
X6700Y17900D02*
X7650Y16950D01*
X3550Y17900D02*
X6700D01*
X16500Y21050D02*
X16950D01*
X19100Y18900D01*
X2600Y18850D02*
X3550Y17900D01*
X4240Y18210D02*
X9740D01*
X7600Y15900D02*
X7750Y15750D01*
X2600Y19850D02*
X4240Y18210D01*
X1600Y18850D02*
X2600D01*
X8400Y17050D02*
X10300D01*
X7600Y16250D02*
X8400Y17050D01*
X12000Y22400D02*
X12050Y22450D01*
X7268Y15000D02*
X7550D01*
X7258Y15010D02*
X7268Y15000D01*
X7550D02*
X8900Y16350D01*
X13850Y9950D02*
X15200D01*
X47025Y20425D02*
X47125D01*
X13150Y21850D02*
X46259D01*
X46659Y22250D01*
X1000Y18350D02*
X1500Y17850D01*
X49981Y21550D02*
X50050Y21481D01*
X49350Y21550D02*
X49981D01*
X46659Y22250D02*
X49950D01*
X8900Y16350D02*
X9850D01*
X36600Y9250D02*
X45550D01*
X30100Y15750D02*
X36600Y9250D01*
X9460Y16000D02*
X9634Y15826D01*
X9450Y16000D02*
X9460D01*
X10300Y17050D02*
X10850Y17600D01*
X10835Y15365D02*
X12815D01*
X9850Y16350D02*
X10835Y15365D01*
X28700Y10750D02*
Y13750D01*
X45850Y19250D02*
X47025Y20425D01*
X45850Y17500D02*
Y19250D01*
X44200Y18700D02*
Y19450D01*
X43750Y18250D02*
X44200Y18700D01*
X1000Y21209D02*
Y21350D01*
X1500Y19850D02*
X2600D01*
X1000Y20350D02*
X1500Y19850D01*
X1100Y19350D02*
X1600Y18850D01*
X1000Y19350D02*
X1100D01*
X12050Y22450D02*
Y22550D01*
X11050Y23631D02*
Y23700D01*
X9950Y18000D02*
X10600D01*
X9740Y18210D02*
X9950Y18000D01*
X11422Y16622D02*
Y16670D01*
X11550Y16799D01*
Y17300D01*
X13232Y14850D02*
X13600D01*
D16*
X43169Y5450D02*
D03*
X42500D02*
D03*
X15300Y5500D02*
D03*
X14631D02*
D03*
X32031Y5450D02*
D03*
X32700D02*
D03*
X23931Y5500D02*
D03*
X24600D02*
D03*
D17*
X42900Y3000D02*
D03*
X24250D02*
D03*
X32400D02*
D03*
X15000D02*
D03*
X8074Y22450D02*
D03*
X9058D02*
D03*
X10050D02*
D03*
X11026D02*
D03*
X12050D02*
D03*
X13050D02*
D03*
X14050D02*
D03*
X15050D02*
D03*
X16050D02*
D03*
X17050D02*
D03*
X18050D02*
D03*
X19050D02*
D03*
X20058D02*
D03*
X21050D02*
D03*
X22050D02*
D03*
X23050D02*
D03*
X24050D02*
D03*
X25082D02*
D03*
X26050D02*
D03*
X27050D02*
D03*
D18*
X50050Y22150D02*
D03*
Y21481D02*
D03*
D35*
X9050Y23631D02*
D03*
X10050D02*
D03*
X11050D02*
D03*
X12050D02*
D03*
X13050D02*
D03*
X14050D02*
D03*
X15050D02*
D03*
X16050D02*
D03*
X17050D02*
D03*
X18050D02*
D03*
X19050D02*
D03*
X20050D02*
D03*
X21050D02*
D03*
X22050D02*
D03*
X23050D02*
D03*
X24050D02*
D03*
X25050D02*
D03*
X26050D02*
D03*
X8050D02*
D03*
X48700Y11600D02*
D03*
X49700D02*
D03*
X50700D02*
D03*
X51700D02*
D03*
X47700Y10600D02*
D03*
X48700D02*
D03*
X49700D02*
D03*
X50700D02*
D03*
X51700D02*
D03*
X1000Y14350D02*
D03*
Y15350D02*
D03*
Y16350D02*
D03*
Y17350D02*
D03*
Y18350D02*
D03*
Y19350D02*
D03*
Y20350D02*
D03*
Y21350D02*
D03*
X2000Y14350D02*
D03*
Y15350D02*
D03*
Y16350D02*
D03*
Y17350D02*
D03*
Y18350D02*
D03*
Y19350D02*
D03*
Y20350D02*
D03*
D44*
X43900Y3000D02*
G03*
X41900Y3000I-1000J0D01*
G01*
D02*
G03*
X43900Y3000I1000J0D01*
G01*
X16000D02*
G03*
X15804Y3595I-1000J0D01*
G01*
X25250Y3000D02*
G03*
X25250Y3000I-1000J0D01*
G01*
X33400D02*
G03*
X31594Y3591I-1000J0D01*
G01*
D02*
G03*
X33400Y3000I806J-591D01*
G01*
X15804Y3595D02*
G03*
X16000Y3000I-804J-595D01*
G01*
D45*
X3175Y14875D02*
Y15775D01*
X3000Y15950D02*
X3110Y15840D01*
X8110Y9390D02*
X8120D01*
X7210D02*
X8110D01*
X1000Y16350D02*
X2000D01*
X10740Y6650D02*
Y6760D01*
X8110Y9390D02*
X10740Y6760D01*
X8120Y9390D02*
Y12060D01*
X6880Y13300D02*
X8120Y12060D01*
X4750Y13300D02*
X6880D01*
X9610Y6340D02*
X11440D01*
X6500Y9450D02*
X9610Y6340D01*
X11440D02*
X11800Y6700D01*
X12228Y6100D02*
X19100D01*
X11550Y5422D02*
X12228Y6100D01*
X19100D02*
X19350Y5850D01*
X20000D01*
X11550Y5400D02*
Y5422D01*
X3175Y14875D02*
X4750Y13300D01*
X3000Y15950D02*
Y17100D01*
X2750Y17350D02*
X3000Y17100D01*
X2600Y16350D02*
X3000Y15950D01*
X2000Y16350D02*
X2600D01*
X2000Y17350D02*
X2750D01*
X1000D02*
X2000D01*
D46*
X36400Y22580D02*
D03*
Y23860D02*
D03*
X29250Y4000D02*
D03*
X3000Y1000D02*
D03*
X28250Y4000D02*
D03*
X48700Y1000D02*
D03*
X11300Y20200D02*
D03*
X21050Y11500D02*
D03*
X27250Y4000D02*
D03*
X15120Y9480D02*
D03*
D47*
X4255Y6470D02*
D03*
D48*
X3074Y4580D02*
D03*
D49*
X5436D02*
D03*
D50*
X1420D02*
D03*
D51*
X27050Y23631D02*
D03*
X47700Y11600D02*
D03*
D52*
X34020Y23631D02*
D03*
Y8670D02*
D03*
X1100Y23601D02*
D03*
X967Y9169D02*
D03*
D53*
X21350Y17700D02*
D03*
X3175Y15775D02*
D03*
D54*
X41750Y18250D02*
D03*
Y9850D02*
D03*
D55*
X42750Y18250D02*
D03*
X43750D02*
D03*
Y23450D02*
D03*
X41750D02*
D03*
Y15050D02*
D03*
X43750D02*
D03*
Y9850D02*
D03*
X42750D02*
D03*
D56*
X45350Y20850D02*
D03*
X40150D02*
D03*
Y12450D02*
D03*
X45350D02*
D03*
D57*
X49900Y7000D02*
D03*
Y14500D02*
D03*
D58*
X5800Y15500D02*
D03*
X5815Y16300D02*
D03*
D59*
X2000Y21350D02*
D03*
D60*
X1500Y12987D02*
D03*
Y10113D02*
D03*
D61*
X2957Y11865D02*
D03*
Y11235D02*
D03*
X3449Y10920D02*
D03*
Y11550D02*
D03*
Y12180D02*
D03*
D62*
X3300Y22200D02*
D03*
Y21700D02*
D03*
X3800Y22200D02*
D03*
Y21700D02*
D03*
X4300Y22200D02*
D03*
Y21700D02*
D03*
X4800Y22200D02*
D03*
Y21700D02*
D03*
X5300Y22200D02*
D03*
D63*
Y21700D02*
D03*
D64*
X1200Y1250D02*
D03*
X52450Y1200D02*
D03*
Y23500D02*
D03*
D65*
X6160Y12570D02*
D03*
X24660Y8380D02*
D03*
X24640Y7660D02*
D03*
X12890Y12410D02*
D03*
X10410Y20260D02*
D03*
X10100Y19920D02*
D03*
X7210Y9390D02*
D03*
X7700Y9770D02*
D03*
X8340Y13570D02*
D03*
X8960Y13250D02*
D03*
X6570Y10810D02*
D03*
X10740Y6650D02*
D03*
X16300Y15540D02*
D03*
X17210Y15890D02*
D03*
X14308Y15952D02*
D03*
X14670Y16810D02*
D03*
X6500Y9450D02*
D03*
X16910Y17810D02*
D03*
X16550Y23950D02*
D03*
X6080Y23790D02*
D03*
X32210Y24100D02*
D03*
X26790Y19520D02*
D03*
X28230Y18230D02*
D03*
X30510Y20320D02*
D03*
X28940Y19930D02*
D03*
X27440Y18655D02*
D03*
X25840Y18570D02*
D03*
X29410Y11300D02*
D03*
X11720Y10500D02*
D03*
X12080Y11660D02*
D03*
X12530Y11940D02*
D03*
X14240Y14170D02*
D03*
X17540Y12830D02*
D03*
X3840Y16240D02*
D03*
X18615Y15680D02*
D03*
X13960Y13560D02*
D03*
X13240Y20120D02*
D03*
X12940Y19550D02*
D03*
X12900Y20450D02*
D03*
X13450Y20750D02*
D03*
X12300Y19750D02*
D03*
X10650Y18500D02*
D03*
X23050Y16800D02*
D03*
X13500Y13400D02*
D03*
X7450Y13550D02*
D03*
X5750Y14300D02*
D03*
X20000Y5850D02*
D03*
X11550Y5400D02*
D03*
X11858Y6758D02*
D03*
X14150Y5500D02*
D03*
X15500Y12800D02*
D03*
X20200Y13050D02*
D03*
X17250Y13700D02*
D03*
X3700Y16950D02*
D03*
X25050Y6300D02*
D03*
X31800Y6250D02*
D03*
X26400Y4650D02*
D03*
X25450Y5650D02*
D03*
X21850Y5350D02*
D03*
X18000Y2350D02*
D03*
X13000Y1550D02*
D03*
X21800Y12300D02*
D03*
X40750Y1400D02*
D03*
X30000Y2000D02*
D03*
X26760Y2310D02*
D03*
X9450Y20850D02*
D03*
X7750Y20600D02*
D03*
X7350Y19350D02*
D03*
X9350Y19600D02*
D03*
X12650Y18000D02*
D03*
X13000Y21050D02*
D03*
X12300Y20650D02*
D03*
X14200Y18200D02*
D03*
X14150Y17750D02*
D03*
X14600D02*
D03*
X21162Y13288D02*
D03*
X25450Y12600D02*
D03*
X25400Y15750D02*
D03*
X29700Y8250D02*
D03*
X30200Y6950D02*
D03*
X21075Y6025D02*
D03*
X22800Y6000D02*
D03*
X16550Y22150D02*
D03*
X40350Y5450D02*
D03*
X31550Y5350D02*
D03*
X42019Y5450D02*
D03*
X7650Y16950D02*
D03*
X16500Y21050D02*
D03*
X7750Y15750D02*
D03*
X7600Y16250D02*
D03*
X14900Y19650D02*
D03*
X11500Y21900D02*
D03*
X9900Y13550D02*
D03*
X5000Y13900D02*
D03*
X6600Y22650D02*
D03*
X18950Y17200D02*
D03*
X19100Y18900D02*
D03*
X13150Y21850D02*
D03*
X5050Y18650D02*
D03*
X8100Y14850D02*
D03*
X4550Y17350D02*
D03*
X49350Y21550D02*
D03*
X45550Y9250D02*
D03*
X9450Y16000D02*
D03*
X9374Y15576D02*
D03*
X10400Y16562D02*
D03*
X12815Y15365D02*
D03*
X23000Y11750D02*
D03*
X28250Y11300D02*
D03*
X9400Y17650D02*
D03*
X47100Y20450D02*
D03*
X45850Y17500D02*
D03*
X44200Y19450D02*
D03*
X24900Y16750D02*
D03*
X48900Y4300D02*
D03*
X49650Y23550D02*
D03*
X46300Y16600D02*
D03*
X7650Y7500D02*
D03*
X28700Y13750D02*
D03*
X26350Y12150D02*
D03*
X11422Y16622D02*
D03*
X11550Y17300D02*
D03*
X12700D02*
D03*
X12550Y16600D02*
D03*
X12250Y16200D02*
D03*
X10600Y18000D02*
D03*
X10850Y17600D02*
D03*
X13600Y14850D02*
D03*
X11000Y15900D02*
D03*
X12968Y14218D02*
D03*
X12400Y14900D02*
D03*
X28150Y12600D02*
D03*
X29250Y12050D02*
D03*
D66*
X7477Y10710D02*
D03*
X7163D02*
D03*
M02*
