G04*
G04 #@! TF.GenerationSoftware,Altium Limited,Altium Designer,19.1.5 (86)*
G04*
G04 Layer_Color=65535*
%FSLAX24Y24*%
%MOIN*%
G70*
G01*
G75*
%ADD10C,0.0100*%
%ADD11C,0.0079*%
%ADD12C,0.0060*%
%ADD13C,0.0300*%
%ADD14C,0.0050*%
%ADD15C,0.0150*%
G36*
X35357Y9556D02*
X35350D01*
Y9558D01*
X35357D01*
Y9556D01*
D02*
G37*
D10*
X43750Y20750D02*
G03*
X43750Y20750I-1000J0D01*
G01*
Y12350D02*
G03*
X43750Y12350I-1000J0D01*
G01*
X44900Y3000D02*
G03*
X44900Y3000I-2000J0D01*
G01*
X34400D02*
G03*
X34400Y3000I-2000J0D01*
G01*
X26250D02*
G03*
X26250Y3000I-2000J0D01*
G01*
X17000D02*
G03*
X17000Y3000I-2000J0D01*
G01*
X570Y9958D02*
Y21375D01*
X34920Y9958D02*
Y21375D01*
X570Y9958D02*
X34920Y9958D01*
X570Y21375D02*
X34920Y21375D01*
X40250Y17750D02*
Y18750D01*
Y17750D02*
X45250D01*
X40250Y24050D02*
X45250D01*
X40250Y22250D02*
Y24050D01*
X45250Y17750D02*
Y18750D01*
Y22250D02*
Y24050D01*
Y13850D02*
Y15650D01*
Y9350D02*
Y10350D01*
X40250Y13850D02*
Y15650D01*
X45250D01*
X40250Y9350D02*
X45250D01*
X40250D02*
Y10350D01*
X48317Y21083D02*
X48250Y21150D01*
X48117D01*
X48050Y21083D01*
Y20817D01*
X48117Y20750D01*
X48250D01*
X48317Y20817D01*
X48450Y21017D02*
Y20817D01*
X48517Y20750D01*
X48716D01*
Y21017D01*
X48850D02*
Y20750D01*
Y20883D01*
X48916Y20950D01*
X48983Y21017D01*
X49050D01*
X49250D02*
Y20750D01*
Y20883D01*
X49316Y20950D01*
X49383Y21017D01*
X49450D01*
X49849Y20750D02*
X49716D01*
X49649Y20817D01*
Y20950D01*
X49716Y21017D01*
X49849D01*
X49916Y20950D01*
Y20883D01*
X49649D01*
X50049Y20750D02*
Y21017D01*
X50249D01*
X50316Y20950D01*
Y20750D01*
X50516Y21083D02*
Y21017D01*
X50449D01*
X50583D01*
X50516D01*
Y20817D01*
X50583Y20750D01*
X51182Y21150D02*
Y20750D01*
X51449D01*
X51582D02*
X51715D01*
X51649D01*
Y21017D01*
X51582D01*
X51915Y20750D02*
Y21017D01*
X51982D01*
X52049Y20950D01*
Y20750D01*
Y20950D01*
X52115Y21017D01*
X52182Y20950D01*
Y20750D01*
X52315D02*
X52449D01*
X52382D01*
Y21017D01*
X52315D01*
X52715Y21083D02*
Y21017D01*
X52649D01*
X52782D01*
X52715D01*
Y20817D01*
X52782Y20750D01*
D11*
X35550Y8706D02*
Y23497D01*
X1471Y7588D02*
X34432D01*
X8784Y24615D02*
X34432D01*
X-21Y8375D02*
Y23627D01*
X967Y24615D02*
X8784Y24615D01*
X1467Y7592D02*
X1471Y7588D01*
D12*
X42230Y5730D02*
X43583D01*
X42230Y5364D02*
Y5730D01*
Y5160D02*
Y5364D01*
Y5730D01*
X43435Y5160D02*
Y5730D01*
X42230Y5160D02*
X43583D01*
Y5730D01*
X14361Y5780D02*
X15713D01*
X14361Y5414D02*
Y5780D01*
Y5210D02*
Y5414D01*
Y5780D01*
X15566Y5210D02*
Y5780D01*
X14361Y5210D02*
X15713D01*
Y5780D01*
X33113Y5160D02*
Y5730D01*
X31761Y5160D02*
X33113D01*
X32966D02*
Y5730D01*
X31761Y5364D02*
Y5730D01*
Y5160D02*
Y5364D01*
Y5730D01*
X33113D01*
X25013Y5210D02*
Y5780D01*
X23661Y5210D02*
X25013D01*
X24866D02*
Y5780D01*
X23661Y5414D02*
Y5780D01*
Y5210D02*
Y5414D01*
Y5780D01*
X25013D01*
X49770Y21211D02*
Y22563D01*
Y21211D02*
X50136D01*
X50340D01*
X49770D02*
X50136D01*
X49770Y22416D02*
X50340D01*
Y21211D02*
Y22563D01*
X49770D02*
X50340D01*
D13*
X49950Y17475D02*
Y18625D01*
Y16900D02*
Y17475D01*
Y18625D02*
Y19200D01*
X49425Y18050D02*
X50575D01*
X48850D02*
X49425D01*
X50575D02*
X51150D01*
X51075Y3800D02*
X51300D01*
X49000D02*
X50500D01*
X51075D01*
D14*
X10938Y15762D02*
Y16155D01*
X11200Y15762D01*
Y16155D01*
X11528Y15762D02*
X11397D01*
X11332Y15827D01*
Y15958D01*
X11397Y16024D01*
X11528D01*
X11594Y15958D01*
Y15893D01*
X11332D01*
X11725Y16024D02*
Y15827D01*
X11791Y15762D01*
X11856Y15827D01*
X11922Y15762D01*
X11988Y15827D01*
Y16024D01*
X12119Y16155D02*
Y15762D01*
Y15958D01*
X12184Y16024D01*
X12315D01*
X12381Y15958D01*
Y15762D01*
X12578Y16024D02*
X12709D01*
X12775Y15958D01*
Y15762D01*
X12578D01*
X12512Y15827D01*
X12578Y15893D01*
X12775D01*
X12906Y16024D02*
X13037Y15762D01*
X13168Y16024D01*
X13496Y15762D02*
X13365D01*
X13299Y15827D01*
Y15958D01*
X13365Y16024D01*
X13496D01*
X13562Y15958D01*
Y15893D01*
X13299D01*
X13693Y15762D02*
Y16024D01*
X13890D01*
X13955Y15958D01*
Y15762D01*
X14480Y16155D02*
Y15762D01*
X14677D01*
X14743Y15827D01*
Y16090D01*
X14677Y16155D01*
X14480D01*
X14874Y15762D02*
X15005D01*
X14939D01*
Y16024D01*
X14874D01*
X15202Y15762D02*
X15398D01*
X15464Y15827D01*
X15398Y15893D01*
X15267D01*
X15202Y15958D01*
X15267Y16024D01*
X15464D01*
X15595Y15630D02*
Y16024D01*
X15792D01*
X15858Y15958D01*
Y15827D01*
X15792Y15762D01*
X15595D01*
X15989D02*
X16120D01*
X16054D01*
Y16155D01*
X15989D01*
X16382Y16024D02*
X16514D01*
X16579Y15958D01*
Y15762D01*
X16382D01*
X16317Y15827D01*
X16382Y15893D01*
X16579D01*
X16710Y16024D02*
Y15827D01*
X16776Y15762D01*
X16973D01*
Y15696D01*
X16907Y15630D01*
X16842D01*
X16973Y15762D02*
Y16024D01*
X17498Y15762D02*
Y16155D01*
X17760Y15762D01*
Y16155D01*
X17891D02*
Y15762D01*
Y15958D01*
X18154D01*
Y16155D01*
Y15762D01*
X18285Y16155D02*
Y15762D01*
X18481D01*
X18547Y15827D01*
Y16090D01*
X18481Y16155D01*
X18285D01*
X18678Y15958D02*
X18941D01*
X19072Y16090D02*
X19137Y16155D01*
X19269D01*
X19334Y16090D01*
Y16024D01*
X19269Y15958D01*
X19203D01*
X19269D01*
X19334Y15893D01*
Y15827D01*
X19269Y15762D01*
X19137D01*
X19072Y15827D01*
X19465Y15762D02*
Y15827D01*
X19531D01*
Y15762D01*
X19465D01*
X19793D02*
X19925D01*
X19859D01*
Y16155D01*
X19793Y16090D01*
X20384Y15762D02*
X20121D01*
X20384Y16024D01*
Y16090D01*
X20318Y16155D01*
X20187D01*
X20121Y16090D01*
X20515Y15958D02*
X20777D01*
X21171Y15762D02*
X20909D01*
X21171Y16024D01*
Y16090D01*
X21105Y16155D01*
X20974D01*
X20909Y16090D01*
X21564Y16155D02*
X21302D01*
Y15958D01*
X21433Y16024D01*
X21499D01*
X21564Y15958D01*
Y15827D01*
X21499Y15762D01*
X21368D01*
X21302Y15827D01*
X21958Y16155D02*
X21827Y16090D01*
X21696Y15958D01*
Y15827D01*
X21761Y15762D01*
X21892D01*
X21958Y15827D01*
Y15893D01*
X21892Y15958D01*
X21696D01*
X22352Y16155D02*
X22220Y16090D01*
X22089Y15958D01*
Y15827D01*
X22155Y15762D01*
X22286D01*
X22352Y15827D01*
Y15893D01*
X22286Y15958D01*
X22089D01*
X22680Y15762D02*
Y16155D01*
X22483Y15958D01*
X22745D01*
X22876Y16155D02*
Y15827D01*
X22942Y15762D01*
X23073D01*
X23139Y15827D01*
Y16155D01*
X23532Y16090D02*
X23467Y16155D01*
X23336D01*
X23270Y16090D01*
Y15827D01*
X23336Y15762D01*
X23467D01*
X23532Y15827D01*
X23664Y16024D02*
X23926Y15762D01*
X23795Y15893D01*
X23926Y16024D01*
X23664Y15762D01*
X24057Y16024D02*
X24320Y15762D01*
X24188Y15893D01*
X24320Y16024D01*
X24057Y15762D01*
X16259Y18914D02*
X16521D01*
X16390D01*
Y18521D01*
X16718D02*
X16849D01*
X16915Y18586D01*
Y18718D01*
X16849Y18783D01*
X16718D01*
X16652Y18718D01*
Y18586D01*
X16718Y18521D01*
X17046Y18390D02*
Y18783D01*
X17243D01*
X17308Y18718D01*
Y18586D01*
X17243Y18521D01*
X17046D01*
X17833Y18914D02*
Y18652D01*
X17964Y18521D01*
X18095Y18652D01*
Y18914D01*
X18227Y18521D02*
X18358D01*
X18292D01*
Y18783D01*
X18227D01*
X18751Y18521D02*
X18620D01*
X18555Y18586D01*
Y18718D01*
X18620Y18783D01*
X18751D01*
X18817Y18718D01*
Y18652D01*
X18555D01*
X18948Y18783D02*
Y18586D01*
X19014Y18521D01*
X19079Y18586D01*
X19145Y18521D01*
X19210Y18586D01*
Y18783D01*
X27837Y23434D02*
X27969D01*
X27903D01*
Y23828D01*
X27837Y23762D01*
X7462Y24050D02*
X7200D01*
X7462Y24312D01*
Y24378D01*
X7397Y24444D01*
X7266D01*
X7200Y24378D01*
X7594D02*
X7659Y24444D01*
X7790D01*
X7856Y24378D01*
Y24116D01*
X7790Y24050D01*
X7659D01*
X7594Y24116D01*
Y24378D01*
X21080Y18510D02*
X21247D01*
X21163D01*
Y18260D01*
X21497D02*
X21330D01*
X21497Y18427D01*
Y18468D01*
X21455Y18510D01*
X21372D01*
X21330Y18468D01*
X27880Y22600D02*
Y22392D01*
X27922Y22350D01*
X28005D01*
X28047Y22392D01*
Y22600D01*
X28297Y22350D02*
X28130D01*
X28297Y22517D01*
Y22558D01*
X28255Y22600D01*
X28172D01*
X28130Y22558D01*
X40667Y4608D02*
X40625Y4650D01*
X40542D01*
X40500Y4608D01*
Y4442D01*
X40542Y4400D01*
X40625D01*
X40667Y4442D01*
X40917Y4608D02*
X40875Y4650D01*
X40792D01*
X40750Y4608D01*
Y4567D01*
X40792Y4525D01*
X40875D01*
X40917Y4483D01*
Y4442D01*
X40875Y4400D01*
X40792D01*
X40750Y4442D01*
X41125Y4400D02*
Y4650D01*
X41000Y4525D01*
X41166D01*
X22217Y4808D02*
X22175Y4850D01*
X22092D01*
X22050Y4808D01*
Y4642D01*
X22092Y4600D01*
X22175D01*
X22217Y4642D01*
X22467Y4808D02*
X22425Y4850D01*
X22342D01*
X22300Y4808D01*
Y4767D01*
X22342Y4725D01*
X22425D01*
X22467Y4683D01*
Y4642D01*
X22425Y4600D01*
X22342D01*
X22300Y4642D01*
X22550Y4808D02*
X22591Y4850D01*
X22675D01*
X22716Y4808D01*
Y4767D01*
X22675Y4725D01*
X22633D01*
X22675D01*
X22716Y4683D01*
Y4642D01*
X22675Y4600D01*
X22591D01*
X22550Y4642D01*
X30517Y4908D02*
X30475Y4950D01*
X30392D01*
X30350Y4908D01*
Y4742D01*
X30392Y4700D01*
X30475D01*
X30517Y4742D01*
X30767Y4908D02*
X30725Y4950D01*
X30642D01*
X30600Y4908D01*
Y4867D01*
X30642Y4825D01*
X30725D01*
X30767Y4783D01*
Y4742D01*
X30725Y4700D01*
X30642D01*
X30600Y4742D01*
X31016Y4700D02*
X30850D01*
X31016Y4867D01*
Y4908D01*
X30975Y4950D01*
X30891D01*
X30850Y4908D01*
X13117Y4858D02*
X13075Y4900D01*
X12992D01*
X12950Y4858D01*
Y4692D01*
X12992Y4650D01*
X13075D01*
X13117Y4692D01*
X13367Y4858D02*
X13325Y4900D01*
X13242D01*
X13200Y4858D01*
Y4817D01*
X13242Y4775D01*
X13325D01*
X13367Y4733D01*
Y4692D01*
X13325Y4650D01*
X13242D01*
X13200Y4692D01*
X13450Y4650D02*
X13533D01*
X13491D01*
Y4900D01*
X13450Y4858D01*
X42410Y6140D02*
Y5890D01*
X42577D01*
X42827Y6140D02*
X42660D01*
Y5890D01*
X42827D01*
X42660Y6015D02*
X42743D01*
X42910Y6140D02*
Y5890D01*
X43035D01*
X43076Y5932D01*
Y6098D01*
X43035Y6140D01*
X42910D01*
X43326D02*
X43243Y6098D01*
X43160Y6015D01*
Y5932D01*
X43201Y5890D01*
X43285D01*
X43326Y5932D01*
Y5973D01*
X43285Y6015D01*
X43160D01*
X23930Y6210D02*
Y5960D01*
X24097D01*
X24347Y6210D02*
X24180D01*
Y5960D01*
X24347D01*
X24180Y6085D02*
X24263D01*
X24430Y6210D02*
Y5960D01*
X24555D01*
X24596Y6002D01*
Y6168D01*
X24555Y6210D01*
X24430D01*
X24846D02*
X24680D01*
Y6085D01*
X24763Y6127D01*
X24805D01*
X24846Y6085D01*
Y6002D01*
X24805Y5960D01*
X24721D01*
X24680Y6002D01*
X32060Y6140D02*
Y5890D01*
X32227D01*
X32477Y6140D02*
X32310D01*
Y5890D01*
X32477D01*
X32310Y6015D02*
X32393D01*
X32560Y6140D02*
Y5890D01*
X32685D01*
X32726Y5932D01*
Y6098D01*
X32685Y6140D01*
X32560D01*
X32935Y5890D02*
Y6140D01*
X32810Y6015D01*
X32976D01*
X50750Y22550D02*
X50500D01*
Y22383D01*
X50750Y22133D02*
Y22300D01*
X50500D01*
Y22133D01*
X50625Y22300D02*
Y22217D01*
X50750Y22050D02*
X50500D01*
Y21925D01*
X50542Y21884D01*
X50708D01*
X50750Y21925D01*
Y22050D01*
X50708Y21800D02*
X50750Y21759D01*
Y21675D01*
X50708Y21634D01*
X50667D01*
X50625Y21675D01*
Y21717D01*
Y21675D01*
X50583Y21634D01*
X50542D01*
X50500Y21675D01*
Y21759D01*
X50542Y21800D01*
X48607Y1828D02*
X48565Y1870D01*
X48482D01*
X48440Y1828D01*
Y1662D01*
X48482Y1620D01*
X48565D01*
X48607Y1662D01*
Y1745D01*
X48523D01*
X48690Y1620D02*
Y1870D01*
X48857Y1620D01*
Y1870D01*
X48940D02*
Y1620D01*
X49065D01*
X49106Y1662D01*
Y1828D01*
X49065Y1870D01*
X48940D01*
X49190Y1828D02*
X49231Y1870D01*
X49315D01*
X49356Y1828D01*
Y1787D01*
X49315Y1745D01*
X49273D01*
X49315D01*
X49356Y1703D01*
Y1662D01*
X49315Y1620D01*
X49231D01*
X49190Y1662D01*
X3567Y1008D02*
X3525Y1050D01*
X3442D01*
X3400Y1008D01*
Y842D01*
X3442Y800D01*
X3525D01*
X3567Y842D01*
Y925D01*
X3483D01*
X3650Y800D02*
Y1050D01*
X3817Y800D01*
Y1050D01*
X3900D02*
Y800D01*
X4025D01*
X4066Y842D01*
Y1008D01*
X4025Y1050D01*
X3900D01*
X4316Y800D02*
X4150D01*
X4316Y967D01*
Y1008D01*
X4275Y1050D01*
X4191D01*
X4150Y1008D01*
X52127Y8100D02*
X52043D01*
X52085D01*
Y7892D01*
X52043Y7850D01*
X52002D01*
X51960Y7892D01*
X52210Y7850D02*
X52293D01*
X52252D01*
Y8100D01*
X52210Y8058D01*
X40517Y16108D02*
X40475Y16150D01*
X40392D01*
X40350Y16108D01*
Y16067D01*
X40392Y16025D01*
X40475D01*
X40517Y15983D01*
Y15942D01*
X40475Y15900D01*
X40392D01*
X40350Y15942D01*
X40767Y16150D02*
X40600D01*
Y16025D01*
X40683Y16067D01*
X40725D01*
X40767Y16025D01*
Y15942D01*
X40725Y15900D01*
X40642D01*
X40600Y15942D01*
X39817Y22158D02*
X39775Y22200D01*
X39692D01*
X39650Y22158D01*
Y22117D01*
X39692Y22075D01*
X39775D01*
X39817Y22033D01*
Y21992D01*
X39775Y21950D01*
X39692D01*
X39650Y21992D01*
X39900Y21950D02*
X39983D01*
X39942D01*
Y22200D01*
X39900Y22158D01*
X51777Y16260D02*
X51693D01*
X51735D01*
Y16052D01*
X51693Y16010D01*
X51652D01*
X51610Y16052D01*
X52027Y16010D02*
X51860D01*
X52027Y16177D01*
Y16218D01*
X51985Y16260D01*
X51902D01*
X51860Y16218D01*
X14590Y6200D02*
Y5950D01*
X14757D01*
X15007Y6200D02*
X14840D01*
Y5950D01*
X15007D01*
X14840Y6075D02*
X14923D01*
X15090Y6200D02*
Y5950D01*
X15215D01*
X15256Y5992D01*
Y6158D01*
X15215Y6200D01*
X15090D01*
X15340Y5950D02*
X15423D01*
X15381D01*
Y6200D01*
X15340Y6158D01*
D15*
X41300Y8950D02*
X41200Y9050D01*
X41000D01*
X40900Y8950D01*
Y8550D01*
X41000Y8450D01*
X41200D01*
X41300Y8550D01*
X41500Y8850D02*
Y8550D01*
X41600Y8450D01*
X41900D01*
Y8850D01*
X42100D02*
Y8450D01*
Y8650D01*
X42200Y8750D01*
X42300Y8850D01*
X42400D01*
X42699D02*
Y8450D01*
Y8650D01*
X42799Y8750D01*
X42899Y8850D01*
X42999D01*
X43599Y8450D02*
X43399D01*
X43299Y8550D01*
Y8750D01*
X43399Y8850D01*
X43599D01*
X43699Y8750D01*
Y8650D01*
X43299D01*
X43899Y8450D02*
Y8850D01*
X44199D01*
X44299Y8750D01*
Y8450D01*
X44599Y8950D02*
Y8850D01*
X44499D01*
X44699D01*
X44599D01*
Y8550D01*
X44699Y8450D01*
X40900Y17450D02*
Y17050D01*
X41100Y16850D01*
X41300Y17050D01*
Y17450D01*
X41600Y16850D02*
X41800D01*
X41900Y16950D01*
Y17150D01*
X41800Y17250D01*
X41600D01*
X41500Y17150D01*
Y16950D01*
X41600Y16850D01*
X42100D02*
X42300D01*
X42200D01*
Y17450D01*
X42100D01*
X42699Y17350D02*
Y17250D01*
X42599D01*
X42799D01*
X42699D01*
Y16950D01*
X42799Y16850D01*
X43199Y17250D02*
X43399D01*
X43499Y17150D01*
Y16850D01*
X43199D01*
X43099Y16950D01*
X43199Y17050D01*
X43499D01*
X43899Y16650D02*
X43999D01*
X44099Y16750D01*
Y17250D01*
X43799D01*
X43699Y17150D01*
Y16950D01*
X43799Y16850D01*
X44099D01*
X44599D02*
X44399D01*
X44299Y16950D01*
Y17150D01*
X44399Y17250D01*
X44599D01*
X44699Y17150D01*
Y17050D01*
X44299D01*
X13600Y3300D02*
X13400D01*
X13300Y3200D01*
Y2800D01*
X13400Y2700D01*
X13600D01*
X13700Y2800D01*
Y3200D01*
X13600Y3300D01*
X13900Y2700D02*
Y3300D01*
X14300Y2700D01*
Y3300D01*
X14500Y2700D02*
X14899Y3100D01*
X15399Y3300D02*
X15199D01*
X15099Y3200D01*
Y2800D01*
X15199Y2700D01*
X15399D01*
X15499Y2800D01*
Y3200D01*
X15399Y3300D01*
X16099D02*
X15699D01*
Y3000D01*
X15899D01*
X15699D01*
Y2700D01*
X16699Y3300D02*
X16299D01*
Y3000D01*
X16499D01*
X16299D01*
Y2700D01*
X23100Y2750D02*
Y3350D01*
X23300Y3150D01*
X23500Y3350D01*
Y2750D01*
X24000D02*
X23800D01*
X23700Y2850D01*
Y3050D01*
X23800Y3150D01*
X24000D01*
X24100Y3050D01*
Y2950D01*
X23700D01*
X24300Y2750D02*
Y3150D01*
X24400D01*
X24500Y3050D01*
Y2750D01*
Y3050D01*
X24600Y3150D01*
X24699Y3050D01*
Y2750D01*
X25299D02*
X24899D01*
X25299Y3150D01*
Y3250D01*
X25199Y3350D01*
X24999D01*
X24899Y3250D01*
X31400Y2750D02*
Y3350D01*
X31600Y3150D01*
X31800Y3350D01*
Y2750D01*
X32300D02*
X32100D01*
X32000Y2850D01*
Y3050D01*
X32100Y3150D01*
X32300D01*
X32400Y3050D01*
Y2950D01*
X32000D01*
X32600Y2750D02*
Y3150D01*
X32700D01*
X32800Y3050D01*
Y2750D01*
Y3050D01*
X32900Y3150D01*
X32999Y3050D01*
Y2750D01*
X33199D02*
X33399D01*
X33299D01*
Y3350D01*
X33199Y3250D01*
X41650Y3300D02*
X41450D01*
X41350Y3200D01*
Y2800D01*
X41450Y2700D01*
X41650D01*
X41750Y2800D01*
Y3200D01*
X41650Y3300D01*
X41950Y3100D02*
Y2800D01*
X42050Y2700D01*
X42350D01*
Y3100D01*
X42650Y3200D02*
Y3100D01*
X42550D01*
X42750D01*
X42650D01*
Y2800D01*
X42750Y2700D01*
X43049Y2500D02*
Y3100D01*
X43349D01*
X43449Y3000D01*
Y2800D01*
X43349Y2700D01*
X43049D01*
X43649Y3100D02*
Y2800D01*
X43749Y2700D01*
X44049D01*
Y3100D01*
X44349Y3200D02*
Y3100D01*
X44249D01*
X44449D01*
X44349D01*
Y2800D01*
X44449Y2700D01*
M02*
