G04*
G04 #@! TF.GenerationSoftware,Altium Limited,Altium Designer,19.1.5 (86)*
G04*
G04 Layer_Color=128*
%FSLAX24Y24*%
%MOIN*%
G70*
G01*
G75*
%ADD17C,0.0600*%
%ADD18R,0.0433X0.0394*%
%ADD67R,0.0374X0.0315*%
%ADD68R,0.0315X0.0374*%
%ADD69R,0.0394X0.0354*%
%ADD70R,0.0433X0.0433*%
%ADD71R,0.0433X0.0433*%
%ADD72R,0.0098X0.0197*%
%ADD73R,0.0630X0.0354*%
%ADD74R,0.0476X0.0874*%
%ADD75R,0.0315X0.0354*%
%ADD76R,0.0787X0.2087*%
%ADD77R,0.0433X0.0846*%
%ADD78R,0.0433X0.0846*%
%ADD79R,0.1378X0.0846*%
%ADD80O,0.0787X0.0236*%
%ADD81R,0.0787X0.0236*%
%ADD82R,0.0591X0.0492*%
%ADD83R,0.0118X0.0472*%
%ADD84R,0.0472X0.0118*%
%ADD85O,0.0472X0.0118*%
%ADD86O,0.0433X0.0236*%
%ADD87R,0.0433X0.0236*%
%ADD88R,0.0354X0.0394*%
%ADD89O,0.0940X0.0197*%
%ADD90R,0.0940X0.0197*%
%ADD91R,0.0335X0.0394*%
%ADD92R,0.0335X0.0394*%
%ADD93R,0.0394X0.0335*%
%ADD94R,0.0394X0.0335*%
D17*
X42900Y3000D02*
D03*
X24250D02*
D03*
X32400D02*
D03*
X15000D02*
D03*
D18*
X19650Y17569D02*
D03*
Y16900D02*
D03*
D67*
X30780Y8154D02*
D03*
Y8686D02*
D03*
D68*
X25816Y7240D02*
D03*
X25284D02*
D03*
X25806Y7930D02*
D03*
X25274D02*
D03*
X25806Y8570D02*
D03*
X25274D02*
D03*
D69*
X8600Y11515D02*
D03*
Y12145D02*
D03*
X14350Y19035D02*
D03*
Y19665D02*
D03*
X16950Y16715D02*
D03*
Y17345D02*
D03*
X11200Y7800D02*
D03*
Y7170D02*
D03*
X18050Y2920D02*
D03*
Y3550D02*
D03*
X17600Y5215D02*
D03*
Y4585D02*
D03*
X31200Y23085D02*
D03*
Y23715D02*
D03*
X48700Y21635D02*
D03*
Y22265D02*
D03*
X20000Y7465D02*
D03*
Y6835D02*
D03*
X4250Y8115D02*
D03*
Y7485D02*
D03*
X5000Y8115D02*
D03*
Y7485D02*
D03*
X46300Y8085D02*
D03*
Y8715D02*
D03*
X45600Y8085D02*
D03*
Y8715D02*
D03*
X38000Y10035D02*
D03*
Y10665D02*
D03*
X38750Y10035D02*
D03*
Y10665D02*
D03*
X38000Y15215D02*
D03*
Y14585D02*
D03*
X38750D02*
D03*
Y15215D02*
D03*
X17900Y11570D02*
D03*
Y12200D02*
D03*
X18650Y11585D02*
D03*
Y12215D02*
D03*
X37400Y22435D02*
D03*
Y23065D02*
D03*
X38200Y22435D02*
D03*
Y23065D02*
D03*
X47850Y22265D02*
D03*
Y21635D02*
D03*
X38150Y19885D02*
D03*
Y20515D02*
D03*
X47050Y22265D02*
D03*
Y21635D02*
D03*
X37450Y19885D02*
D03*
Y20515D02*
D03*
X30300Y23085D02*
D03*
Y23715D02*
D03*
X15000Y13770D02*
D03*
Y14400D02*
D03*
X15700Y13770D02*
D03*
Y14400D02*
D03*
X13500Y19615D02*
D03*
Y18985D02*
D03*
X6400Y8115D02*
D03*
Y7485D02*
D03*
X5150Y20615D02*
D03*
Y19985D02*
D03*
X5800Y20615D02*
D03*
Y19985D02*
D03*
X6600Y20070D02*
D03*
Y20700D02*
D03*
X6650Y22015D02*
D03*
Y21385D02*
D03*
X6600Y23815D02*
D03*
Y23185D02*
D03*
X19650Y18285D02*
D03*
Y18915D02*
D03*
X29500Y23715D02*
D03*
Y23085D02*
D03*
X29350Y12635D02*
D03*
Y13265D02*
D03*
X21750Y13285D02*
D03*
Y13915D02*
D03*
X22550Y13285D02*
D03*
Y13915D02*
D03*
X16300Y7465D02*
D03*
Y6835D02*
D03*
X5700Y7485D02*
D03*
Y8115D02*
D03*
X14750Y8155D02*
D03*
Y8785D02*
D03*
X15490Y8135D02*
D03*
Y8765D02*
D03*
X39100Y22435D02*
D03*
Y23065D02*
D03*
X39750Y19065D02*
D03*
Y18435D02*
D03*
X46700Y19115D02*
D03*
Y18485D02*
D03*
X28700Y12635D02*
D03*
Y13265D02*
D03*
X28700Y23715D02*
D03*
Y23085D02*
D03*
X12050Y5315D02*
D03*
Y4685D02*
D03*
X44950Y8715D02*
D03*
Y8085D02*
D03*
X39500Y14585D02*
D03*
Y15215D02*
D03*
X30050Y12635D02*
D03*
Y13265D02*
D03*
X39450Y10035D02*
D03*
Y10665D02*
D03*
X7050Y7485D02*
D03*
Y8115D02*
D03*
D70*
X4276Y13340D02*
D03*
X4984D02*
D03*
X4954Y9850D02*
D03*
X4246D02*
D03*
X4954Y11600D02*
D03*
X4246D02*
D03*
X4246Y12450D02*
D03*
X4954D02*
D03*
X4246Y10750D02*
D03*
X4954D02*
D03*
D71*
X6140Y11256D02*
D03*
Y11964D02*
D03*
D72*
X7025Y11094D02*
D03*
X7222D02*
D03*
X7418D02*
D03*
X7615D02*
D03*
Y10346D02*
D03*
X7418D02*
D03*
X7222D02*
D03*
X7025D02*
D03*
D73*
X7320Y10720D02*
D03*
D74*
X6867Y12040D02*
D03*
X7733D02*
D03*
D75*
X16271Y16675D02*
D03*
Y17404D02*
D03*
X15700Y16675D02*
D03*
Y17404D02*
D03*
D76*
X8199Y1350D02*
D03*
X5601D02*
D03*
D77*
X18956Y7080D02*
D03*
X17144D02*
D03*
X13756Y7530D02*
D03*
X11944D02*
D03*
D78*
X18050Y7080D02*
D03*
X12850Y7530D02*
D03*
D79*
X18050Y9520D02*
D03*
X12850Y9970D02*
D03*
D80*
X23800Y10800D02*
D03*
Y11300D02*
D03*
Y11800D02*
D03*
Y12300D02*
D03*
Y12800D02*
D03*
Y13300D02*
D03*
Y13800D02*
D03*
Y14300D02*
D03*
Y14800D02*
D03*
Y15300D02*
D03*
Y15800D02*
D03*
Y16300D02*
D03*
Y16800D02*
D03*
Y17300D02*
D03*
X27501Y10800D02*
D03*
Y11300D02*
D03*
Y11800D02*
D03*
Y12300D02*
D03*
Y12800D02*
D03*
Y13300D02*
D03*
Y13800D02*
D03*
Y14300D02*
D03*
Y14800D02*
D03*
Y15300D02*
D03*
Y15800D02*
D03*
Y16300D02*
D03*
Y16800D02*
D03*
D81*
Y17300D02*
D03*
D82*
X9100Y4813D02*
D03*
Y3987D02*
D03*
D83*
X12603Y19100D02*
D03*
X12406D02*
D03*
X12209D02*
D03*
X12012D02*
D03*
X11815D02*
D03*
X11618D02*
D03*
X11422D02*
D03*
X11225D02*
D03*
X11028D02*
D03*
X10831D02*
D03*
X10634D02*
D03*
X10437D02*
D03*
X10241D02*
D03*
X10044D02*
D03*
X9847D02*
D03*
X9650D02*
D03*
Y14218D02*
D03*
X9847D02*
D03*
X10044D02*
D03*
X10241D02*
D03*
X10437D02*
D03*
X10634D02*
D03*
X10831D02*
D03*
X11028D02*
D03*
X11225D02*
D03*
X11422D02*
D03*
X11618D02*
D03*
X11815D02*
D03*
X12012D02*
D03*
X12209D02*
D03*
X12406D02*
D03*
X12603D02*
D03*
D84*
X8685Y18135D02*
D03*
Y17939D02*
D03*
Y17742D02*
D03*
Y17545D02*
D03*
Y17348D02*
D03*
Y17151D02*
D03*
Y16954D02*
D03*
Y16757D02*
D03*
Y16561D02*
D03*
Y16364D02*
D03*
Y16167D02*
D03*
Y15970D02*
D03*
Y15773D02*
D03*
Y15576D02*
D03*
Y15380D02*
D03*
Y15183D02*
D03*
X13567D02*
D03*
Y15380D02*
D03*
Y15576D02*
D03*
Y15773D02*
D03*
Y15970D02*
D03*
Y16167D02*
D03*
Y16364D02*
D03*
Y16561D02*
D03*
Y16757D02*
D03*
Y16954D02*
D03*
Y17151D02*
D03*
Y17348D02*
D03*
Y17545D02*
D03*
Y17742D02*
D03*
Y17939D02*
D03*
D85*
Y18135D02*
D03*
D86*
X19350Y11526D02*
D03*
Y11900D02*
D03*
Y12274D02*
D03*
X20374Y11526D02*
D03*
Y11900D02*
D03*
X19374Y4600D02*
D03*
Y4226D02*
D03*
X18350Y4974D02*
D03*
Y4600D02*
D03*
Y4226D02*
D03*
D87*
X20374Y12274D02*
D03*
X19374Y4974D02*
D03*
D88*
X28315Y9750D02*
D03*
X27685D02*
D03*
X13615Y5500D02*
D03*
X12985D02*
D03*
X19365Y3550D02*
D03*
X18735D02*
D03*
Y2850D02*
D03*
X19365D02*
D03*
X4565Y1650D02*
D03*
X3935D02*
D03*
X7815Y6100D02*
D03*
X7185D02*
D03*
X47815Y9050D02*
D03*
X47185D02*
D03*
X13015Y13400D02*
D03*
X12385D02*
D03*
X8335Y14200D02*
D03*
X8965D02*
D03*
X8035Y18750D02*
D03*
X8665D02*
D03*
X15615Y15035D02*
D03*
X14985D02*
D03*
X6485Y16300D02*
D03*
X7115D02*
D03*
X7115Y15550D02*
D03*
X6485D02*
D03*
X7815Y5350D02*
D03*
X7185D02*
D03*
Y4600D02*
D03*
X7815D02*
D03*
X7185Y3850D02*
D03*
X7815D02*
D03*
X47185Y8400D02*
D03*
X47815D02*
D03*
X47185Y9700D02*
D03*
X47815D02*
D03*
X40835Y5450D02*
D03*
X41465D02*
D03*
X31015Y5350D02*
D03*
X30385D02*
D03*
X10785Y2350D02*
D03*
X11415D02*
D03*
X10835Y1600D02*
D03*
X11465D02*
D03*
X21635Y6000D02*
D03*
X22265D02*
D03*
D89*
X27170D02*
D03*
Y6500D02*
D03*
Y7000D02*
D03*
Y7500D02*
D03*
Y8000D02*
D03*
Y8500D02*
D03*
Y9000D02*
D03*
X29000Y6000D02*
D03*
Y6500D02*
D03*
Y7000D02*
D03*
Y7500D02*
D03*
Y8000D02*
D03*
Y8500D02*
D03*
D90*
Y9000D02*
D03*
D91*
X10750Y5872D02*
D03*
X11124Y4928D02*
D03*
X11100Y4172D02*
D03*
X11474Y3228D02*
D03*
D92*
X10376Y4928D02*
D03*
X10726Y3228D02*
D03*
D93*
X9128Y2326D02*
D03*
X10072Y2700D02*
D03*
D94*
X9128Y3074D02*
D03*
M02*
